<mxfile host="app.diagrams.net" agent="Mozilla/5.0 (X11; Linux x86_64) AppleWebKit/537.36 (KHTML, like Gecko) Chrome/128.0.0.0 Safari/537.36" version="24.7.7">
  <diagram name="Page-1" id="cjwS1VJ3bgk20QOkmXIT">
    <mxGraphModel dx="1444" dy="851" grid="1" gridSize="10" guides="1" tooltips="1" connect="1" arrows="1" fold="1" page="1" pageScale="1" pageWidth="850" pageHeight="1100" math="0" shadow="0">
      <root>
        <mxCell id="0" />
        <mxCell id="1" parent="0" />
        <mxCell id="rvgHuQoIqtjPsj6YoDYo-2" value="" style="rounded=1;whiteSpace=wrap;html=1;fillColor=#fff2cc;strokeColor=#d6b656;" vertex="1" parent="1">
          <mxGeometry x="19.999999999999996" y="181.95" width="180" height="121.95" as="geometry" />
        </mxCell>
        <mxCell id="rvgHuQoIqtjPsj6YoDYo-3" value="" style="shape=image;verticalLabelPosition=bottom;labelBackgroundColor=default;verticalAlign=top;aspect=fixed;imageAspect=0;image=data:image/png,iVBORw0KGgoAAAANSUhEUgAAB4AAAALfCAYAAAH3Re/VAAAACXBIWXMAAAsSAAALEgHS3X78AAAgAElEQVR4nOydPZMVRRfHD5a57M4HELXKCcXC3LUKYjHQ1LXKgfDBCDIhg0gMYQKXVAMxhiqXHEoJJxDhAwwrn2CfYHuWvn17Zrp7+u30/H9Vluy9c7vP9Nvp03369Jnj42MCAPDkndQCAADceddXQlXdHBDRtw4/fdN37VlfcvimqhunKUrftWd8y1IqKGN3ziyZQld1c5OIfvQmTSad2bVBjbGkodnK4qNRV3Vzjoj+DZlnTmU8hm8ZZXzJ69SBq7r5j4je8yHAGClG15AVRhSvoS8tu5CDRo5lPEZoWSW+6rv2ocsPrTtwxJciIvqg79qXoTOJ/E7WjSy2FrbJzzSv3MtYR2yZiezlNl7EqurmOMEL/Rs6zxSVlPM7hZCtxDIOhehnxmakUQdOXRiBGtXfKd8rhJaLzZxcVd38x6WMM+PIVPbZDpxLIfiUQ6T1ia/0lshhOtqGnna7/mYmraDrJBZysMRE9skOnNvL+5Cnqpu/fcjikaPUArgwNaCIRc5syK0d2zAn+2gHzvWlPciVXPOqmL5TSC3sub6Ta16VXNuzCVOyax05qrrZ85GxrsFVdfOSiN5fkm5VN/+57Bd7qsSdvms3NIworz+XJFrVzbFhB31DiTvIjPZdXMYj7eYyEf2+JF2LMs6OMdm120hLKiHWnmAMmzDXvHxvK/lKL2K7OUvupoexs5DF+9zqu/amx/RGUctpawq9xK3NtqG7/GYg0pToOxf5Qo/yDgPKXqq8DfjUod38t0COZLMXqb3v+ErTy2GGpZUausG7ejP1XXvgmqfr4BRoYBqd3vvKb0EZOy8qZlbGxiwZgFTZ35n60lAYL50vp4rwOaCEGpwctPDileFcy4WrXSvkfrAkjUUa2HfB5eCQHqgxvLJ52ELmJxbJbk0dxWGUxWRSxlak1sIDfdfuE9Fzm9/Isr8jfXjXMuNcNEsWFTFF37XnAqW7Z/O8pqyMT5Ll0OmmyF2+KfquPe/6W1kD/8+DLFkhth6MCdkIchnwBmz8bWfSyWLgD512aFwVl9MUOrdV1gkW7RumJJQ3k6SFbbZhplZN2Q78Vd04HeHLCYTUEUQavT+1eNZ4uyPCgOplMIlUxj9YPPtlMCkccCmfd4iyHYl+Nn2Qgx1MRLRky8SAUOXlbc8yBn3XWk3puTNoYOORKJad0XfttRj5lEKo8vKlfYExxjsLVd0cYgpdEAEG1w+mvqzqxnn1FOix3Fn4vNgObLnHeSuUHJwxCGdkM139YoEoYIRiOzAR7Zk+aOKIzgWPWtikw31umljftYfuooAxSu7Axvh09s+E75YmgA7Hg5I78M1Az2bPkkMYAtPprrHp4cttE2xSbAe21CDGU0EuLJlKm5adpenh8wIAILDuwFXdYHunbBZPv4E7lnv0Xw0d2GaF8CeLZ53h4pyRM47BCA4CiAIC0Hftw3fEPw4Ty7IILk7sDAYl9tqXQRl7xckGrupm37Mcycmw4hd3JodzugdL85wiwzKedFSJjUv5uC5i/eL4OyN8VXROmtl2qyrBVNbJmSWzMr5p83yMe7cC8oBI6sApQrR4wtiJf47AGmJR2FlbHLTvzUCibBC4jNmudDvU1z7Rsm2kINH9HF7E66p4Jpd7xbZFo7qSZlLG2Uyfl5THon1g3xURomIdg+Xt+8rfMVDgQcw8l2pfxzL2dhDCsYxf+sp/CUsDSb4z9kVIAXylE9D++sXHHUqOZfNmab6WLIqKuIC/qro5WJqIYxnbBAMMho++o9PAVhEUB0FcG3xVN+dCr046dvRPlsi1IED+olhVrrbUUhzL+NtEZbznmqcPqgV3bavlvHU3Ut+1rh1qaPCm10wsuR4j2urnUBam+cW8wsUDqbTvBoWX8eC96MMBastu196NJDL1qRWfkEd/40yuYxmmYcnfayCH+MwllXFu+9Y62acWsWyCg82RxWEBzw32c8qo8zoQxA5EGYdhTPZRDUyU3whE5KcScnuvFO+U431UIcnp6h5bpmSf3EbKbcRKeQ9TKBLJYr1QaQvK2A9zsk9q4AHhdZXNpdJzI2OMxRAf+GpYuWlfGc5lnFj2L0wOGRk5cvRdezbhKPaBTec1fYYo7cicMO/g2ldmpWW8CHFt6qHJs1aeWLELRLzIy9B5kN8Fu9n8fJajg/Y95ytvizzPkEefdZP8OHZeF7mtXSljFE7sCui79m6E/B5k0Khie3md0nfttQjvfyuDMrblzZL2bmQDT+HTTjB5iRjTY+Gn+5fr733JMUfOtu8c4uZIL5fPhXovDhfIL+7AMuLMq82xOSOvLSWP6PYt547CBZSxG147cAw4LFABEItiw8oCsAbQgQFgDDowAIxh14GFbTsVciaH7RoAosBuEQsA8BZ2GhgA8BZ0YAAYgw4MAGPQgQFgDDowAIxBBwaAMejAADAGHRgAxqADA8AYdGAAGIMODABj0IEBYIx1B04d51dFlic32XwT4/3UPHzkWdXNdeXvD33nESKtsXRT3Kg4xmo08FBwLgU49ltxTeTTqm6e+pEyLEvKYCw9x3udX1R1c9Eyr6fiv6wH6akyrurm2PvFfMfHx1v/7X78/fHux99f2f34+6913+l+k+o/WR4fsol3j/KOQz5T+fl+P9s8PJXp9VjvlaKMQss11U627gcmWnQF40d9174Y+34q3bHn1JHH8ZKqHSJ6bZKG7jtJhsd9115Sv3OVd/hO/b3tO47JMPYuIS5Ti31Z2lyZVXXzNRH96iqfazkpct7ou/bOyHdbMo3lOdVO3pU+uNh37WNbgeWEq7q5V9XNi0Fo00LQNUD576UNnIheL5m6SO+3U9XNP33XfjT37PC35hnncp6TU/xzV5L3WPztfJH6WF5T7+lrkDDNT0fftb8R0Vwnl+t2cb1o5Dy1/V0GU5NylG3gR5bybtF37VUiui0yf5RDaBufjUl0hA9nH5xmcTnrGKL7y51VvPfriZ+thr5rz4S0n30PWqaEXMTyrmV8YLt4AoAhSdr7og5c1c0F5e9fiegOEVHftXfGRjx19VIeHUemOrddZdSMvI/ULYGpv21RyyQUVd3E0qw3RvLfEf+/QERbU/The4Fz/WnS/cdXWgqPltR737WXNFtNPt9b2y43gtpNvcCIDXJD6aiTi1gSl/qufWxoy8j23G99134jGu+OTq6xaYy6sCPlrcrykdjmcLoBQmj4R2Pfi2dO5Z9539G8hH1l3UBmbMmjvmt3TRYeq7q5QkT36G15bdRJVTf3iOiKePzSYF/OvdcYYqvugq58dLbtXHqSnLp28VjtkB7a2agMY3JPyPes79rPiCJGpazq5krftfejZJYJqewiwBOX9hLFkaOqm0d0Mlpnx9Ip81S6a+y8U44MIfPjjmt7CaqBReHe6btWa0eVyNQ2EwC+QWB3ABizGl9oAEpkowOLlcNJbLZ0BvtSs7zuxIhnk3F6Vd08kmWa2uZylTFnKuUU0MK0nMqvqpsLocpXrLXMyjDx+2Plv+vzv0rcXlSn6Tmn692Pv3/k4ry9+/H3V3w5dS91EDd4R2cZ1/afrqxMD2fEkCVGOinby4YGHtzxhr/nNKeNZlW3kHS/nftsCuW3T01/q/xOPbc6yLAjffarjcxiv3RWvkF7yFpE+u712PtIeY4+M/Le9+bkn9Gkx3Mrp0raWx5wNm1KV44m6Yx8N5T/FfW7iWefSp8NTiy6tG8rv7sifTdZnmPPV3Xz69j7vKM+PJfRGEu2TGxPBxk8Z+wNpfzutu67vmuPpAb7jfK7jdNJGu6p+Qyb8AqjLp591+5qZKWqbq5LMp4+I0yFUZ9r8R5XpeefKu875PPZSCPdUQb6X9VnNGzJY3lAYascq7q54ugocUF8d3+mnK4PdTX8X5TdkZq2xKAEtvKYUI63pbK/L9rar9Jn32hkOybatIEXOVlUM4fadSOwyW+nClh5TuvZZPC707wNBhLdqR6TxmuDsa92Lx1VGxAN7FKvHHtUUN9jq4GI9J9JHkDy4PZafH9GHtRiIvK9H3KvXVe+gfLZ2mYdK1PpfY+I6OQ8cFU3r4cRXH5o5ATH1WHqpHy/Kz+k/lYtaN1vR/IzdWu8PUw/LCv11GVuyiVPvO+Wm6H8ma/GVCnucgbPnsojPrtORLelvzfks3CX/JWIvlafUetubiptI7spQoYtl1RVliV56H6vvPsLmz3/KVlG6nH47Kr67PAM9oEBYIbcgbEPDEDG6GafsvaGBgaAMdDAADAGGhgAxkADA8AYbVhZF1ycP4jChyNdQlU3/xHRew4/fdB37b5ncYrEtd0Q0c99117zKgxDFk2hFxS+lhw684JOO8YPfdfedZTFtnzf9F171iWvJfna1pvvdkNE3/Vde+AzwQAyyrzqu/acj4ScOnDgl0vSkUO/EzlWWujOtDRPm/wilPGTvmv3fCQUQdZTltSZVQeO+VJEcTpyVTfnieiv0PkMxNBWS8otxIBR1c1lIvrdVSZbYg9ivggaUifFCxGF7cSp3okorOaK1YENOy+LMlbhIvfsKnRVN2dTvow4mXEQIl3faQbM/7uAaS/+Xaz0uOXvio3ckx1YTC+93qvjyLdicckLuVSsqRy+F2h8MKcluJVxbgjF9ffcc3MaOJptaMB7PjRxbhVq0YmD2s4+y4VrGWfIJ3Oyj3bgTF/62yU/zvSdspVrDNMoHDmRq1wmTM0+tYtYnl72i75rD5V0z5KHKfnSc50L0G4FeUp7p+/aWTMh0CqxlzQ9lcPzvmvPh0g7sy0vK8Zk3+rASwSPuaGfa16h83HY9podGHytPJdSxrZ5GNbbTSL60TRN03y8dWDXJfuqbq4R0U8h80vh5hkyT59aOLX2LaGMUyoTNS60k9PAkkrou/ZuwinxKEv3nwPHarJtMAcp8g2dXg6uty4s7TMyi04j+SzAUJUR25NpaTqBBibt4p/JNoUJKGM3fMiuDStryCvbzOfIwCk+Oy3jK92RsvokVH6x0gqRXkyWyu6sgX2dpghJioMAPtIVC1UmOIXSFXnsuf5WSYdlGefEksHYqQPnZN8VitEqs8m2k4zS2f60+KnzQJEruUyjl/IOEe+X8SV76IGDs+axHSgm0mFZxjFwld1FA3/lkpENno6DXfYhS2kIH1ubQW9U+1Z14xSoACxnqEPrDtx37UP/4gTB5vzpH8GkcMRmAAps0kxp3/9ZJPXDUllKx6UeEdSOiPqujaKtLSvI6gB8oE78ga+EXMMKOeTD1l3SBXRgMErftS9TywCmybkDf2H6YFU35wLKwQbPWtib9gXhyLYDqyeZZtgLJMZqgfblQbYd2JKXqQXIBU9a2Hj2A9KSbQcWx6+MsNTWxePhkMChJ1FAYLLtwLTw7CRwBtqXETl34OKI6VziqoW5a9+1OZegA1PU/UDjvV1Ptuwby+etwtfaELGMjZ1LOLteDlh3YC6b3yVUjges7nhyCF9b3CGHlLj0raEDZ+VKyGWQsIGBb7a1q6OvQw6+WNP0eVBQ74g/rBpXTo3Rl6aNMGhEuxuIyOmcbvDGH6GMbXyzs8K1bFxt4GCN0XMle48a4oLtrRIJpv+3IufnnVwCC7iwJLiC3IEfWGbqfTT1naZt1JCAGsLnfcOzODTmm6555RAGqQBsgitslPk70of7trl6vo7DOv8Qo2gGF3zFnjVYDdw+yKCMo7/zGEvLYvE2ko/KENERf1majo6UUQsdozWei5mny8CtSYNbGe/7yHsJDoEViGgmLvSC4OzOlSF+axwdcSC0DSMK+Jzjb/92LJPYmiGpJhJlfNbxt/85lnGwvW4TqrrZ9zkD0d3MsOj+ohBXV2jQ3lEUMD/Te4tu0gIX0KWDUuqFnEhXnhzQgkvuUlytEjJuW8jLzQaeiP9/7ivBFDMFDU8og3eSsXy/J33X7i3NU8nfy+V1EsnKOLfFtjHZtTaw55H5c8qsoXvC2zsR0adLE3DQvntL89Sk6duxw2cZs/Uam2rzo4tYGXWUU0q9S6fvWi9XnFjwZP4RNzIt4ze5eY2ZMleek6vQOVVGyrt0QpJg6hxE+yrp51bGTgtlqTEpx3dNEkltD8gvIryaJh0j5l48h3eikYusIxBlnzmTMn6Qw5aRC6aDoNE+cMoRVem818jAq6mqm5eG6SY5vC6ul/TSeR207zkf+RrmdYYSxYMWZbyfIu+FfGHT37Sr0FNEHFW/UA+Xh7p0OaamSLx1Y7395gtuZZxg9uBUN9YdmIioqptD8rtCuMFYBYS8Nd02fVtycPvMwTblUsaxOvBSmWdt4JFM94Z/e3zRTxOsxm4wFKbPysuh0whso3MEofAyNmFrZrkEJw08RmiNEFoDj+R5k+y8q7xW0BoQB/FtzvImH+xzwWsHDk2KDgxAziCoHQCMQQcGgDGsOrDptBjTZ7AWWHVgIjMvq1iyAJAaVotYAIBN2GlgAMBb0IEBYAw6MACMQQcGgDHowAAwBh0YAMagAwPAGHRgABiDDgwAY9CBAWAMOjAAjEEHBoAx1h3Y03Wivq6WvC79+6KPNHNFLrNQAdfUdGNcAerzvUIGovMhZwj5VqGBq7p5Kv5zLvixxp1B8HJjXO+kHUtL/n9ouJT3WBkLZXNjSbq6z7c6MJeCsqHv2s/Ef7NnhXXvLYKEn1E/k/9vS1U3X1d1c8VUO/lA9x6ueSx5/yUXW+d+3ltXxoLbfdfecUmzqpvjsZsutsLK6gpqSECXsO63pt/rnptKw9e1olPpTL2nRrbraqWYytt37W/in/fl33q4I/gfIvpwLH8feQzpSH/ecG2chnntENHr4W9dG5lpex/1XfsilHwjecohdHfU703eQX1W9/274scX+6597CL0WEdXBRobdXXPyX+bDCRTzMkxl//UO83lpfn+Qt+1z2zkN2GsYfjqrLr8lHyuT33vgde26SnyXazq5h/TenZhqp31XXtERMYd1iT9gWEK/cheZC2XPKQxaifEvjBLU2i7E88+MqiQ234k22SYtmnyd7a5xgg1KITMz1U5hcRXW06+iKV5kSCN3AdiJB0jx0YSYlqb9D1L322w5R2iZaOB8rtHyncXHNLalf+eWb636uzCPjTGoFxuS8/emSvDvmsvZbA4eHXJj9V3EP8ONuhq6uCRpgwH+3bKPNmaHU6ZdVXdvFY+np3NSLbuBSKaGuzHfv9a+vc/U/IN/94IajfRuI76rt2VhHxNtH3PjcYwv0ia6bnpgDGWvvTbS8P0aMqOr+rmKRFd0N3Lo8piOZhtLY6YLGJNpS/y3yo336vHY3nMLYKp+ZuW6VSecppzZTaWn/rcHEo6V/uuvS/nITrhUxs5q7q5QkT3SLQL0SF3JsR40XftR3Kakvzf9F37m/j7ft+1V3X9LFpUyti2U2qqurnSd+39+ScBcO8fUWzgXDvvMKL5ntZWdfOITkbi1TGYPbFMhQxMksWId7CechMF1sBi6f6jYBlkhqiIO33Xel/9BUAHArsDwJjk20gAAHc2OrCJPSHsOyNC20O2acvyiP+ua57x5dQSDMt3fiT929dBhp2xsp/LI4Z97JJ+VTeP1PYRQjYlz+V5HB8fW/23+/H3x4bP/eryO0tZHjn+blQW1zRz/S9QuU+Vn/f8uJdXyLxONbDLiqz0myvK54/6rv1G/mxsH1P9rSaPKzZySek+MnHcqDSO5uJv+azxVtkMaVd1c0/z3enzVd18qEujqpt7ms+0aYx9pvtu7G/LfC4q7/ZUTkfsV14Zym6MqTY1Ur4bdWZYjqOzqIk8jNqUQTkNbef1XB46WSzyuSDnI39/2oGlDma0d1nVzW3plMT9ucJw+a3YfrqvyKd9bvi3chBicgVcpH80kr7sXTQ4iJx68/Rd+5H4/dXh90NDl9J6PHYKpu/aq1OnTGyRHBMuGNTFnM/6MO2+ItL+TP5yqJe+a4+GTj4l08j73VafE//+SPP5VjlKTg8fTrzHWB7O+/NKOkPb2TXIQyvLVPoSO0M+0kBwlUh0YKUDXFUrRTfSTm2VCHe7X5U05Dwmt1nmRvbY9F07NPhfla/UvbtvKCFiYHxmMCCo76FF5/Ukfy6YnEGFoqqbHXGAY5FrqClSWQRtm+psRyCvy9yu6ub1MEBsnQcWXCEireuWyGTrgLH6TN+130x9r/tOzU/JY3fsMMGcLGNM/U757pnQQh/JMooR0TpfU3lsnhfy3BibOivvtjtWt+rvDD53GrSUd73v0BFfV3Vzg07cfO9Lcp0qh6V5KL8f3GbvVXXz9fC9Y1obsqjtXP1sol1iHxiAHJEHXXUAlkEHBiBThL17QV0QlkEHBoAx8MQCgDHQwAAAAEACxnaRsqGqmz0iekhE73lK8lbftTc9pQUkqrq5RkQ/eUruDRFd7rv20FN6ABhR1c1NIvrRU3Kv6KQd/+0pPVAQWVjANq4LEdjpu/a/1ELkSFU3Z8kxbkQA3vRdezZV5jHabG4xbEK/c6z3rermHBH9GyMvA171XXsutRA2ZDZej8HC0IqugKu6+Y/8WbNRyG0gjAWTjiYTdTBbkxLmrHwZtuMnfdfupRZiDIblOcbPfddeSylAcAXseTknB5JaXiEpqGMNfNd37UHIDGK079RKmJvyLbAdf5rTEnaB5SsTdRIfRAFXdXNARN96TzhDUg+OSym8M8kEXZLipqRM4fJeK2rHX/Vd+zClACsqa6LAqxFeFfDKKkYlq1nqFFXd7BPRL6nlSEUoZRah/X/Qd+3LwHmckrvyrermLhH9z5M47Ch1UpYzvst8sQKu6uY8Ef3lR5wiyHaJes0dZwTvDncRyjiKc0lVNy+J6P1Q6S8ZyNCON4mtiFH+RET0hY8TGs4KGIp3lud9155PLQQROowBXhVxhPIOuiwWegvJVWGgHU8T0Ysc9SCxpNydFDAqwIpkx5qqurlMRL+nyJsjPgcwcX79T1/p6Qgx4IbennCRee1LzbaEVsQY//W4lLuVAkbBu4NlIjZ43ULIfR9VJvQ5b0fli3bsRrAVONTJJFYnL4wVcOJCf9B37f7SRFIvm8dQwqnfkTw5o6X2pPes2Fgo4ZBy2sroOaqaC14c3qq6eUhEXy4Xx41AqyQh2skrInpp+ZvzlGlMCdNyn1XAiaIfRfP2TDCxKGpmWnL0ojUp4cyUb8nteI8Cb02oMDlnHcS5MPGJj1lHrUkFHDmIRvJjPDE7PpNOoSX12efIg5i3yWCunsVrVb4ZtONoVj6DyWQs7/59iqyQp8p+VAHHahypO4GOWIMAh6VDmRXXlU8lfI4CWvI5KbycZJFZazvOfLyJHrs5ZljksbLX3icqlp1DK98PcuwIRCeFFWm/9qWHNKJ03Jzriog+CJyNN4XZd+3LXOIer035MmjHX4XMA85Tm/Rde1aU+3eh8xor+7ELvYPu+YqO8DJkHj4QlfMqYBaLliPFMaOQvMp1wJIJrdSI/A9eqZVwZsr3bihZBH8waccPubXjEui79iCSwbV1HHVLAefuLBIbEZh7J1T6C8s75BnfHW7XpHEbvFIp4ZyUryDYGV8x2Q89UfUKt3ZcChFWSLaWuzcUsHBuCQY35TvQd+1/qS0WH7+xgO2dyNzamJD3jxBpV3VzLPacNz4LkRdRfud8ubUFGc6ycyfmWK9awME8SwtpUD+kFiACP3NVvgO5TZbm6Lv2ckCZ/xWnGdam7ILup8aAWzsuicBlfzj8e2wP2CsZdk4n+q4NtlclV4rBsyEH0qQXVPuCY5sLKPOPOSrfwDIlvbLPFxzbcUF8Gijdz4d/nCrggJ3heaB0kxCwQ3w+/0hYCuzswZZ2Q6RLxK8OcpQ3R5kW8iZEojaT/jUSMi6FOGkU3gLO5UYgsD64Od8McFEgXOTkjs/Y5ArJJ/25E7CNHxFFWoIukCepMg7oKBfyuBWwRHT8W6nlGMND6MubnkRReRAoXQC8AwXsQB/oLlZD5bofIu+A6QJH+q69maOV6UmmfQ9pbOHj0hYAYgEFnBd7Bs+cC5HxXNBwkI6clLBHWYLFxAaAC1DADgRcBj709Iw1EaJqgQXkoIQ9yxBkG2dwbgGAA1DAbgQ5L21ihQYMWB4yqhbwQEolHCDvm57TG3gZKF0AvAMFDAAjhCL8IkGevtM89J2mIMsL2gFPxPWFIXhDtKmAQ501KyriSslLXKFDkcYmYNv7OVC6RvRdexjLGs5h6XvtBGzH7KOFRSDI3cHD0bJ31A/ALKFuirLpDEECTFC8S+5ZU0q0sDkiKF9M+hNSSrSwUMRoR1GWoEvpELmEzgsZYAJ1xYMSbi0LOekvpf5LeQ9uBFx6JpJCXG4oYAT/Hkd3l6NHXC55CBYMpIC6KjpUZAnKNwZV3bxMLcMSSm/HuSKUb5ClZ6LNEJdRnbC4DuxC7mDOHS6XPIQKBjLAvK5CkTyueWnKN3B+76Mda0nqw5AzotxDKt+N9r6lgHEZ9CY5D3ioq00i1FXSuOY5t8Wc8+XUjqu6ORuhnlfhw2BLhHbygfrBu7qn+q49E1KYIe2cl0GquvmbiD4JmYen9/+AiP71kI4WUVfPUyufKWIMsKnbaqnKV+IHIvopVOKi/B7kHKpyDe04RyJN0G71XftS/fDM8fF43rFmjjk1itDr/xIf6CrEBRHY/kcfac3wXd+1BxHyMWIt7XMFypeITq/Hi3FDz6chr5qzhVs7DiTvrYBBhrao6uY8Ef0VKbvRd5tUwERxl29SDgSRl6l2+q716tQVceJAROupq9TKaS3Kd6CqmwMi+jZWfmjH9nBVwLHHSMHkWD+rgImS7aF8EfqCgBTvVeJ+V4R32qMEZ5RTK6e1Kd8BEewm1Hn7USK0432KrwC8vxcXBZx679+k3I0UMFH6lxH84OIxXNXNOQq4T2pKrAEvk7pyWmKv6uYaBdwLNORN6sA0a1W+Mpm0Y6fVqqpu7hLR/wLIY0MQ341M6iVnjMcPYwU8gMJ3Iur+BoQyJN0AACAASURBVFHU/bSiyEExQfm+RZy/R3xnSxDTIQ225W6tgInQKWxIPdihsxiThad36L6Vuj26gnZsTHBPb9TFNq79ykkBD6AixsltoENdjZNLXUH5zoN2PM7KtriyYGmZL1LAA6iQt0xViHDC2LdI7rA0x4ScyEkhQfnagXZ8SnR/BZS9v/7kRQEPpPJWzYDRTuCzsTI4SsCBrM6AEp3GLH4/VPqlKV+ZFbdj70cZTVlrmYfoR14VsMwa9onnKiREQw3RCFbQoV71XXsutRA6oHz9sYJ2/CR0DHgTVlDOA8HLO5gClsnkaIkPrJZ7uChgmYI6V1ZRu3RA+YajoHYcPB6CLQWVrUr0MSOKAlZhpJAXWU4cFbAKo5WM7BWuTOhjYmtWvjoYKY3sFK4Ko7IcI5uY4EkU8BiJK/arvmsf+kywBAWsI1VEn4EcygDwJ7UhgHYMslLAJghHrz0yu3zgCRHdTDWjLFUBmyLq6iaZWXo/E9HD3Gf/YH1UdXOZiK7RfDt+Q0R36eT0wmFouQB/2ClgTqxdAQMAABjnndQCAAAAAGsEChgAAABIAJagI+BjKRpLzwAAUBZQwAAAAEACsAQNAAAAJAAKGAAAAEgAFDAAAACQAChgAAAAIAFQwAAAAEACoIABAACABEABAwAAAAmAAgYAAAASAAUMAAAAJAAKGAAAAEgAFDAAAACQAChgAAAAIAFQwAAAAIqkqpuLqWWY4t3QGQxX8eVwnV5VN8c5yDFQ1c11IrqtyiQazaOcZAXmjLX53NrfHHN9N7O+re1L4jv5yrfHRHSR6K3cudZXTuVrylRZ6j6PLUdu+QZXwCAu8qAhGsOzvms/85Xm1DNEdL/v2qsGA/dTIrrQd+2Zqm52iOg1Ee32XXu0RE7wFrnucxvIY8uWYhD23QfXiktbSdnebfM0UsDyCw0zTSK60XftHXsRQUjkBuCxAT72ma88GAmlG3uA3GjDrh02N8UmY1Mfsd8jUBudJdZ7pnq/Esm5HU/lbSqLkQJWCuEOEWkVr+2SjbI0NJv3xG9vKF9rl6Is5Hgs/rtORDsGcqj5f01EF8S/7/dde9VUFhcGi1L8+YyIflMesSoPlb5rL03kPViwREQviOg+nSi34bej+U4tG4rvvdWxjNqGc1hiVfuOSd8gg7aVyyRBaSdEmvokxpP6pX3Qpp7Es0NfI5L6m2karsRYlndtK4OBKMYVHabjknWfUZ+dGlPk795Vv7TN2AdTwuoqfK4RVHVze+y7CR5rFM0dkd7rqTw1g8bp3+IdroQqU5M6mysPg/LUfj+hQIdy09afCT7quKqbR0R0MbXyMUXU5VHftbumA3HItuULE58GkzZKlH4iocNHH7RhrL+JfL426c8j6ST3P1naVmYmcBvjMhG96Lv2I0c5R8vYZszL2gvawKHCZz4Xq7q5MvLIju88C2FyUHHtxCHqmAN9157pu3bX5vmQ8njkUWoB1kLftb8Rse5DMdvKhxHz0pK1AtY1ImmNfWyZYS7NMWX6ERHdG5NhYraYurG/mPrSVLaJchkllAJYWscS6tIVSIBUn9oBT6xUEAnvZIZ46YOZ8OvYF1XdXBj7zhfc20pVN1s6RPpuy2A5c3x8rD50j4jGLMFZNMvF6nq+zFHftbtTDdRwf9CU3+hkf9YbYt9B3v/RfT8l69Y+nssy0EQeV/uuvT8jw1y5fEMTHXMhV/uuva/7Yq6OTctn4QB46sE61IvJj0YmbK8pwWqKpk8av4dt2lPM9XMPimqjL3moL18+LSZ9MNqKn2CXRsblmbr4jIieTiU89R4++qyntnKalk3eEpdopG1Nyafmt6WASyCGowBIC+oYABCCmP4GWS9Bu8BsuScp8nJJVTcXq8yjxgygjteF0k6L20+eWrYEcanq5h+ieP4VbANxmJr4YBJZ4Q5L6LNnfmOBOgZiC0tupywmiaZo3g8kQBproh6FK3IJGgAAAMid4pagAQAAAA5AAQMQCQ/Hqmzzcz7NAPLE5bggyJdRBSyi7FwXRyecqermkW+nGSHb1rEYIe+x+qzPvE2Zy3eIrhVTHtf8QtThGgm1tzSxV6493pUKTd/cMWlXC9vuMUelNVGn0S8sWVL+NnmETD+XPFW0TlhCsOHs2m0R7u6++szc2Tn5BXWu3cLjbOPAtUnA7ZmQkLODnEm+Ju8nfzaVlvLscBHAxm9n4gBvOAYIT9CLdBJo4vZcnnPM5Tfym69JORtseKZOd+5ZfeZIjQg1lLvy7HD70sY57JH62Ti/qGuj6m/Fd1shStU2MCKbUZsybYu673X9S/1+Li0yL2ttOcylpfCiqpt/pPB/r+mkXqyZk1H5/HVVN0S0UTZbZ4Q1ZTXazxa2xw+J6B9d3iN1OlwashVa1eI9iE4cLOVgEItvIDMdwzVtZSvvajtmxEaoSJv3MCkXHQve5/Ril6n+J73HST0eHx9v/Lf78fdPdz/+/lj57Fjz3NZnus93P/7+ke3vdz/+/p+J77S/G/vP5F10+Zq835Q8c3KK3z7SfHbFIF9tmRrkp5bFvd2Pv39tm99MGV6Q0p4rg9FnTNugSdua+O0V5bMPNfX7yCT93Y+/v24rh20d2qajvMvSsr5t0gZMZNfkt7P78fcXLX8zK+NU3Y/kc8G0ny1pjwvqwLQfGr2HkPe2S53N5H+s/HarbxiWp9N7WJTLbJlL6RvpBoM+vyN/9o6imXdIzNyGZYdB0/s016fO8okZgzYM2dLjJ675TuH7SEzkZcMrYxaLy3uJWMbPpLTn0ph65rFBm1t0ZEot675rJ0MKzqRltbxsep5V9EEfe7mLyrrv2hvK36chA9WxQoe80qOx9l73Xbv4+Jsqo8Pvn80/NcnsO5guuy/B8j2cwksajKXy305bL77fYyo9U90wc2Z769Y4zSrJa7l81D3g10MH0f2n2cN5rfxt1LCkZSJt7OWpgXuQQ1dgVd1cmZLBNt+59xsLObagg33mOb1JpkKmGexhT8o5UTav5cF45Jl7lMctRruknNGsPMXDHWuLVd1ckCa918WziydlvstaqsMXilIddTQTS7OzMsVgov1+Ezjr16TEKK8W3JSU6j2k9rvVHxSZLo3JuOS957AtF1PdMGyfaXThPRqPCX5pmKCq/QzngAEAAICFiAnF9Yk94629araRsAAAAIDYDIqWiJ7RyWrGFTq5zObZhDPtZzqHN1jAAAAAQAIQiAMAAABIABQwAAAAkAAsQQMAAAAJgAUMAAAAJAAKGAAAAEhA9seQqrq5S0T/85TcEyK63Hftf57SA4Kqbs4S0UMi+txTkj/3XXvNU1oAGFHVzTk6acefeEryVt+1Nz2lBQojqz1gMYjHvu3ju75rDyLnyZ6qbq4R0U+Rs93B5An4pKqbm0T0Y8w8M4jwBjIhuQKu6uYyEf2eVIi3/NF37eXUQuRKVTcPiejL1HIIvuq79mGKjKu6OU9EfwXO5knftXuB8zCmqps9IvozVPoxlVJVN3+TPwt3KZ/2Xft3aiFsSBU+1IInRHSz79rD1ILMkUwBM6jED/qufZlaiNSIJbl/U8sxRQqLIkb7zclSinCBQNB3DT2B8EFO9T0Fg7F7jB/6rr2bWgiZqAo40RLzUla5h1PVzQERfZtYDFuiLlGvRQmH7rch37Gqm0Py55cQhRzqfArGCniDHMo5mgIuoNJWoYhT7In5JlbHqurmJRG9HzKPHAYJjtYv0wnkBjnUvY4CxvItUpV1cAVcWmXl2imWwnR1YpIYdbUGKzjkO/p+Nw5bJrakrn+V0sZ0hairaMHOAVd1c1hiRc1dPM4R8T5FKV+i07oKvefzQeD0k8KprQtZi1K+RKftGEfy4nAkyvtcjMyCWMCcOu1CWB+LKdFaGCPwPmOxVjAH65eDg5UvcrCGVzS+By9vrwo40vGM3HjVd+251ELYUtXNf0T0Xmo5IhNswhRhUIo+2eOw97smZTCQWgmjzP3hbQlaDOhrU75ERO9za5BC3rUpX6KT5aVQZy6fBEp3oKgtAihfd8QS6UFqOdZEqLbmRQGveEA/hctgwEXOgHwSogxiBM0QS61REBPqbEE7pm9zr6PSEBOflz7TXKyA0RHekntZ5C5fTAKVxU6ANGVi7nMGm1AvtX7Rjk95D2URHa8rnosUMCp/m1zLJFe5UuK7TGLs0cZYehTBK7IE7XgblEl8fJW5swJGpY+TW9nkJk9OBFDCoR1kYgSXCBY5akn5oB2Pg7KJj48yd1LAqOx5cimjXOTImQBl9Ifn9DYIufcnIqFlB9rxPNgTjs/SdmmtgFHJ5qQeNFLnzwmf3tERbtQK6fAYLAypq/WLdmzMexECzwCFJe3TSgGLqwNX7e1sS6rBA4OWNZ+IcJxeiHC7j/f6Fef4swLt2Jr/pRZgjbi2U1sLOJd7e1kR8/iIyA+zYDeKOmvrQLBz/C4TkoBntosGk5Y0uJS7cSSsjCr1D9MlPhE/9afA8hgR+cLxXOrK+Aapqm4eEtGXYcUxw2ddcYgmNZBb2MmM2rHxPbI5XX8YaszJqF6yxKbcjRRwjGvXpvAYMzZp+MVSbueZ4E3ftV6WcRO/h/Ekbw6xGhFsWdBj34DyfYuX8LIZ3DAW5AL6QHXjEkkui4mOBuPxw1QBp+gMwWIsi73sFMvpQTrEQMLZ9xd91x6GSDjV5I+LZUmUf1hHW/kSTpQ/6Lv2ZYiEU71ToLuWQ0SSY9PfTDB9n1kFnOJlIl6oHtQ60cH9Vh4F4yXmpXBvh4HlX6Q4clK+REnq+ru+aw9iZMS9HRPlr4BlUipjk3eaVMCxr/kq8co1HVxmpVOspK683UCUsxWckwJeQzuOvTS9ZgU8kGgF4nnftZMnC+a8oItXvlLez1Plz4znGdRVLLwNkhEGmJuOv8tG+UbmQSr5+q79b6VOmcnou/Zsgvr+ZO6BUQUcMyJODh1VzFS+ipGX7w4RsYN9MTeji0Hkweucx+RueUxLJVgAjVhEbMcf9F27HymvUXIY99aGKPPvYuU316anLOAYHfpNTo2w79qHRPRpajky5dNQjlYuiHbzJkJW//pKKPR+ue0lCiGj2uXUrxV2QjlauRDR32X1VvBA37UHubRPrQKOFTjC15EVn/Rd+zdFsIR9dYhIHesrUS5ZkWP7mSNwx7f1gM8mql2kduxtT98nuSiDtZHD5GfMAg6+95tzoxOWMPaET3guyiNLVnC22gpTWUNea5hp336Qo/IdQDtOQ+q2uug+YFdSv7QJMfY6RaSuJb8PbpXmsOc7B4f2JJOJvDGuNTQihmLIYc93jkzaxepIOfnZUsAROgObPdYIFbM0TOasl90SmA0IH4RMPMBkJ5gjyFwfrupmP1TeObaZHGWaIOj2F+LE60nVRqJbwDnuJc4QxTM6Q6J5CvoggmON18lOrMAPI/ySMO/YBJ2Y+SbCdg9uSxon5CkF7cmiqAqY2UyUiMJ3CHEJgcvvQgd2OAiZfgi4ta8UUdE8H6tS2bH9QYR2/DJk+iHg1o5LIUJUv62TRRsKGJv0egJ3iCxuAJJhPgAEO5pke8wnNSP3G3s7VqWSm5MT83YcjJgxHrgRu81Es4DRGUAMAh9N8n7RReB+EfMmHmvrF4wTuF2wD9rCFXUPPokXNFOC7SXZLgsGnsGycZIriC9CJSyf6Q8cdtLa+g25ooAJP3AlcNvZ2IM/VcAhg2+U0BkC7yXZLgsGm8EydJLbglt7CxxhLEY8d1frN9f7XLOAWzsG9sgWcLSLFwDgSqiz14Edsg5ys34D8yq1ALmD40jTxJr8YAnagtJnpIW9X6hBOOTZ61AOZCGDbmS399t37bnUMjAAx5ESIU9+givgwgZ1wASOgzDT2NZO1u+IhzZQwPiZlFCT+NPJDyzgTDB1xMIRguLh5AS3xDEx2/jiABDFmcRDAdvzIFC6B4bPhXLAehIoXWABJye4hY6JoRywgkYzAsAn7xDFu36wBAIGdU/qEdp37V7K/MFbmCw7ZhniMUI0IwC8MVjANwOlj9koSEmQeNYhLzOQyNqTl2OIR8b8ESLRwGFJgQGDAg5ifWE2ClISMJ71fqB0T8nciSxL67dgFl1bOsF+oHRLItSWIxFhDxgAF2JtF2Sp6GD9xiVgee8FSrckDkIkOmz7QgEDkCmZKrosJwUAhCBglLo9IihgALImN4esTCcFwA2EAk0MFDAA+fM8tQCCYJdGALBGoIAByJy+a8+nloEo+KURAKwOKGAAeJA65jKs3/JA8J10HBJBAQPgQvSBK/WNQ7B+i+QwtQC5EzD0799EbxVwkD2mqm4uh0gXABOqugm1dHsYKN1JEjpkwfpNSFU3oc4BHwZKtySChP4dJtSDAg4VGP0gULoAmBDqztOUFwkEiYo0Bazf5PwUIlHUa3reIQoaseq9QOkmI2Dc7FB3wRoRcJadklAR3pJdmNB3bexVpSDhPEMRcNUDAO9gD9iePwOla6oAQ+0/BpllA//EXIoOGM4zFH+lFgAAU6CAM8FioNsPKAYAMiGtX1aWNVgfMS5dCa6AcYG8XxCJyIxINxYlI4YVHNL6ZWhZJ6Gqm4PUMqyYX0JnEMMCDnWBfHQK3Sc9paqbUE5LKQjeeQqHrYVa2OmLbwOlm/V1l4VzGk9dVsBBr10qhNL3Sf+XWgAGfJVaACKiqm6OQ6bP3EL9PbUADICz2gQhVx7kVcx3pA/3Q2VY1U3KYxsc+NnyecxeJwjcedbQltlavyVR1c3LUGmnDuzCgFArDxvEcsL6MlI+wQhpcfRda7W0HfKy9tCWVSSidJ5UFGT9BrvasKqbEhTM+6kFWCMBj5puEc0LOuZLgfVS1c251DIw51asjAI7FLKOQVC6E2HmhDpquuU8qSrgkEtPwV4qNIXMpo1hbgX/GzDt1BcixLB+b4ZMPyYhl3AjEMyJMLc7pnOiqpvDmPltKODQS0+MvWyDzaYXdIYsnIFyIvSRtxXsm0WzfiVs/R9sYLmEG1sJgA2CRM8bI3YgDnZetrlag6GdgXJ97xmKOfKmo0Tr19b/wRam7TiqEgAnROhfW8aWTgEHvfmEU4dgbLF7gdP7p+g8hZHC+o0Cp3PBaMdpSKWXthRwjBsyGC2xBLXYl3aGCJ2JxYrFGo65lWj9SgTzhhawOBe8Nl+TXKjqJsblKlr/qrEl6NA383xe1c3ZwHksgpOlHpLcy0G0o9DH3EoPUpPU+o0RXpVBO96j8J7bON+tIJTvJ6HzGfOv0irgvmtjKMejCHk4Eamz+pr1B+9UmQ9ewdtRyCA1JhRu/Q4En+Tk2o7FJDL4KRHm0c28I1YcgitfmmjbSW9DyrFDxJLJ16w/VqdacV0lvac5AllY97EmObm1Y6F8Yxgjoa4xZYloB1HOik+17VEFHGuzvqqb41wu0Y7YOX3veUVZQsxl8Krq5nzEiVLSrZII1u9+yPQtiaIkMmrH+xRpJbDv2r0Y+eROVTdnI9f/pFNzLvcB/5XSASHmgE7kf88r5hJi6gmTaCexLl0vPeZ2FtbvQEwlIdpxssmVGG9i3diVVT2nQpR51K3POafmSQUc2WX9vRQzU5FnrAE9ZJmG9iSV+SthXUULMRgy5rYJK7N+B2I6Ch0lbMfRyLSeoyEmW9Hr2WSsN7GAQ0aq2SJWYVV1c5DLUpQPYniSqoi6OoiUT+y6CnoePgOytIpSOAqJ9nUzUj6x23Hy8KkpGMb3hGP8c5OHzhwfz8uXUlH5thhFfNgkIepirCgkrKtXvi3GktqdLWsPyJCw7p/4XgovrR2HeJ8lcooLWA4oowhipu/zrmliqRqRnK9rJYlADamvRIxlUf1MaQJovC/V1R991zpFH8phVSJ35eQBDh6xzynOERGVz6U2+MB1+Rbt2I4cyssXNuVuZAETnYYlzDUy0jCgnKNMA7DH7AwZN+ZXRPRS/Dub2arCFzGiwU2xdut3ION2/JyIBqfRXNvxTqjLQzKulxywKndjBUyEgnclxYCHunIjB+UUuO68L7GGBO3YiTchj8+hTkaxXjGxOoaUw+DEjVRlhrqyJ4cyi2D97oVMPwCrdCJaQuqz6yvljct2hfU54BwGKUbEPBqkA3cGG7KSds1h73cDsZyXpcd2jqykHWeH66THKRAHKtmIWymOBsmIO4ON3OHXTC7tOXQwGobWLxGdnmMtPSToYnJpx2tjSbkviYSFpaFxnmcS4J76rj1PGLxGyWzQChlkhJ31K4Nl1Wkya8dr4dXScndWwGJpCEp4m+dC6WWDGLyghBVyGrRg/c6TU33lBMolCT/4iHtg5QU9BrziTpn0gqvq5tAmsQABAaLcfcmB3AatwH3Ie5CUlIjJSrSQpDmDExbx8VnmXhQwESqFiD7tu/Zv3Rceysbbmb6qbi4T0e8+0uJKhso3qELJ7X19IEJH/phajpSkqtc1j/W+y9ybAiZab8VMVYrHMhlV8C6grvIB1q87aMfxWWmZ/9B37V3fiXq9jlA0ilV53UZSvkSeb2zKUREF5o8c31nEJg9GycqXaJXt+NYK3zkpfdeeCaF8iQLcB9x37fmVNJCvZpTvOd8Z+r55SMh/y2eaOSI6kFNs6giEDJ1a+n3GRHTajv9ILUdoRDu+mVqOtSDKO6gu87oErZLy5qGQmFRKqGWaUA2i0GWlrMMuhu4fK5kIb1BoO3a+FCIEhZbxKTH7jdFtSK4My1+lVFjJA5q48eosER2llsUHTOoK1q9nRDs+R0T/ppbFB0zacRGkKOugFrAKY0VsfUMONwtYpqqbPSL6M3Q+IeAyYMH6DU9VN/tE9EtqOVzIuf4Yj+M6kt5+FtQCVhkaFaMKDHalV86IBsnKksh5wBohpPWLoCtE1HftAREdVHVznjw7MYaCYTvmSDbjelQLWCXTO4a9XOXF2QLWkWnwg1scnVJEQJZg98hiEB8n08n/d2KywIJMy3CMrPbPVZIqYJnEytj7/ZmlKWCZxMr4575rryXKGxREYkXCcvII/JKNAlap6uYhEX0ZKPk3RHQu5DJEyQpYRjhuvaRwCvmPjI8QgUKIsN2StSUG0pCtAh6jqptrRHSZ5pfwnhPRQyI6SHEt4FoU8BhCMV8joj2ar6snRPQw1GF3AFwRinmfTsacuTjqT+hkvDkIKxUoBXYKmAtrV8AAAACm8R4JCwAAAADzQAEDAAAACYACBgAAABIABRyO4i85AAAA4A6csALi2xELDlgAAFAOsIDDUvwVaQAAANyABRyYqm7+pvnzg7PA+gUAgLKAAo6E63I0FC8AAJQJFDAAAACQAOwBAwAAAAmAAgYAAAASAAUMAAAAJAAKGAAAAEgAFDAAAACQAChgAAAAIAFQwAAAAEACoIABAACABEABAwAAAAmAAgYAAAASAAUMAAAAJAAKGAAAAEgAFDAAAACQAChgAAAAIAFQwAAAAEACoIABAACABEABAwAAAAmAAgYAAAASAAUMAAAAJAAKGAAAAEgAFDAAAACQAChgAAAAIAFQwAAAAEACoIABAACABEABAwAAAAmAAgYAAFAcVd0cp5ZhjqAKuKqbi7kUQlU3x7nIMjAmU46yAnNKqdMpeau6uZ7T+ywp31zrK3X+toy1iRR6oKqb6/L/c+Xd1AIAAEAoqrp5SkQXpI+eib/v9117NY1UIAK3iYj6rr0TK0Oh7G8T0Q3TfKGAC2KYZfZde0b+d+R8/yGiD4noRd+1H+Uk51pQyndQQM/6rv0srWTxZVPTrermQt+1z0LkJdJH2/aEa1tJWO5H4v8vTH+APeBy8TLIiGWluWWc09neoHTHlK9EsEEQbJTtJeX/qTmVTRpIo8kWUvlqQBtfhnVbSTnp6bv2ft+1Z/qu/c30N0YWMGZ1PJDrxKNFcVv8f3RJpe/aG0R0QyfHyPNnTJ8Nga/2XNXNcY79QK77vmuPiGhSxpjvobbLmOUX4z0D9cFVYttWqrq5Iv55Y+q5ELiOKViCBnPkYjkBAMAU94ji7vsuxUgBm1gstpZEVTcXieiRSZ4hfq9Jb9hAV/lmbElhxrPvqO/aXRsZllDVzWsi2hn73nXm33ftY4O8HxHRRdv85tqM7zrW/W4i7+tEdDv2HrrmO10ZGDl5xHwHE6q6uU1Eo9sZucjpypI+aGqdT4w5wcebyH4lzm1lZly+NDemuayUuOrIbC3gqUJQGvpvtLnXolOis3kpHw1LGLeJ6NeqbkYdipTnZRl2Yi3tKfLrZImZ99dEdEF8/lHftcYOCUq6XuuYE3ODDxHdruomG8VqgtJO7tOmowr7+ozYB4/opF8MZXhR/LcjZPgs8j63d1zbilj+Hes3Qzk9quomm8nehgKu6uaiicXjk6nZgk6BVXXzIZ00QK03nBi8jBED/Zgcd8T3H06lobFG7oi0te/gEwMrcrI8DH4/ZZ09Ff+UO/0d6Xf/0Mz+40ieXupYWI9GVnwOaCaCo0dlYrQtX1R1c0/882rftfc138/WZ87vurQP2qCxck/HHiHHUzLY86cRSzC1j8/StjKxMjSMS0/pxEB46rpHPzMmWpWf6gU9utwXm+EFqrr5WvnqH/F9FAeHocGLZVZbYg380Z0OBBeI9J6lUv25HIT3VcePKKM2bchV4Ul5Zuac6pyXeU5cITrxEk0tSEBS9cFTpD7HKoCHQtC2Io0pFyYfjASHY0i/aj7ztskuKdi5WerFme91aUdxYErsdDCnCFxn/2wcKXwhlK7RwDMs7Ytz1xz4JrUAIcnI8aeE4CJB20pOKykcFLCOEJblnKWWfIabI657vAawWDbOgMntkYw4mn8ELKWQVYYobSWHMJVcFbBXpw1p6WZrMBuWnjOa4WbFsM8aAPaOOWCDLJb8AAtW01a2FLDjXqcLF0R+92ae0y2phKog3XLeRXKckcXaixkcyRIRqr2sphOuhMUTqqpuRo/4pCZxH3RhbtxNSfLJt0/HuSl0FrA3i2bwshvpv1RPogAAIABJREFUOMMLXtF9L3mTbSypLHU0mOjEV5XnLkoybJ2vk6KujN2mcm/qe4mlS9sv6OQIwlaHsikjl8FNqounc89OsDXB8uhMcl+kE22wmRiIUxwNcR5EhrKfqAObtAc/C+2tQ9K/te1IemZOyVn3JU+Kc1EfnHrGVb6x30mrfLrVPrkuLirfmfRxH0prUVvxyOzydFU3F5S/X899p+4/nzk+3nzPpYOe5tjQaHpy2C6TtKQ0L9CJu31qjvqu3Z14h2d9135m+462ruxLyjg1S+p4YeACI+Q8LNLSBkVIVA9bxzks5LhE0yscxjcKCeV0RfedaKNzZ59/o5Mz5qPYjD0KW/WVoA9uHbmrZgJ7LGA4S7yFkHUs3zs0r5i22oRQ5o8synJpWzFFG9BG1NVoGQnGvr9EJ47Duu+26njLAhaF5LSRrytg8dnWEu7wrPj/lrfwVGX1XfvMJVLJknfTcGnotLp0RX6fSd9rZfIhiPRuMneUMtZaB3PlIn3v3SnKdx1P5OF6ZMfFo/TGWESiBN6XHy1wytntu/bxhMyXTJUvEVHftVc1aR1JbfQGCetnJK9vZtqLa9mO1pcNS/ognUySto7cCbl8O38+7rt2d2zMkvK9pH7Xd+2NmXK2ahNjLGwrNvlMxbffpekxcayMHovvPtJ8t1XHWxYwd1IfJAfhQR0DAEIRM+gLVy9oAAAAwCuxjyYVpYCHjXlYRmYojmIsIkahjteF0kYvBjz2loSYDoLAiKge2MUoYLEseYFwCbYRoryuSP++mMhJyBjU8Sq5IrVLjqFF57iSe79bA1XdPEqxtZXtbUhTTDTY2aumwCm7JLyMBy/NnKxK1DEQyDeRlRiNbu6mNRAYeayJPQaydMKSCuwxnbi9a+/rBXxBHQMAYlDVzU7ftUlCpbJUwAAAAAB3itkDBgAAADgBBQwAAAAkAAoYAAAASAAUMACRiHmbj+5qTcCbHO6vBX4ZPYbk60xUVTeP+q7divW8MM1fSR+YfculP9Xxmrl81YDnvmU0OVtoE2g+pyNKHJHqw3c93yaiC5o+9k9VN1kdcdG1SdMLNVzbX8ojJq5MjJm36eRChND5exs7TPPLcYyOgVYBe4424zVyzdTEoKqb4xwK1ZCdkHLqboZhUi5FErDsL5Cmj+VW14NF7ni71CJyKwsDtGNmrPfA2BGPsSXo4eqoI2FtZsFwx+Lc7UIxl/oAAEZcmH8EgHUxGQmrH7nrVnz2WF0mkWdKyuXJ2mUgTdra+xklntJMNBzTJa2pfE3eT/pMvTtz8h1GyuU0r6pu/iHlsuyxGanu97ZUdfM1ndxfOZrfyO9m684k7eGu0Jlnhu93SBrIdW2NTq6AuyH9Vi2r09+qdw6bzvzVz0fy2KgT8Q4XdXkoye/KQQGG30nfn95dq2tLcpk4lvVoeSnPbd3JOnNd4G9V3ci/d1bIJjJOlY36vUB7J7Cuny1pjyN5X+279r7Y472tPjNTpy7vsZHuEubar3hmdkzTpeXaNkfk0t7RbfA73bi2dVe5Gk1w2CadHT+Oj483/tv9+Pvj3Y+/f6r8vaN55pHutyafTT0r522a1tR/6m9M8jV9P/Gc+tn13Y+/vzgn64QcanpXTPK1LQdJVjXtnbkym2gT12fS/lr+TPfMSH6Pdj/+/rWc51AGhrLqPvtHqfN7Jm3FMo+LyjuYluOOVPevNd//OpXuiIymZX08kuds2Ri0+Z2xepv5nZOMU3Lufvz9PcM61P1+aXu8MPeMRTk4vYdNHdiO4QZ5v1bGAd0zv7q+h025GLYVeZwY2rCu35qktzGea5eglYuDPyOi13MzBxvELGPr4mYxKwi2VBUiX3WGI2ZLzgHjNendJzqdRY4+58htTX5HIj9teYjbW47UWa5IR75JRJf2b7R5kfbWM4LPNDPRjXBxw+9GZpj/KB+pdf4REX0ot/N+4UXiGjkm24F4vxu6chw+67v2vjprF/noHBDnsCnrjRm/aVszeO60XhRr1MVPxEnG4fYhtb7ntrU0OLVHUb/qZSIvKnHLlylL32Pp+CHajM6ivDNnofZduzvSX+RnvtHlO/cetuUi/c5UN7ymkxUL3finS1et13sklds7ysNXNAIEuXlmUCyxiZGvS+MWS3pT6cU8VvKYlCUWiSsmSzljqA135Jklbe4xbS933Vf+frEgfSPUZceRZ4w8Wqu6uS0cDF/7PoqiK2sLuY5N5RED3LP+rW+JPEhbT1hNZdRwhYhGt2tsFaEBW+1R5PNIlN/w7rYGQOz32ELXl5XtH+O2atJfDHEuF1PdYPGc1rCTy03dA74nhNTt+75eMvD6oqqb6ws6X85k46TSO+4ne7LKgUAMFhdEucoDW9Q7S3VIe123pfFCe1PVYOEO7aoXviWpxhSdjILH5PnUhoooq439SKGErSfYKd9jCmkcSCJDbuVS1c2Hfde+EHW/canM1hK0WCLZ+o82HY2IFr6Io6fyZzRzYbLo2KNpW+Tr/H6aJdBZppRejNmsDbnJExOfHvYGaV3IfVLTd+0NaYwYs2S3LKFhTBGDktc4ATMcCcdJHRfpZHsiKJpJh8tYk/w95nCdyC/EuVxM+7bllskubW69bCytnyrgYWY2k/Gw97Q1a7X0atTuK+ssb5lhuWzsOcnbcew9TPM1fr8RWZwH6WEPQyHYQDyy2jFaD1P75ervTNKeeEa7BxQbTWf25Q9xSZeWmECOTjLn+sgUvsra1oN5YiA+Uv4fHKH8tvqntHcYfHvCBxm8x6WR9nRPHcM0f19Y0o6nWFAuNrpha6I59j6ST41uXN9cgp5ZDvqGTo6UnOm79qiqGzXT0X071aW+79pnVd3c1wk9p2j6E3fvRyMvPOlqbpqv6fsJWY51TgcuDUxKT92LD7JMNyY/TdTlII9BGY6l/ZnBM1nc/6uTz7VuNWk/rurmN01aL6T9sBvi+8dE9IJO9t/V/K/SSdSrych1Psta9CNdGUw5sj0eazPi82iW/lgdxlptEHnfoBOL7CKdTMbkQf1IbXO6dFK+h2i/o3WqyqiOaSFldCkXS93wkeWYf4eIruvyx33AAAAAwEKqkbgBU9/hMgYAAADAALH6qlviHo0YWY0ccSKCBQwAAAAYIy0136CT7bpHRFtn242ijkEBAwAAAJZUb8PEfuYauwAKGAAAAEgA9oABAACABEABAwAAAAmAAgYAAAASAAUMAAAAJABOWAAAAAAAAAAAVgFWoAEAAAAAAAAArIJ35x8BrlR1s0dEw3+fB8jiORH9R0SHRHTYd+1hgDwAyAapT50nonNE9EmAbJ6Q6FNE9Hfftf8FyAMAAFijzHHOEdH7AbI5HY8xxwEA+AIu0BZUdXOOiG4S0bdpJVnEKyK623ft3dSCAEBEVNXNNSK6RmEmT7F4QEQ3+659mVoQAABwpaqbm3QyHr+XWJQl3KKTeQ4WLwEAWmAAK1R1c5mIDoj34L+EB0R0DYoD+KKqm7N00qe+TCxKKl7RSZ96mFqQlIjdIvZgF2oe5nVdtNeHWMg/oDBeaRx4TkT7fdf+nVqQtcB8PIjBSyyex2e1BrBQAofEe9cpJj/3XXsttRAgb6q6uUtE/0stBxNeEdH5kifbKlXdvKQCxty+a8+kliFXqrrhPKn4ru/ag9RC+KKqmwPi7bEWkyd91+6lFqJEmI8JufOGiO4S0UMs6tixGgO4qpu/Kcx5wTVT1GQB2FHVzT4R/ZJajsIofhImXCx/TC2HB3bWtHhhAvOJ7q2+a2+mFsIVLD4G4UHftfupheAO83GhBF7RyRGtg9SC5ESRBrBwuXxJ63VjTgXrCQSYBrsJSXhDROdKM7SEB86/qeXwwBdwiT6B+e4+O91V1c0hrdeNORWv+q49l1oIbsAAzprVencWYwBDGWQJJoeMEefhf08tB9jgj75rL6cWwheFTIxW7wnDXP+yMH4L8pwoCRZtJzWFjPNrYhWeD2wNYLHLe5RaDmDMKjoUd5hPZFdHCWdRC5kcrXYizNwzJOt6Y76rvjbe9F17NrUQOVLIGL92PigtUBcrAxhGbzEUtYvFHZyPLwa2Z1ILaYPFn99WYb4rmaXxW9XNf4TjW9yBMSwBA7g4imjfLAxgdJ6i+QF3EscHAVOKhqVyEvdB/5RajoWs5owg8yB4WRm/8Lwpmud9155PLURKMIcvHpbz+GwNYOZuVcCBEtw5cwYeFKuE1fnUQtooywUIG8S9nn+mlsORLIzfqm7OE9FfqeUAUfl0jVfVwABeFWyCamVnAKOjAGI2ac8dLCYBYmaUlaAHSl3QYx7BO3ksikLc/cEyVrUrXMJ4DpzIemc4CwOYuUIF4ViVkvANzpKBEVicFS5h0lSaEcx8hz6p8VtCewb+KW2M0IG2DyjDeUdSAxguQMAQVrtXqYGyAYZkp5BUSjgbWdIEl/HYksz4ZVxmICIljRMq6ANAIrkXzkASAxiGL3AEhvAEUDLAkawN4RLuoy5hcst4fEky4WJcXiAhJYwVKugLQEPy+XxUA5i5+xTIB7hGS8DVGfgg54lXCboj5/Kdg/EENrrxy7isQEZwHi9U0CfAFKnaejQDGB0ABGDVwbIQ3AoEIPmq7BQF6JGsd9t1MC7zqMYvgluBABSx2M94DAERiW0IBzeAq7p5SERfBs0ErJqSVkpNKGE3DGRPttEbC/B4+KLv2sPUQpjAeOIazfjFkS4QAdbXJzEeR0B8oi3CBzOAMUkHkXnSd+1eaiFCU8DkHzAi18WlArwfsvdeYTxpjaYLGJcRYEiu4/Ec6CfAgeDjeBADGK5Axrwhor/Ff2NuceeJ6Cwxj4QaC64KYg4sKFnxRPz/cOKZPTrpW1hMmOdW37U3UwuhUtXNHhH9mVqOBWRZrkSsF9qiGL8FtL2YPKGT+c3YDuZZOhmLMccxg40HyQAMYLCAD/qufRkiYe8GMBo6ERH9QUTXQlXaGFXd7BPRXeI5cfFJthNLF7CgREQni0XXYu+aiTvK7xKOcWS7uMRc52TnuVLVzUsiej+1HA7EMn65Lg745BWdjMcPY2Yq3M3vEozlrGM1qDAfo0EGhJh/eDOAV7oi+oaI9nI/m1HVzU0i+jG1HLHJdcJuw0oVR/YLGGIidkjrmwhnGcSJeT951XftudRCELG+dzmW8cu5nbnCwV2f/VVpLnCZ4zDqN8nnHmIja594jsOh8XoW3osBzFhp2pLNRGUJa1IWXBSEyspcntm5dOlY0c5Q8kmCDubln3xHh/G56uDG78oCXQVzOYzFyvRn9gGyYAD7Q8zfD4ivrluKNztssQHMqGG7kn2HWArziaMJWe5ajbGCBYrkk/3QrMDrIsvrObiXe6oFu6purhHRTynyXkgM4/cuEf0vZB6JybIv+2QFt5H83HfttdRCjMHITmA53xdHtf6msufxG/jQlYsMYEaN2pY/+q69nFqIFBRcpyx2GblP4Kfguhu/lIInX1kuZIjJwL+p5XAldj9hvOAWw/g9pDK927LsuzEoOKZGdvEEBhjNK1kawCor8oBYtLnlbAAzatA2sNopDEmhq95Zn2Vi7II4RREKxQelKqVcFzY466hYZcp4sSD4riXjYGBTfBU7cFWuFOrWnuUxPUZjcZHzlcK9PJ3n9U4GMKPGbMJqV0JNKFBJZGkEF2j8Zn8uKSWFjaEwggMQukwZL8gEn+QXaPxicX8CzuOEhuyMYEblW6QBLMOoLmxwqjdrA7ikwst10pYjhRnCWblDF7bbDsPXgoLG02wXEjm7PIbUUUzbXgzjl2170QDD1wKmfUJHVu7QjMq1eAN4oMCjWQ/6rt23+YGVAcyoEU8Cw9edgoy1LCYGIuT9L6nl8EDWQThyp5CxNdtgOoyDPBEFGKuYtrcYxu8BleGJk9UiLycYe0aoZKOTGY03qzGABwqagxJZGsHGBnAhq6I/9F17N7UQJcBoQBsl9UJIKYo2dTmWAnMjbSDbCQTz/ubNoGE6dscwfveI6M+QeUQgW08MbhSyQ5bFQgijMSdb/RWaghb/jI85GhnAJawQYJLuH8bRQ09J2S4YKYUxEFAlAAW0iyy8K8ZgXL6L4xcwffcoZxqZlo0M+/t7c4R7u8hh7suoDFdrAA8UEjDLaCx8xzAxzsbv8xwGgBLpu/Yh97IVq7wp8uWiELT0XXsGxm8YRJ96klqOBWS9y8p4zPpFXJPmBNMxB8avAWI8fplajhIR48Wb1HK4wr1tg7gID5Kd1HIsxOhmg1kDmHnn+S7XM2klwXhCSUT0pXCNjIbwqGAL8/pmgQhg8lVqOVwRUXSzhfEiw4/iblormOrxWMbvQeg8AvIK43F4hFHwc2o5XGHexkFk+q79j/u4YqLzJg3gJavNGfBBjtfdlIroLK9Sy+FI7B0rrh4Vb7gPipwQO+wfpJbDkffFHbPZwniR4XObBQamxu+biFe5cD339kdu192UjAgoxXG8IOLbxkFCxHyv2IWfuR3gH71JEhechUmAUMYsjWAR3TpGPi9j5BOAVwiuEh8xjnF1RzJyQ0qJWGTgWL7vi7NakzAdb6IFcmK6OEB0Eu30cmoh1oYYL75ILYcLjNs6SIhY+GHZ5mlm4WfUAHZxs8qEL2D8pkMYwRzPy8S62un9SPl4BTsN6RABpVjuBIvI1lnD2N3rvalJrdDh3MabmMYv1+NRT2zvuwT+EFGVv0sthwuM2zxIiGjzXOcgozpyagf48wCyhObnHEK+rx2uO4Whz8lwXYFlahwUhVjU+yG1HA6wudaJa7Ab3bgixjJuOjz2FT5/RczLG8J1HyREHK/7I7UcDrBs8yA9Yg7yaWo5XBBX3G2hNYBTRcZdSi6XfgO2RhPOySgwrcciEXeYsztiwCnomzDAHqSWwxbZCBaxO7iNZVGN39zPp4+B8TgfuLqgc237ID191/5NPBfitfe7j+0As7v8G4ohS9i5CYWarDM9UsBxoCsapq7orIK+CfdSdmeeqro5FuMXt9gdsXd+iRicT9fAcvelZJjOOzm2fZAJjBfit9z/twzgsa3izMFEPUOYRuEONVnn5o44DHQgP7hGImVD37WHTCe3rBYbKI3xy5E3YvcF5AfbKLkAuMB0IX7L/V+3A6zdKs4ZTNTzhekk0itMA0+wDHiwBkQkUlZwvYcS41dYUhi/HAKzqWCRIF84Hr3jdCwFZAv7hfi5a5A4wM7NFuRNgAkSuwUaRFLPHm4uutzOpJ7CNThW7iRcXGATmE2Atpc/t1ILYAk3TxGQGUwX4vflv99RvmS3ysjUzXZtcJus+54gcXN/xqJS5iDafVzEDhy3SW62YGfdCo4eRKui79qbqWUAIAHcdoE3Fn7UHWBurhzsDmKvEUzWeYFFJTY8SS2ADUzjS5wiJrk4GrAQGL92wBsHAJAjHHeBZVQDeD+FEAvYTy0AAAAkYj+1AJbspRZgKX3XvoQB507qsmO4CPM8tQDAGFaeUwz7AsgTthuRqgH8fhIpHMHOIitW6T7IUMmw2lVcMwx3hvZSC+CL1IYcRzIps73UAlhykFoAYAZDz6m91AKAImAV40a+B7uEIFiAB4epBbDBo+HqK51Y3EwtACgWbmfhJxEGHdvV75hkYvwSMRuPccMFCMheagEAfxiOUeeGf8AABlFY8W79XmoBLPkvtQAAcEHch4h76CfIyPglKmwRBoAFoC+ANbI3/AMGMAB69lILkIK+a/9OLQMAnBAr4Dup5ciRzIxfAAAAgIhgAAMwxmFqAQAAPOi79j8Ye5ugPAAAAOQKDGAAwnKYWgAbGAbtAiAbYPSdkHE5IMgfACegL4BVAwMYRIGbYYUzywAAF4Txt9rJZcbGLzu46U0AwLpgOEYdDv9gbQBXdXM2tQzAmJupBUjEYWoBLLmWWgBQLKsxCvuu3SOir1LLERsGxu9hagEswXjMBM6GAAALYDVGyZtbqgHMbYLCLfz2mlllxEGGO8nvpRYAmFHVzc3UMliyqvG679qHtKLgWAyMXyJ+9+p+mVoAYMzN1ALY0HftzdQygCJgO0apBvDNFEIs4NvUAgBQGvCsYMOPqQWwQRiEq2ItwbG4vGPftS9TywCKZZWL/ABwZcMAZrhbBRhQ1Q23ie8fqQVIzGFqAQAoCWEgvkktRwi4GL9cqepmVZ4THKnq5lxqGQCITVU33K7N3Jjbsz4DTERU1c1/qWUAs3Bzkdj3nN4PntMLzSepBQDTVHVzmFoGS4o0/mzou/YsET1ILYdPmBq/3BY4/5daADDLv6kFsIRbHwB5wmqu2HftZflvnQH8cyRZfIEzixlT1c1Bahls6bvW66JK37XsVvAZGlhrg5u73eX5R8qn79p9IvoitRw+YGr8bk2COMDwvP9q4HhkiGMfAHlRwubjlgHcdy2riF5ERFXdHKeWAYzC7Zw2t0BwoeBmYK0GjooHx2veIsriVmo5lsDV+GUMq/P+K+MotQAAxKSqm8vEb/Nxa3OXvQv0QFU37Az30uG4MCGuLwkBu10fjvVXOkwVDxaVJMRuHluDphDjl90CBMeFr9Jhej6bXdsH2fF7agFs0W3ujhnAnwaWJQQ/pRYAvIWj63NIuO6AMQxgVjocFc9eahlyAcZvHjC9AuY9LPTng3B9Znc+m2nbB5nAdGNEe+ZdawD3XcstshcRsa2Y4hAXwnNzfSYKf2fnd4HTD8GXVd3spxYCsB3fXqUWIBdg/GYHx4BkP3E8c1ooHF2fObZ5kAlM5yCjZ96nXKA/CCRLULhWUCkI5fxnajlc8B38SpP+Qcj0A/ILrnlIC9dxre/ac6llyAEYv/khApJxhKPhVRSMx+P91DIAnnBt8zTh8j9qAHO+MJ5xRbFGGL8slXPECR7H4wVERP/CCE4D4/EMV20QkfCggPGbJ9yuqCMi1mMCexiXPUcPNJABjNv8pMv/ZBAszoqPc4VxpKqb88TU+KWIbkHieAHXO1H/Fe7tIBKcxzFctXFq/P6SWg5XOM8BTOB4Rd1AVTfHcIeOC/Px+CC1DIAXVd2cZd7mJ/WXSRRoliukRLwHK06ISIh/pZbDldhuQX3Xcp60/Mk08iU7mI9fLI/Q+ATGLw+Yv+eRiAwPAlK6IQCASlU3h8R3U4vIwHadNYDFCinXHathlRQKIhBCKbCLhDiQUDFwdYUmIvof58lA7lR1c5l5+T7gfITGBzB+2cF2oZ+Ifq/q5mVqIUpFLPhyNgTg+gysEPOPz1PLsYBXJt49Z46PzeZZzCdkRLRKpR4Mzud9Jb5L6RYkroriGC1bZid08LA1gXGWPzB+eSKMyPdTy7GEtdZdKAoYj1/lEIiQUTneWvM1UeKu8fdSy7EU03HQ2AAmYtWIp/iq71rcbbqAQjrJHzmcUSykLN8wd+tODnejaWDtE3Du9Yj6K2KO87zv2vOpheBMIYvT2fRnRv1qlQZwVTd/E9EnqeXwgU2btzWAzxHRvw4yZUcuAwMnSlEKlJnBxkg5zPEA1yzYU0r9r31MFQHiWF4BR4T6GyilP1JiDyeOYI4bBkZ9alUGcEmGL5F9m7cygIn4K3mVnAaJXOG+q6GSY50zUhAmYOJlQGF1vmpXeO56MccxMSWF9c1Pxe0DYIRCjnSdklt/ZtSfVmEAM6oPY1zavLUBTFSeQSRY9QROR0E7vqfkphhkChyUsCOsUNpES7DqsRPGb5kUOB5jYVJBXN/I9gYLHTn2Z0Z9qVgDuKqbh0T0ZWo5QuDa5p0MYCL+Sn+Cn/uuvZZaiJQwGqysyFExqKDsy0REEmUbLX0CGL+M9eDa++UchY7HWR0BSkFprp8DufZnRv2oKANYXGXEOZrzLEvavLMBTFTWeYkRVuM6VHhHySISoimMlIULWQQfi0GJuwsyuU62YgHjdx0UPh4XNeGfQlyH+XtqOUKRc39m1IdY9wfuOsmSJ33X7i1JYJEBPMCocS+hOPehEq59MIClG+5K6obVwoQJVd1cI6KfUssRmpwnWzHgPtFYe/3ZspI5zuIJZW4U7HmzQe79mVH/YWMAi+NUD6ncjaspvGxOejGAiVg1cF980XftYWohbCjxTO8MrHfwq7q5SUQ/ppYjIuwWK7gbQg7AfZK551Puk+VcKdxLSgcbY2Cg0Pg0U7BYtGBkH2TX5kWbvknlb4gY4VN/eTOAiVapIGTeENF+LncMr2Xlc4xSJnmFBk2yIZsz+cKF7oD439vsyg99195NLURKYPyum9KPNRiQzRiwQmNXhc0CPyMDGOSL97mgVwOYCBP2CR4Q0YGPXWNRxvtEdJnWu+AwxvO+a8+nFsI3UCBantCJC9CBj0BMYjd3n9blJWEEDCcYv+AtGI+1PKGTsfjAR2JiwXGfCo1cuwRufRn9BSwhVHv3bgAPVHXzH613pwSkoeiItKUH8QBZUuSCki0wfoHK2r2sQBKy8YiyAQYwcCRo7KVgBjAR/0kDYENxwZSmgDIBMYDRdAJ3PYZ6DAvGYxADzv0YfQRYEmXhPagBPFDqnWsgPZyVwhJw1AAEhOUuQwi497O1jo+xWWEwPBAPdgFXVWAAA1Ni6qwoBvAAOgHwyFe5BBxLyQoje4NwrD7CswyMX2ALFvuBR4o5foK5P5gjhb6KagAPoDOABbC7KicGmHiBJcBY2gTGL1gCYqCABRS3EIk5PxghaVtPYgAT8Z9ggOgUsxoaEky8gA0wlLbhrptQp/mAiT+wodS+i34AFLK4vzqZATzAfbIBgoMdXwewIwymKHWitRTu+gj1midYmAQTFLfjqwIDGAiyurs6uQEsg04CJKzDnycMRHKr79qbCfKdBWeEgUTxE60lwPgFocHCJJBYjVcb5varJovdXh1ZGcADmLSvF9tJXIaT1qD3lrmSYTmBePzQd+3d1ELkDudJGoxfXlR1c56I/kotB0gC+6jOtnAeW4ETLBbbszSABzBpXw1O167kPKjmPCGt6uaQiD5PLQcIS85tMDdyHkvmQD06CMlHAAAgAElEQVTzpqqbl0T0fmo5QFBYGASh4Dy+AmPYtfGsDWCZqm4uE9HvqeUA3ljUWTgMqBwmpjibVhxZnbHhAIexZAwOYwwwAwv+RbLTd+1/qYVIDecxFkzitHmVC2wMYJmqbvaJ6JfUcgBrvKwQVXXzkIi+9CBPcDhNUKGk2LI6lzpfcG7znMYWYAeMYdZ80Hfty9RC5ATncRZs8Krv2nOphfAFSwNYpqqbc0T0b2o5wCjeD8BzGky5TlIRrCV7sLOwEE7jiArXcQW4AU+drGHn+hkbzmPtyin6FpZ3UwuwFLHSdjoZQACtLMAKKHPk6JQJo2uDt2QbaZwjzCdkO6kFAHGRDSx4wGVBlsEuAVjAcyLaW9PCOvsd4DlgEEchqsHLafJa4k4NDOIoFL3ymhJO44cG7PyDDWAQRwELkAtgPuaWxisiutZ37cPUgqSmeANYRbhM/01wJ3Il+cSc02BaogGsAwtNi3hDROfhNREeTmOHBhi/wAhE+l/EKzoZj9HXPMF83OXIz0R0F3OKaVZnAI/BKbBSRLJ08+E0mK7FANaBnQktyReQ1gqncUMDjF+wiKpurhHRT6nlyAzWUWy5wHzsTc0TOtm0+5uIDmHU+gMG8Azi+qWbVG5AoAd04g7BZnLFaTBdswE8hohwepfK3TF+TkQ34WIEAMgd4RV3l8rdAHhCJ3McXA8HADgFBrAHxJnIy0S0T/m4Vj8hokMiOihtxQgGcPkII/kaEe1RPq58b4jogIge4tohAMBaEEbyPuU1Hr+ik/H4EOMxAMAWGMCAHTCAAQAAAAAAAC68k1oAAAAAAAAAAAAgBjCAAQAAAAAAAACsAhjAAAAAAAAAAABWAQxgwJE3qQUAAAAAAAAA8AMGMGBH37VnU8tgyHepBQAAAAAAAAC8BQYw4MpOagFmuNV37UFqIQAAAAAAAABvwTVIgDVV3fxH+dy9TES4+ggAAAAAAIBcgQEMiqCqm8tE9HtCER70XbufMH8AAAAAAADADDCAAQAAAAAAAACsApwBBgAAAAAAAACwCmAAAwAAAAAAAABYBTCAAQAAAAAAAACsAhjAAAAAAAAAAABWAQxgAAAAAAAAAACrAAYwAAAAAAAAAIBVAAMYAAAAAAAAAMAqgAEMAAAAAAAAAGAVwAAGAAAAAAAAALAKYAADAAAAAAAAAFgFMIABAAAAAAAAAKwCGMAAAAAAAAAAAFYBDGAAAAAAAAAAAKsABjAAAAAAAAAAgFUAAxgAAAAAAAAAwCqAAQwAAAAAAAAAYBXAAAYAAAAAAAAAsApgAAMAAAAAAAAAWAUwgAEAAAAAAAAArAIYwAAAAAAAAAAAVgEMYAAAAAAAAAAAqwAGMAAAAAAAAACAVQADGAAAAAAAAADAKoABDAAAAAAAAABgFcAABgAAAAAAAACwCmAAAwAAAAAAAABYBe+mFgAAAAAAAAAAwDRV3bwmoh3x5+O+ay+llIcrZ46Pj1PL4ExVNxeJ6NHwd9+1ZxKKkw1V3ZxWKspET1U314no9vD3XDmhrQGQDpsxDeNfeJaUse3YuyZcy0bRTzf6rr0z8ty9vmuvaj5H/7IAZRAezNG2qepmh4heSx+96Lv2o1TyhEZqA6Nj2hKwAwxApowp2apubhPRdfHnfd2EhiNV3Twlogviz2d9134mPt8Y9F0U21SZYTIDOIA27IZSbnf6rr0hfce+3Kq6uUdEHw7yV3VzXX4vBe+TyNCsTQ8CHsQeV6q6+YeIPpQ+2u279shH2jmijGG3q7q57XuMxhlgADJEDHZjf1+X/n0ljkRRuDDy70fyQ1XdbPxtiLbMZsoZgJxAG3bjuu7fpZRb37VXZRfIvmvv9F17ZuS/G1Np5cZK9SDgQZRxpaqbHWEMDsbvC9GXizV+iU4XDi4R0WMiuhRigdLrDrBYiSR1JU64Jlynk1WSxz7zBKBEptxactqpUN2UaIGryth7DTvBS5hIu1j3IZWpcViM3UfcJshrAm3YDZQbX7joQbA+YowrilccUeG7vkSbcxExT3msfLdlY7rizQCWt6ururkiuePI29gXq7rBwAVAOaiD8YskUoBJpsZhZey+HmN8LsH1tCRQH2WB+gSAL2s76zswNRcZszGX4M0A7rv2jLTV/5nyudVBZrFTMfze+45xVTcfEtHXho8/o5PG531iLxr5FSHLhZnHiSi+MhN1cZFO5BvqZViVub9kNWrinJKOx0T0W9+1913z40ZVN0PbuDj37EDs9iHqw2udiDY3vDvR27b2m8c85PRpSRRFDv14ZhzeJaKn4rlZJSvGz9OzSKV49YjyIaITN9IF6Qzj5RGdnGV/5kE8XT7e2nDJiPY6lNWHM48PBAm6AuyJqQfl4zW++1NVN1/T2zYo64lhPvU41FiRAl/jaa4EHldeK39/aDFfHtqStzIPbZNJjM5FxmzMMUxk9uoCPTZ5EhVhUxnyGb8QE8UPadNtc5aqbuQ/nVdjNAfZs0EM/iZKZjCKb0vlchq0KBAX6WTn6p70WVGTFPFuqzvLpFntVBnqXv5sqSvQDllMqFRy7sdjjI3DohxtxrOvaXP8LGWHSX6nyXFFTMrvTT0jPat+9Jmnie6iNlwylourICMS60Hv/cmgLQ7zqa2xgvnuvfF4yoVY44ow9n4l8406mWG+JJf/Ud+1uwtECm2TEdH8XMTS7pqVGVGgyWyQEas9w+rD6WqMxTUFqi+/cYMM3enEyuSvysePieibOSNDuo/sgpDzqssureN1D7dFJ7/EeRdKc46WyOKdlraPiKt7urxV2aeu8JDL6XWK4xQ592PgF7Ewc4/MJiHP6GTs0xq2Stt9Kia6RS3g5YCmjxkvzPronynHUu6k1oMBMV6sFfPMpyTueJXeydeiGXAgxbjSd+03Lr+T8pVtlh1bm2UNjBrAOEOyiXCBHs7MnU6Cq7o5nisfpQMsXYkJgWz8Wk3KhneR3vFeVTfB3P6EMlTPLj6q6oblZFIJpZ+qry1a3XMdK5R+MVt/ww6mvAhi0v98kVM/Vr01MEb7ZWLS4jTOyLvvUtq3xTmn3PQBS5Q6+23pBNKRKDslpZGJHgyCjaeSmGcOcyrZM+ppVTfOOkfpGzaLCsXfrTtHJuOKNVM2CyUIpuVjnui7/eEaJAfEys/peUTRuLQIVzn5tzlOdmS3AivXcAk5euxoefhE6QyucqemSKU/h/AcGLhjuejymKT2pqQVBCb9GPjjs15/jcziRTaln+/IZ+WAG8JdcOAxl0kqOGWVenCKvmuPNGOF0bEL4IdSxhVhs8iRk4PPmTgAA9gRpSNMBb6RB6wsg5SIlSLtJd4WyGdn4PoF5tgZ/tE7XL2jGCI7ow/6I/t+DPwRwd3Qx6IjeIvsps7OEwiAMRQjeHUxQhJTzLiiHk2Uj2usFRjA4ZEnUkYRYlMgDAr5vi1bI1h2x4SBAEqDRT8GPAhxqwAAAABgyOrnMUYGcFU3qy8oFcU1YsqXXt4pznqlXxiup+9i4lpa1c2Oer7EJW8RiCv4b3JGBC2w/c0/809lyelqqtKXciW3fgwvCwDeInuRPBp9CmTPyvRgCmzKd+1zf4wrCuJsetZ5mf5uygCWt/ujnOl0wPUQ98aEu6qbY5uCFmd+5fsXR88DipV+ebJvlZctatq2xoXyLjvyvXiavI5JOksgzsiZBldQjetflbDtc7+/R9v1aHOWTlYCKXdj5PL+x+YdRBl+qHxm5SK1tL2odWa6WCbcnodd1a8TTGBk959Zd9fY/dhAng13rKk4BNxxmRD7+C0DrNqwL1z7vIT3sVf0B3nx1tiDqaqbC5rnrRe5lo6lguh6KZM+klQPit84LajHLj8Prqum17ftkNIPTOdoan9y3ERLPkfLYVzJEOvzw2ofsRgbN/KyOAO/EWNm7KEzx8fj9Vnp7zoMHm3XJuqXpoGNRrjThNm/Kv6WFdf9vmuvkoISUvwUi+t7dHedvqCTYCtzVw3NlsdI+jJW1xOpEXqJ6D6dBKpQFZPVnchq9Fo6qYMPNel+03ftb/IHI+3xNzpZpZQ72EdjLoa6cjK8BitoNMSRgXWrzkauiviIpKsTxn6rpLOovajloWG0DjRpDVdpGeUtfiP3R5uriLb6sWVEwqD92BZNuzkSsgSbMPiIQG1aFtX2tVOzEUw1dWx0ZUXIaJOavC6QtLBs2QYXteGRNE10zNzdx5N93nXstWFkfNy60k/I8pQ29cZwB+Vr9bOpvu1D9/oum8D9K1g/ia0HpfRUHTTXlp3GmCUodWU6ps3p6a35/EjZ3lA+25r3qWOaBqO5Yo5ztBTjSgjUeb2pLTdh+M9ez6WZ88tsteNKfy3rVdrUPbrf6dr6nakYM5MGsJTwnOILhdHE1kG+rXQ1A+AUVkafks+csvTBaeNwOMsbC10d6AaZMTYatsHgq8PmLrco1wFoJiRTbA0+jvW9tL3c6bv2RqS27RPtYpcJS981wMTRZvzyiXaiaDDxssa2zBKWSUyM2nCA+rjad+19x3GXKLDBYCmXbjJ1j9wCDvnQvbNlk7J/xVgoSqQHiSyvt+M0xgx1ZdM31Pq1eN9T42pBXyLKbI6WcFwJgfHd0mqf9zDP/IfMXPE3ZLT4ndF1VUYGMEfEBHVoaEd0UiDGqy2iM12gE9eyFymDlsTcmQAAhAH9GAAAAACcKHXu8m5qAUIhjF1nV23hBoRAMwAAAAAAAABQCLgGKXMUVwPjM7wAgHxAPwYAAAAAJzTxgIqh2B1g7mjOWgQPPgbWgXp+QzobpJ6ltwqcBrZBPwagXDCW8mas/gBYO2uYu8AAjogmfP0FOomONhXWPnh0QQAEanALFsE9YoN+DACYAWMpAIAFM4GEnYP+5k6xQbByxCJyGlaLAcgU9GMAAAAAlIISYbm43V4dMIABAAAAAAAAAKwCBMECAAAAAAAAALAKYAADAAAAAAAAAFgFMIABAAAAAAAAAKwCGMAAAAAAAAAAAFaB0zVIUhTUVUQK801VN7eJ6PrEI7/RSQTZI4O0jonWc3+dr/cVV9nco7dR78hHuqGp6uYRTV+3Y4rXvivLlXsZgrKR7y8ssS1K+ve3vmu/SSpM5iiRTWW8lp0cGT5Fm6vq5h4RXZE/K7Htc6G0MSjXeYdP1jSXXtO7TmFtACtXgNyu6uZx37XPPMpkKw+Libfm6pT7dDIYHCnPXSei20T0dVU3RJT3e3FDue/sMRH9n727Z7KbyBo4fvzU5jDWB9jBBAqBMjlDlYmXDSDFBDIhENnZmsyO1oS2gh1SHCzEuGrHOS7sUAFe+wPIs/MJ/ARqzfTVSFdvLXWf1v9X5QJ77kh9pVZ3n37TNx6TM8VjqdLd5Z71/3f2fM7bMwss7H0R+VNEgmxoNU2owx6JyA2C325WfXvavKZJml0TkT/NZ07LIr+6egIdabQrvhSR3k5zTDMyaFBVBg1AuwPRGRUAN3uezd9/FxECtA52T6AMeC+o6R27b373uoj8HkNFHZDz4Lcs8s+8pmSCvvxjZhfUn42l8gUGM52K0ZaVZZFr67RblelEFhGRtjqzLPKXInLF1KsHzZ9rRCd5WGIrg2h3IEaDA+AkzX6u/9/qeX5fTE/qmgWw6TGvXe/4dxER6QtyzIjgF3IxveOJVCOzs3uq5k6LMmm4kqTZb66CtSW/71ymEL0lVaPkmYg86it417TEtTONtdsSwHQp0+FyW6pnyr4Hj0M+l3WsG+ZYT6Ycy4wM3ZbqHtdpejy3Qjf5+gupRmf2Hs/67IFU32Ffb/q+c34h1bN0Q3ry6ZjPrilJswMxs2GkunaPlmpcmefwhlxcgydjz9UoH06lGjW5NMvHfNZZHTYgXc7ztYt701Gejr7uTWWR37cb5B3ndjGdc7Y183jjvEuVdaPrszXLR/O963x3Tao897itnWHlz+a/X3pGu44xMl1L3A/7GQumbG9yUf4udKxrcvF8inTM3BxxPCf3Y6n8sud8ztq+pr12r3GsWc/PVFfevm3OzL3MnjbaMp3ofD1rX2FnBYSDRt+6ppzYPbxSFWb1Gp9LhWEzQ5gK5431Ty+lGpl9Yh3brjwnjbyaRuXPbel3qW9ajsvv6+r+dRyzdkcupsnckIu10vasg8HXtOX77bPzvRxfO3sNzZ3G79VTi07nTmsc2+mSpNnvctEAv7QurrG27FlZ5B93HKd3Gqerc7UcS6QKNh5L1Yiy843I/vvys+w2cu5L1bB6aRrJdWVa+3hPIFlfgydyEdi/lItyqQ74a4/KIv/GmiXy0pz/Zct573c19qx7Xk+7q79HnY6d/F8W+ZV6dsmQz/ac00lZYP/cOvYzuZhC2Lx2L8sif7/jWEPyYvPZFrkoe+rGhb129Mu2DpVG+bVzjxrLLXbSMrMOG1KuuszXLu+NXWaeSnVd6/L0ulTX4nwt65y600rr+brDRjncOyNrwrkWzeMt9WWnlnbTEmWdyMD6zGP5aD+HpyLyWf29TDnwm3VeO6/caKSn/o5t53lW5+PGd92XH5aqe17KxTNUl2mXynYRuTo1kGs5/9h2R7P83SlfG/XT3rS6Lssbz+d5vmqW5/VnO9Lk/H4sVaZ3/NxpnNRy7U6luhYvzd/rTniRAW196/603ss9n99Zgz40AK4/1HqD7AKqq+JrHMdlADV4/dSYz5rP2zd5VGExtkCYqieTOP2+Lu+feWDrntTeTNx84KZe06HfYYFrZzcYFpvOPibf2YFTWU0L3PfZ8+83Ja85PtfgTYCsirQt4K6P86gcMK3U+nzr/Wvc48/sBlHjc83KZehnWzcQGXrPk93lGIM/23MPnAbAfeka8tkBeXHss11fi7bn+nZfr3tfZ+iE9Ay9lq7ytct7s+rmKy0NtUU24RkTAO/7zNjPDr2eC5d1g+ozX+Wj+dyNrmNYn9m7ueuYvDuiPlzifuzN48nuJqy99fEQI/N2ndah+abzvjguy8d8h7760en9WKpMXzluGP3s7EnjNbno7O/rOKjPfyk+7X0NUiPztZ7EusDXkt2e7WCYgGvUZlkm09aZrdnDFDQF37cOfr8Z0oPTSNuilr52SwW/YzR60HorQLsAT6zlEGufq1ER9I6Wl0X+rCzyK3ODX3OsOi8c9JVz+xpbphx9MuGze2cy9OVVO9+N+eyahjxvc4Knic/2VZOHLtV/Q4KpIeWbK0vma5f3xjQgF5Gk2UGSZm/Ntbgn1VrMeiSk9RlK0uwL63cWtXQeb1qhrBtdVqxdPvYFv8agcnauFe7H3jKp3B0pf9j5wQU0yt9B+cb67jv3xXVZ3nK+vccZcj7z2Vn3Y+n80jiX07avGfltpqnveJ9JNZtv32dedp2zcf46SJZm8CvSswa4ETn33cR62sC9JM0eu+hVcmxSYF4W+aOkmpo51pdiev09Wfv7TlKOmIK2YtpUXDtHfk7MbuMjXFoXtfa5hlYEfSYc54lUFcQ9iWeHzy1x2kHbMsIYhFDztWknHMjFLsxtJo/S7pmZ8LH5+ZuO0Y+6rla3MeJQoeaJpbWMKAdho/fjvPx10NkU5GDbUlbKL67bvlPbivf7ftec87qI3Epa9qEydfM189nW4LszALYjZ6lGdsdk1j8lvJ2h68wwirnAo5VF/rhu7LfdnJFpmLIJ1qrfd6okza4N7SxJ1tu4RMW1c6RzelnI50rS7NaYzhOHx6nzRTCbs2GUSc92U6NR3bs8Zo2Rxcb5gs3X5Z4dcpOLVxR1LoHokuxu1NlaX9YjN9Zo7zOxRhtWLAtXF3KeWMq+6Y8tn3X1rttBtng/xCp/HcxycFKWa7FSfnHd9n005XjSeKd5l7LaI+CGVDHqG6t8rzcv25vPWqdANyPnMX/ETDXqqPDrG9F7QZL2nfYma0yrHNMbWC/EHz3iZK7HqTnnW3s6wBD1VC4RuTF2ythC39fl/asbHX/u/dQup3mii4+84kE9JXiNa+ryXHXD9qEJQnp1lEVTjmNPp9Fwj5fkrSyfY8qzbabHNnvG7WCrL/hdc4Q46Hzdl6ayyF/aDZaReWfwjqTmHFfF2ozG5bTjwASdJ9bQF/waawVTm70fjfJ38LPd1nZ2WJaHbrX84rrta5b/nMdAQw5kRpIHjxxbz/aB1Qlaf//OjVRFWkaA7chZql1FRymL/OP6izZHPhvReuumOMnFTrB3ZGSB1DZCaPfomulXP4vIF+b8p+b8zUXbzR3LJu+WZ/c4S5WB6+PWr8jYGf3smFI36fyuv6/L+1dWu7zdE5Hb1rEujRAmjQ1k1hpJ8ZFX1mRmKFwVkTdd97LWyJOjN/Byea6yyJ/UxzLHE2nfHMPeZE2SNLteWjsimnxW56fO45jftTeP2rs79VYsXZYvyTzbv4vI9Z5ne2ejH7GmkZVF/plVz/1cdqxHN58ZvByorw7rE3K+rq+nSVPneja74TVm5lNZvf7ouuyW2R8PqGM/FpHfze+oKL/HCDlPrOCJVHmu895a+eEzGdBJaz7f7Gx5OXQm28bvh13+1veldSNFE+z9Keb7J2n2pHmNXZTloVs7vywQN1ytP2u1FR5LVQc8Mff5llyUyY/M74za8d58/gvr9+6XPa9papsCXUfOl4KzCYmRJM1+t29CHa0nFzuf/Znsrgv8rK4Yh/Scm4bIdamCpLbC60rj81+aYx9I1WvxJmlfl+h0t8hGr3bdMPyi49wvpboOs9dRu/6+Lu9fWS3+v2M6XX4Xkd9a0vbYV8+8r7yyFlNYXRE5r9Sb97L2UmY2DF2eq+VY9zryWu+mEXXesgrotuO8lJYKYOtcl+Vrquuknme7rvhby+HSep1UR2V9x8pfnZX52DpsiBDzdbn7irnf9lyTU5ne6dsss9vKmfpVOHbHwhVzjd4kaRblaHCIeWJpdZ4zAdC+Z/x+W+dT41hXTNut7brdkZFB1RbvR61Z/u4pC3rbVi7Kcg3WzC8LxA2PxMwaSy7eYfyzOX79HmA7Rhq9nLAxQPayHPCO8EGvQQIAAAAAYKhk5PrlxihubyBrfmfU65tECIABAAAAAA41lpz0vRP5Z7lY/ztodDlp7PI+ZvYOATAAAAAAwLlmoLrHl2W1eVbXcbqC1tHLZgiAAQAAAACb0PoaJAAAAAAAYkMADAAAAADYBAJgAAAAAMAmEAADAAAAADaBABgAAAAAsAnsAg0AAAAA2ARGgAEAAAAAm0AADAAAAADYBAJgAAAAAMAmEAADAAAAADbhL74TEKskzY5E5EhEPhSRd0XkkwVO81RETkTkuYiclEX+vwXOAQQhSbN35eKZOpJlnqkXIvJKLp6pkwXOAQCqJWl2KFU5XP93qTbOK6nK4+eUxwBcYRfomZI0+05EPpdlCv+5fhKRYyoNaGI6j26KyFd+U9LqqYj8Uhb5A98JAYClmfL4OxH5m+ektHkqVRvn2HdCAOhCADxCkmY3paoIPvCclDl+EpEHZZE/950QIEmzD6V6pkIMdod6IdUzdew7IQAwVeDB7lBPpSqPf/GdEADhIgDewwS8d0Xkr35TsqhfReS7sshf+U4I4memzT0Q3Q2sPq9F5C4BMYCQmQ7IBxLmDDZXXkhVHhMQAzhHANyQpNmx6B6NmuNMqmD42HdCEA/TkfRARN7xnBRffiqL/KbvRPhmRpfUY0nJfqaT69BzMiaL/f6aZVv/9J0Oj34si/w734nYiljK/SXFXuaEigBYNh/07vM1wTCmMEHvv3ynI0CbDYaTNIuisimL/IrvNIRM+X2Oss4j6O1EMLww5eVBKOoNb9mY06HNBsBJmt0VkX/4TocSr0XkiGnS2MdMpzuR7Y70jvX9ljbTMrt4n/pOhwOvyyI/9J2IEJnRnv/4TsdUMXVuJGn2uYj823c6FImy88M3AuDFsRHcRJsKgM3UrBOJe03v0ugxxQ5mUMz2WkQ+3MJrzJI0O5E41hsebOF+jaW8sftDWeR3fSdiriTNfpG491hY2tOyyI98JyIWyssErX6Vat07m93usYkAmOmYi2AUZMPMaN5zoTPJtU9jn+IUSYPorCzyd30nIiTaR/g1j/6azv3nwuwb195j5ts8kZT32v0k1f4+dNpaog6Amea8ijMROeTB2gbT0Pqv73RsQLTT8SKamknj2JKk2f9EbwCmcvRX+5RzRf7OLtLTEAAH57WIfM7ocKQBMIGvFwTCESPw9UZlw7xPLI0izaOGrmm+p9ruI4GvN9F2TC5Fc7mwAZve3yeqAJidDoPA1MCImGmNr0TvyE4somt4RdIwin7K+hBJmr0Svcsh1HQy0REZDJ77gSIp57dgc2+oiCIApjc0SGwkoZzyRm2sopl2G8tmPdpGD5eguZGr5f4pn2IeKzbD66G5bNiwTXTw/J/vBMxlKgWC3/B8kqTZWzMdHYokafbAVFoEv+H5r+mYUK8s8s99p8GFrZdxZmdvrX7wnYA+SZqdmPKY4Dc8p8rzP9DmP1tov6sdAebVK+rQUxo4ptepo2bqZpdYZu9oGUVcguYRnpDvWyzPxoawUVYLzeUDzkU5PVpdAEwjXTWmRQcqSbPnIvKB73RgEtWdS5FM7YyygdBHeUd0sB1IkTwTW8QeKA0EwFGJqp5TFQCbqSaf+E4HZlPdYI9JkmYfisgfvtOB2X4si/w734mYKoZGUsijiUvRfN9CvF8RvSJs674vi/yB70SEQHMZgU7Bdh6OoWINcJJm75qHiOA3Dqdm5AAemQ4lgt84fKu8ofGT7wTMtbW1gOatC1oFt/bXrO0n+I3DP80oPhCjf5g1wh/6TsgcwY8A82qjuIXYCx8782qjU9/pwGJUrkVTHsCLyLbKM833K6T7xLKu6H1UFvlz34nwRXM5gUHUTvsPegTY9IgS/EYshl4kTcwUO4LfuP3brOnW5lPfCZhrK6M+phzRKpjRX7PLKsFv3P5I0ozp0IjVO1p3jA52BJheo81RvYZRA9bQb09II11DRLL5T/R7HN8Tv/MAACAASURBVGiun0N5JnjP+uaoHSmbQ3NZgUnU1H/BjQAnafYhD8wmfRvL+01DZAILgt+NMT2zahpdkTQQo55hYabsavWj7wSInAcFBL/b8g5tW2zAqZYZD0EFwGa9L5vybNdfqSDcM9dU+6gapjs17xTVIoggZQ5l13sstVN2fc8ysjb0xEaZTslD3+kAFqRiU85gAuAkzX4R1vtCmDLjCo0tWP6jZY2O7yDFkf/4TsASNM0maOF1p3Gz10XUswMw2H+Vr6MHeoW+x08QAbDZsOVvvtOBcGibuhkaGlto8Q9Frx/7yHcC5krS7KbvNCzgle8ETFUW+U1f5zZ5gdltsP1b+avEgCH+CLXd4T0ANmsTP/CdDgTpNOTeo1DR2MIeX2nYIdq8NuS173TM9C/fCViA1qUU3kZ/TeMvxryA+f4ZanAAOPRViG9I8BoAR7LjJ5b1B0HwcCb4pbGFfT5QEgQf+k7DXFqmnQ+heZNCX6O/Jrj5yse5ocZXBMHYgOA2gfMWABP8YgSC4AEIfjGCiiBYAnpn60T/8J0Ah7TuWuxl9JfgFyMQBGMTQlre6CUAJvjFBATBexD8YoLgg+CyyO/6TsNc5v3bqmlunPsY/SX4xQQEwdiKIJY3rh4AE/xihj9C6TkKiSlICH4xRfBBsIi85zsBM8Xw/m2twdzqo79m2rvW6wW/CIKxFX/43ihy1QDYNLQIfjHHKUHwBRP8suEV5vgg5EZXWeSvRPmGWJrXz2pex7z26K9p0MU07R3r+8p3YACs5F8+8/pqAbBpYLHbM1zg9T5y/k5Ogl+4EHSjK4INsf6quONOa0C36ugvM3Hg0L9CmCIKrMBbELxKAGy+HFOC4Exou8l5QkcAXAq90aV9Q6xXvhMwVsidIn3WHP2lMxILYMkXtsJLELx4AEyvKJYS4nvF1kIHABYSbCM+gg2x3knS7NB3IkbSWnevvfaXzkgsgXyFrVg9CF5jBDjYBhXUeyfktYtLUbBpERQLvHNF+4ZY//WdgKGSNDvynYapVh793WxHLJYXeHkMuLTqLLRFA2AeXKzgq8CnbTplNqRhLT0WFWqj3myI9cJ3OuZQFFj+x3cCJlpt9Ne84oqNPbGoGF6lBgy02tT/xQJgRqmwok3MMjDTJ7VuSANd3knS7IHvRLQpi1x7h1fwgaXCqdrn1hr9TdLsc4njFVcI3ycmvwFbsMrU/0UCYDOPm1EqrGYjsw3UTJ9EFL4NOBD63ncC5lDwaiGtZc3TFc/17xXPBZDfsBlrtOmvvH3r/hwbCUZcqCvrkz2fORKRQxH568JpicGvZZFH2UtqpqQy1a7fmYg8l/5nSoTRm0HKIr/iOw1ttNczAV/Xd0Xp5jtrXVPteW9Fr6Xa/fxkz2eOzH8pjwcItdzowrOCGc7KIl9sOvRfXB+QzH7JmYg8EJFjs37NCbOO7Kbweinb35I0+7As8qim3ydp9p0Q/Db9KiIPyiI/cXVAM9p50/yhw8lI0uxVoO/hPRClgZqISJJmx2tu1jSC1vJzldHfJM1+WeM8yvwkVRvnxNUBzd4en4sI9Z8lSbNfYu3oBxreWbKedDoCbNaMfevsgDqdich3ZZEfr3lS02v/QAiI1fWQ9qFTSUSqBtZ3ZZGvujmTWc7xQGiA/b0s8uAa/mZzGLUjRyGWVVrLmzWupekk0zo93KUfyyL/bu2Tms7gf6593gC953JAZUlayxME5aMlBracBcCap005cCYiN0NqIG68M+JFBBvliMjmKw8vjawuZhOSY9loMBxisCai/hl5Whb5ke9E1BR3KKxyHZXntbm+L4s8mI3xTOek1vdUzxZqedyk7JlZaw8BjWWsV0vkd5cBsKZM7spPgU5hO2d6rJ/L9hrti/QYrWmjvd1nIvJh6L3b5v3TW5tt8TrEqdDaG8IhNWS11uMrjf7+IiJ/W/o8gXktVXkc5GvRahu9Nyr2PNFUpvgui83SxiNh2n8b5+uBnQTAZkfLLb2e5eu1pzi7oLh3fxLfhdlcmioOB4IaCRtKe/A1wacu1/m5ovxZWXSjj6EUd+osXnZscIZb8J37bTbYFj1Q0DmhpmwOsc1oguIHwpt1RBzPCnQVAKvJ4DOpDHybkjR7JdvY5EdlJS6yqXsU5KjiWFsKhANtJGgPULw3ZLXW4yuN/qq8NhOo7Ihs2lIgHGJ5bNP07IR+LUVUd1S64qyunP0eYPN6ltj9VBb5lRiCXxERE3Ac+E7HClQWEmba+haC34MYgl8RkbLIj03l+avvtCzNVMBBMRXimu+Adc1r8K7gvcRdFr/npnMrdmemjXPkOyEulEV+15THL3ynZWkbyZ8wyiK/afL2gWwgf7dwVlfOCoBNQz3qeeqmUrjpOx2ulUX+P/MQfe87LUtS2kET+y6jX5vnSuO92cusyYq9cynIjiXtjXcz1c0XlaNlK93z2Gd2fBrCFPwlmM0w3/OdjoXFnj/RwrThPzTt+B98p2dNrjps544Ax9xQ/0HDdIi5yiJ/YL7nme+0LOQd01GjguKRmCHOYppJ0cXqXIq2Ugq4Y+nvvhMww398nFTxCNIao78nS5/Do9emPD7xnZAllUX+KvbZOZHnU/SwZjxE2+ZocNJhOzkAVlxpDnFQFvld34lYk+kB/tF3OhaiqaNG5UjMAD/EOsrQxZQhsY4Gv2PW3QYlpFfRTeGpXlU5grTS6G+sm0b+PZblJ0OZ2Tkf+U7HQmLNpxjBCoR/8p2WpbnohJ8zAqyy0uxRj1CFOrqxKLO7WpQVhOfphYOEuLbSkfe21qFUs0aDY5xhEeqmU5o7HVatVzWUix3WGP19tfQ5PDnQ3lE0VVnkz2Od2RdxfsVI1jrhGNsdtXfm1l+TAuBIp2n+tLURqjYRVxBepheOFOTayjlMh9Ir3+nwzZQt0U3BC3F5genAVHutV65fNZSLl6w0+hvbRoSb7uC3RbpBVmz5FTOZdofmZUF9ZtVfU0eAY5um+XWMG13NEWPvUcjT9iMc/T2LtCNlMjMF72vf6XAsyOUF5lprtUr9GmLnxUCvlz5BhKNpL+jg32U2yIpqqmiE+RYzlUX+S4zt+dqcDuPRAXCEo79/j31TnqlMhRnTQxPytP2YRn/PaGy1M2VNVEFwwIHUp74TMNVKm9o8X+Eczq20djWm0bQXJthDgxn4iCkIjinfwiHTJospr9cmdxhPGQGOafT3o62uhRkqtiA4xDVvkY3+Evz2MEFwTGvtQx0FPhG9Zdeim9qYDcw0vsKQ0d9xCH57mCA4mk7JyPIvHDJ5Paa2h4hMb0OPCoBDnkI6wddlkavsAV9bZEFwiGveYhn9JfgdyJQ9MTW6grzvmvPjwg1ZlXUfo7+jEPwOZDolYxkdiyX/YgGm7aF5o8g2k9rQY0eAQ55COsbXTHseR3NDsimkKZtJmn3nOw2uxJRH1mDKoO99p8ORV74TsIfWhu1fF+xY0NhIXmP0N5YZYWcEv+OY0TG1m+fZIsrHWID1dopoTBkFHhwAhxQ0zPQrwe80ET0wIY1+/NN3AlyIKG+sqizyBxJHoyvY6bTKNzh85fqAK60vdm6l0d+/rXCOxdEZOY3ZPG/xjpYVRJGPsazI2m2jR4HHjACHFDRMdaZ8d9AQxDB1IojGekSdSjHkCW9MmaR+iUHga9m1boj1zgLlxKLrixeyxujvzaXPsYbIGrWrW6mjZXGx5GcsK6byYuwmzWMC4CCChjnoFZ3PvENQa2PyXCCN9Rg6lT7lvZLzRVI2BbuWXfmGWM42GQuk3BttpaAkhiVedEY6EElQEEN+xgoiye8iIzdpHhQAa600G6gYHDGNyae+0zFTCI117Z1KT01egBvqy6gkzYKdYaO5k8Hh7vUhlHtjrTH6qzZvWH6gM9Ip9bvlRpKvsQ717Q+RcXXl0BFgjZWmjYrBsbLIj3ynYa4kzbxtEpKk2QNf53YlhjwQElNG/eA7HTP923cCevzoOwETzd69fuz0sFCsNPp7ssI5lnRWFvld34mIidktV3tH/4nvBEAH0/5Q3+kjI+rK3gA4hnWKVAyL0d5jdOLx3N96PLcL2u99kExZpXWqbvDKIle767qDAHbU9LBArLUh0QcrnWcRmmc3hCyCTl7V+RrrMp0+2jvhBxsyAnyydCKWFNHc9uCYHiOtIyoinqYgRzAt6VdmVCxHe2NWwewGrb3ckwNYrRvirDH6G/K0/YFieZVaqN7znYA5IsjfWFEMnfBD33QwJADW+L7AmubgTAXNIyoi3hqGxx7O6Qw7qa9Ccy9s0LMbTC+3ygp+xn4cGjfEWWv093il8yzCvEoNCymL/JXongp97DsB0EV7J7wMfNPB3gDY5xpJF7QHZ4po7iH10TDU/I4+raNnqrBsY1mKK/jR+3ForcdXfB2N5s0IWYqyAuVToTXnb/ijuq03ZDOsvhHgX9wkxQv1r+rRwvSQqhxRWZvy6c9nZvQM61BbASmYBi2idJR96PQuyx9LpGNhq9QnyqeHPmUpyqrUTjVXns/hgWnrvfCdjhl649e+AFjt9Gdez7IuxSMqa0+DPl7xXK4d+k7AlmieqiuBT4MWUT3KPmh6l4jqDrfDlc5zvNJ5nFM+KqmO8qnmmtMOT8oiVzl7yOid+dAZACvf/VnzlFzN1lqz5dqalYPW6c+vGW3w4tB3AiKnsq5I0mzos/hqyXQs5GzFskbr9NCffCdgo7TOLFQ7mAXvvvadgKn6Zj7sGwFW22NkpuRiZSuu2XJNayNoNYrvrWomEFA5Cqxh52FTV2jsuHtn4OiuxrLtcI2TaO7kL4v8pu80bJHmmYWa8zv8KYv82HcaZjje98N9AbDWkSqVPfoR0diYXGWqYJJmWjdlUxmAReTQdwImuus7AUMo7tw53ffDJM1erZQOl9Yc/dXayf+r7wRs3N99J2Ciu74TALW0xlV7O4CHvAZJFUZ/vdO6ZmCNxtDdFc6xhEPfCdgyxVPPNU2707oh1tGeH2u6/rXDFc+lspOf19D5VRa51s1hR+8gD4jojqv2zXxoDYAV7xindq56LBQ31teoHDROR9R8T2Oide2ZCoo3xPpP2z9O2Ck6BGuO/mqlcoZVhFR2mAEzaB0F7hzc6hoBVjlVU/lc9ZjQWI8HnUoB0Lr2TNm0f5UVfMda68E7RQfkcK0TDXlHZKCOfCcAejvMtL4THP4pHgXunOnTFQBrrDyf+k4AKoob64cLHltTIHCOTqWgaNz59a7vBAxlKniN7z38l/2XJM2O/SRjlrVHf7WWx698pwHnNI7G3/WdAKimdf17q5jWAGudth0rjRt1LNko0tjg0ljBR0vpzq+qpv1rfe9hkmZ3rb9qXOt3uPL5NK7//dF3ArDjyHcCJtCY7xEIrevfu2b8XAqAtW6Vztqh4Nz0nYAJvl3w2Bo3pDnynQDAg+99J2CCf4ionWnC2t8ByiLXeG+jxWg8NiqamWhtI8A3F03GMjTekKjRoNGPCj5I6kaBtK23LItc5etxzMZX//SdjgkOfScAmEjjkglgMqUz0VqX9bYFwBp7GTWmeQs0ToN2TumsCir2ACkdBdK4POXAdwIm0Lh3x+qjvx2bhoVOXcfXRqgr2xS/5QVwqi0AVrVmS4TRxoCpa6wvtEvizQWOubSbvhOAaCy5tGARpk6hE2h5hx7OedPDOWdR2vEVPaWzpMhLmCuKDrkYNsFio55AKa0clugdVdfjWhb5c99pQCdmVqxA64ZYivha+6txpBzhOvOdgJHI/5hFY4dc28yfGAJgdTcCQVsiWP1ggWNiu+76TsCG8B7s5dDBMAyd/GG76zsBAHrdbP7DTgCsbbMSEb3bcm/ID74TMBLBKpvKBY3R+fXwHuzlKJ0h5MNd3wlAN62b5gEzPfWdgJEuzXxojgAfrZMObEVZ5Hd9pwGjUaHDKY2dqxaNG2KF7j3fCdCCThgAAbrrOwFzNQNgbWsVta29AILHCKMK2npfj3wnYCqzTlXb9Q6ar9Ff5R0xgBM8B5irLPIT32mYqxkAa5v+eew7AcA+VDRYyLHvBIx05DsBc5RFfuQ7DRHxOfp75PHciJe2ZUNHvhMA+KZ9EyzW/+qg6nUijl+FdOTwWICIqJwWGcPOo3/3nYAYeF77e+Tx3FMw80CHY98JGOnIdwIQBVUb9DUHpFQHwDEMwW+Eto6KLQfAvGIHaMGGi074XvurrSOGPKeAwraotucAYTr2nYCRjuy/qA6AocaJ7wSMdOjwWNpe9UGDC+jGhlgzsPPzaJTHAEJ14jsBIx3afyEAxuIU9o4eOTzWOw6PtYYT3wkAQmU2xGKWxDS+R3/VocMAQKgUtu0P7b8QAAOXHfpOgC80uFRRtf4mFmWRa3tbQhAoWwAAHu1M/T8PgBXuVqtqYyWo8lffCQAGeOU7ARv2qe8EKMPoLwAgGJpHgP/nOwEA4NGJ7wRslZn6xXvoB2L0FxvAjt2AInYA/K63VExz4jsBAODRie8EbFlZ5NrqTF8Y/cUWnPhOAIDh7ABY2261AAD49JPvBISO0V8AiJbamVCap0Cf+E4AAHikahmIwn0mepVFftN3GgL3ke8EKKa2YblRqspjwJHnvhMwleYAGAA2qyxytRVPZNgQqwN5dBaunS7cL0ARAmCshQ0iAESHDbE60TEAAAgSATAAADOwIdZlpmMAAIDgEABjLZ/0fwQA1PrRdwICwugvACBYBMAAoFCMm0ppVhb5d77TEApGf52g01iXI98JADCc5gD4yHcCAADDbCQoYtdjRn8BYCvUdtTZAfCJr0QAAEZj3WlgzK7Hm94QayMdHUDToe8EABiOEWAA0OlD3wnAZRvfEIvRX2zVoe8EABjODoC1vcT70HcCAMCjI98JQKcffCfAB0Z/sWFqp4ICW3QeACt8Yf1ffScA0XrhOwHAAIwAB6os8ru+0+ABo78AABU0T4EGlqJtNoQzSZoRVOnxju8EYK/3fCdgTYz+AgAC9tT+CwEwFqfwdS0nDo/12uGx1nDkOwFADMoifyX6nv+pGP1dAB2SAEKlsG2/M9OZABhrOPKdgJFOHB7rlcNjreFz3wkAYlEW+aHvNKyB0d/FUB5jCZveqR7OaCufXtl/UR0AK+x92KrvfCdgpFcOj3Xi8FhrYCMPBZI02/JOw9rEviGWptHfp/0fCYq2BuYmJWmm7T5p2/MHYfrWdwJGOrH/ojoAFpGbvhOAQVStVTRTF105cXgsoKatU0lb4OFM7BtiKRv9PfGdgJE+8J0ADKKtPD7xnQBgbc3NnpsBsLZGyle+EwDso6xxCD1u+k7ASCe+E+BZrBtife07ASOd+E4AoqRt5tSJ7wQAvjUD4BMfiUC8kjQ79J0GjMPSAhW0vQbuxHcCfIp1Q6yyyI99p2EMOiQBngPMp3Da/yUEwFiatqlBELnrOwGICw2uKDfE0jb6q1KSZnd9pwEAGu76TsBcOwGwxkZKkmYEWGHTtkhe2zKAJWibzrUpjNCr9r3vBLiibfRXsX/4TgC60UGBjdK2P8Gltr32TbBEIuiFQFBOFjgmQTVceuA7AZimLPJY7h2jv0CFDgogfJfq3hgCYFU7DG9JkmYf+k7DBEs0UH9Z4JiLimF9R8S09bzyzsldB74TMJfy0d9ffSdgLF57BofU5X+EJUmzY99pGKss8kvt8LYAWN1GHWy0FKxj3wkYqyzy/y1w2OMFjrm0Y98JQDRiGfV0YqEyZk3aR3+PfSdggmPfCcBldPJjo6J4A09bAHy8diIcUDfCthHaRqoWobTBy8yKAGnseRWddcpitK8ZVD762zoSoMDffCcArdTlJY17/SAcMc1GaQuANfYOEWgFRumoPFM1LUp7t2OnrufVvAIIFzSvGdQ++gu4pO11dMBcJ74TMEHrtP9LAbDS0SqtAVfMTnwnYIIlO39eLHjspZz4TgAuxNTzulWM/mKqJM3UjTbGjH0ysFEaBxzvtv1jDJtg1U58JwA71PWMlkV+d8HDa5xZwTTosJz4TsAEGjt+lsTobxh+8p2ACZgGHZZ/+07ABD/6TgD00vra2bLIn7f9e1cArHGXOHUBV6ySNLvpOw2h0Tpyon3EKjIae141dvwsQvuzpLUM63DXdwKm4B3gmInyGHP803cCXOoKgO+umQhXtDcwIvIv3wmAM5pHrKKhtVMpsqBpLs3PUkyjv5rXpf/HdwKgdjNCzfkeninufOuc7dMaAHcNFyuguYERBcVrsdeYGqTuFWMibIYVCDqVFNPeOUtHBrBD3WaEwExaO986p23HtAZYRFT3UsRCZedJWeRrrG1QuX5CRP7wnYAtU1ymsf73gubO2R98J2AhKtdDJmn2yncatkxxZ5bK/A7/NG/4tm9j530BsNaHRWsvhXpml1o2Tuqg9P2TIqJ6ZD8GWss0rR0+TiluMIvI4psDerNSp+cS2O/EL5WdWYrzO/zTuOGbSM+sy84AWPPDonjERLtXvhMwkcqpySv7r+8EbJHmsqws8hPfaQiEygazEevor2qMAvuhvTMLGCtJM80bp93c98PopkAbWkdM1DIjhFpHf9ec3qF1ZgWjwH5QlimmdfOyWqyjvxat0/QZBfZDa2eW1nwO/771nYCp+jrh+wJgtQ+N1vdVKaZ2hHDNTd80z6wQxfdYI+XB0/e+ExAIzZuXbWH096bvBEyVpFnn2ja4p3XnZ+Om7wRAH+VlTO/Mzr4AWO3CZ4nsfVUh07xAXkTOfCdAE+VBmTZqg6eyyDVPm3JC+7OygdFfzW+8EBF5h1k5q1K787PyfA4PTP2ldVanyID4dW8ArP2dYUmanfhOw0ZoXSAv4qdntPO9ZAqoDco0oeyKguZnZQujvzXNe0AwK2cFsY+EAS0011+DOn2GrAH+1UFafPnE7EyMhSRpprpn0cfOzGWR31z7nC5pv+ehM2XWJ77TMcPXvhPgG6O/qhz5TsAcyjepCZ7ZiFDzSNiR7wRAlyTN3vpOw0yD4tYhAfDNeenw7tR3AmKVpNmHIvKB73TMQM/oNB+Ye49lqC6zyiI/9p2GAGjuPd/S6K/6mW4i8i0d/YtSvRFhBPkbK4ph9llZ5IOWZfYGwPteIqxFDDc0UH/4TsBMRx7PrX2TIO33PkgRlFWb71Ri9FclzTPdRJR3moVK+dRnEd3LrbAyU3dpnn02ytDXIGlvrH/CiJVbEVQMXntGY9gkKIY8EBJTRmmvfI58JyAAjP4qM3TEIGQRdJ4FxbxJRPPUZ/XLrbAe0/7QXHfVPh36wUEBcAyNdWHEyhmz5kh1xSBhvI9X+2jZO6w/c0p9GbX16XaM/sKjT5S/kSEYZko5bxLBJpj8rr79IdL/7l/b0BFgEf2N9RgWdntneonUvhi7Fsj7eGOYlfAtsyvmi6Rs2uToYYPmHvSt37/BIwcB+zfrgZ2IYUp5DPkZCzPlRQz5XWTkbOUxAXAUjVymbU4XUS9REJ05MayvN/6g0TVdLGXS1kcPzW6xam39/o0ZOQhcLI1ZLyLpjIwpP2MhkQW/o2crDw6AI2qsv8NamclieVBC6sz5u+8EOBJL3liVeaWU9uUEIiJPfScgAJp3i2WznEoIS2NmiyWIW1ssnZHCbA70iC34lQll95gRYJF4plR8kqTZse9EaBJThRpSZ46P9xAvJaY8sgZTBml+jdi5ssiPfKfBpwhGf2/6TkMIAlka40REwdwqIuqM3PxsDuxnlq3FFPxOKrtHBcCRTan4iiB4mMgCm/d8J6BFNL21keWVxZiy5yvPyXDlzHcCAsDobzximc3wDkHwMCb4jaIzUuLJv1hAkmZ3JY6ljLZJbeixI8AiIl9POVGgCIJ7xBbQhLhLbWy9tbHlGdciC35FRA59J8AnRn/jEtlsBoLgHpEFv7HlXziUpNkrEfmH73S4NrUNPToALov8eMqJAvYVa4LbRRjIhDyFP5pRYJEo844TprEVU/B7FtKSAk8Y/Y1PTKNo71AetzOdA9EEvxJXvoUjSZq9a8qAv/pOywImD8peeft2fLlo3jX376knDdRZWeTsZCsiSZodish/fafDtbLIr/hOwz6RNlIOCJAqprEVxRozy6bvrxn9VRsAh14m+hRjecz9vsD9XYem6xzi9ZsrSbNfRORvvtOxlDn3bMoU6Kg27rHQSyoiSZp9JxEGvxLm2t+mqEaBjdMkzW76ToRvpmyJLfhl9Fdx8CuM/vaJbjQtSbO3W39vuzUaFptffScA4UjS7NDk82iDX5nZrp8UABsfzTlxqEwFceQ7HT6Y6Zn/9J2OBZyFuPa3Kba1wJZ/mby1OUmafR5pY0u2PmNGez3B2t/9Il5L+YcZFdocswFQVLvf1soi/9x3GhAGM9ssxoEs2+u57frJAXBZ5M8l3t0//7OlBrvVUxTTWhjboe8EjBDyOuU5PjCdS5sJmkwZEttSkVp0o2MTMPobvxhn5YiI/C3WjrkuJiiIbgMgI9Z8ihGSNDuJdLbZJWWRH849xqQ1wLUIX6Tc5iMT7EfJbAD2ie90LOhFWeSqpnxtoGHyNOLRFfXrQoeIca3UGNrv8dbv3xgbKI9/jOn9x01mWVeMM9vOhfw8a3p+Qr6OXUwc9lzi3OCqyw8uZkzOmQItZv1X7CMBf8T4GgFrambMwa9oC36NA98JWNgnsS41MGWF2sBoIEYbdN9jRn/HiXK5l+VbUx4f+k6IS9Za36iDX4k/f6JFkmY3Tf4+lW0Fv86WC84aAa5p6uGZSf3IVaw7PHf4vizyB74TMcUGRuZt72lYo73Plu6Xxl5yl7SXoVu/f1NEuoN7mzMROdS+uZ153+kWgoLg316iKT4IvWw0b+A5lm2URa1c3qO/ODrO3yXetW62T8zDrC4QNjs//uE7HWvSGvyKVBuwaKo4ZvpvkmYiCgPhLQW+RuyzE4ZQG/wKo7+TlEUe687BTe9ItXO/ykB4Q4GviLARYexMZ+tdEfnKb0qC4XT2mZMA4ymRIgAAIABJREFUuCzyX0yBuZVeiToQPhORD0NutG9h/UuHGBrqn4ruqZZj1YFw0CP3plJ6Ltsp72pPtTWIXdM+TZSdn2f5QeLdRKmpDoRFRL4ui/zYb3K6bbFz32ApSkTMkrAjEbkpG+rEGeHM9ZtSnEyBrm2kh7TLT6E0LkyF8Its9yGKZlOPrfVoN7wWkc9D2YQuSbNj2XBPbOjTw9agvI4Lpo7SSvn9n+uFVOXxK98JMRv/HEvc7zjdS0t5vPFnBo4skd9dB8A3ReRfzg6o11MR+W7Nhru59g9ke6NSl2ipGIaiAhGRarbF3TVHhk1H0gPZ1hTnLuqmp7vG2l+IUB4br6Uqj4/XOqEZIXsg8b6ucTBNzzLPCxxY5G08TgNgkU1tFjHGC6lGZI9dNCJNRfC5iHw791gROohtmuaGp3j1+UmqZ+pk7oFMcHNTqudq8w2shl/LIv/cdyJ8U96QU7dvRag2vKxonzOpRmR/cVQefyhVWXxTtjsDqkvQS4SalJeb8G+xGZ3OA2ARMvwEZ1KtKWxi5GkcVRXDGBvcbMmFtle0fSh00I2iabRhKYz+wkZH/yRt5TF12jjB7/rcRDyAGV6XRX641MGXCoAZscLa1FUMY1GRYG0EThXlzx6jvwtQniegkMbymOcEUy2d3/9viYOaudq8bgGriT34FdFZ+UG1v/tOQAgi2Pn5yHcaIvWe7wRgU8hv2Iw12ruLBMAi569bOFvq+IAlhlceDfWp7wRgE56WRf6L70QEQu3UZ2mfdgoHzH4evIoGa/hh65sQYlNWadMvFgCLbGNUDt59HdumV/uYDUaYXYElnTFqWGH0F/uY91K+8J0ORO2F6/efAgH7aK02/aIBsAjTNrGoX9d8DUMomF2BJdFxuYPRX+xVFvmHvtOAeJG/sCGLvO6oy+IBsPHRSufBdpxt+dUsBClYyJaWE+yVpJnqZ4zR3/XQ0Y8lkK+wIV+vGfyKrBQAmy/19RrnwjYQAFI5wrnVph4p8cp3AmZg9Hd9dB7BJfITtuJrH7M51xoBFvPlWLuI2Qj8LnAt4Mjqva8hM6O/at/zyujv+kznETv1wgU6I7EVXoJfkRUDYJHztYu/rnlOxIWArxU9xZjDWwUUsFe+EzADo7+emJ16WfKFOVZdBwl49JHPtseqAbCIiFm3ya6JGI3gt53pKabRhSl+Ivjdxegv5mDJF2ZgJg62wntHz+oBsMj5rnYEwRiDUc49TEFCEIwxfjKzcrDrle8EzMDobwBMpxJBMMZgJg624sB38CsicuXt27feTp6k2XMR+cBbAqDFAethhknS7EMR+cN3OhA8gt8WZvT31Hc6pmKWTFiSNLspIv/ynQ4EL9rgN0kzf0EGghNSHeVlBLhmRoLpsUanssivEPwOZ3rVGC3HPj8S/HZ65TsBM7z2nQDsMkENM3OwT7TBL2B5EVLwK+J5BLiWpNmxiHzlORkIzNSHJUmzQxG5KSJHDpNjeyUix2WRnyx0/Nm0j2RhMTS2Omh/ZkJrXOACM3PQwfs6yKUxAgwR+aEs8ru+E9EURAAswlQh7JrSmEvS7EREPnGfmr3OROQw1FFqKh9Yom9szZGk2f9E7+ZXr8siP/SdCHTT3sEC5zaxtIs2yOa9Z3bHD04wAbAIvaQQkWqaxIdjfiGQzpOnoe6+qrxhDzc20diaSntwwuivHgQE2NLzSn7frLOyyN/1nYh9vK4BbmL94ub9NCH4fS7+g18RkU9CLehNIcSu6xvFOvpBNI+Ms/ZXERP8nPlOB7w421Lwi836OvTgVySwAFikeqcpFcQmfTp2Y54kzX6RwHYRN6OtwTEdC7yWY1uC23QiYH/1nYCpmPqsj2kc/uQ7HVjVrxqCAmCGM9Phfuw7IUMEFwDXqCC2wzwwJ2N+J0mzIxH52yIJmucdE5gHxxRKzLDYhu/HzqbYqiTNXvlOwwyM/iplOnzZIXobPi2L/HPfiQAW9HdtHTxBrQFuw7rgqI1e71sLdbpxLfSRN9YFR431viOEXpbsE3o5g2E050Hst/VnlLwdvcnteN+CHQGulUX+nCnRUfp0RvB703FanAt9VMn01H3vOx1w6gXrfccJ/TntwehvJEwb50ff6YBTv249+EX0DrQGvyIKRoBtgez2i3lm7wynpUdRS+Wn5Xpir09Dfi91qDTnfS3lC4bTvhs5zgX76pe1aS5j0SmK9kbwI8C2ssiPGQ1WTd0agTnM9P3gmWfqB9/pwCSvp6yhB6O/CI+1CeivvtOCSZ6a8viV74QAC/g6pvaGqgC4ZoKoT32nA4PVjfQgN4dakJpNL8oiv0vnkjofsQPwLOz8jCCZDZPYsFCXg7LIj3wnAlhAHfge+06ISyoDYBGRsshPTIP9qe+0YK/3XDbWzO7PWhz5TsBYdC6p8JOpjDS/u9YrRn8ROms0mNfXhe0H9l5ApD6NMfCt/cV3Auaqe9zY1TY4P5RFftd3IjCemd5yJUmzuyLyD7+pgeU1I3/OMPoLFUzj89i8Xi/EV/9t1VNGfBGhFyJytIUOHfUBcK0s8neTNDsUkf/6TsvG/WTebwjlTAfG3STNTkTkE7+p2TxebeSI8tFflihsVP0eWZN/1XbgRGD2Rp5AgL6OdaS3SzQBsIiI2XjgCu8O9oLe0EhZsyxOhEB4bewm6p7m4OHQdwLgVz0DgEB4dWcickhHJCKy6QGrqALgmlkbd4UR4VVs+gHaEgLh1ZyJyIcEvu6ZvKvVGY1v1AiEV/NaqvKYZw8x+LEs8u98JyIEUQbANWtE+F0ReS5UEi6xxnejrED4rrBG2CXW+C5Pc8fNoe8EIDxWIHwsIl/5TEtkmNWGGLwWke82+BaWXlfevt3WO6qpJGY5k2pxvLfdZ80u0P/xdf6RNlGBKrsnIaJHdgXKZy6w7hCDJGl2U0T+5Tsdin1fFvkD34mIRZJm2woy/HshIg+2tp53iqhHgNuY6bo3zfToE2FUeAga6OhU7xotQgfTCK+l6kx65TshG6I1+BVh9BcD1btGi4iwc/Rgm9n5FlF5KiK/iMgxeXe8zY0At0nS7HMR+bfvdATmVxG5GdpDpWy0cRMjwG3MsoNjofFlO5PqmWIq0soY/cWWmQ7/X0TkA89JCclrEfmc96kvixHgWc6kWr55IiInZrABjhAAN5hg+IFsc2T4J6nWCgQV9NoIgPUxwfAD2ebIMOtvAATDBMMPZJudky+k6oQk6AU2jgB4D9Nwvysi33pOylLUNc4JgPUza9TuSrydTCwZAKBCkmbfSVUev+M5KUthw04AlxAAj2R2vv1OdFYWT6VaHK8m4G0iAI6PmXXxneiconom1TN113dCAGAu00F5U3SWx6+lKo/ZxArAXgTAM5lR4psi8rmEVWH8JNXC+BPfCXGJAHgbzH2+KdVzFUpnExtOANgc00l5U8KaNv1UqrL42HdCAOhDALwgExx/KCJH5o+ImyD5qVQL4/8nG1sYTwAMkweORKR+vlw9UyJmswkReU6QCwD7WeXxofnjvDzeUhsHwDoIgKEKATAAAACAqf7PdwIAAAAAAFgDATAAAAAAYBMIgAEAAAAAm0AADAAAAADYBAJgAAAAAMAmEAADAAAAADaBABhYDu+RBQAAAAJCAAxVyiI/8Z2GEU58JwAAAADABQJgYCFlkT/wnQYAAAAAFwiAodFr3wkAAAAAoA8BMDT60HcCBvjBdwIAAAAA7Lry9u1b32kARkvS7H8i8o7vdHQpi/yK7zQAAAAA2MUIMFQqi/xd32nY4yPfCQAAAABwGQEwNAsx0PyxLPLnvhMBAAAA4DKmQEO1JM0OReS/vtNhfM/OzwAAAEC4CIARhQDWBB+URf4/j+cHAAAA0IMAGNFI0uxdETkRkQ9WOuWZiBwx5RkAAADQgQAYAAAAALAJbIIFAAAAANgEAmAAAAAAwCYQAAMAAAAANoEAGAAAAACwCQTAAAAAAIBNIAAGAAAAAGwCATAAAAAAYBMIgAEAAAAAm0AADAAAAADYBAJgAAAAAMAmEAADAAAAADaBABgAAAAAsAkEwAAAAACATSAABgAAAABsAgEwAAAAAGATCIABAAAAAJtAAAwAAAAA2AQCYAAAAADAJhAAAwAAAAA2gQAYAAAAALAJBMAAAAAAgE0gAAYAAAAAbAIBMAAAAABgEwiAAQAAAACbQAAMAAAAANgEAmAAAAAAwCYQAAMAAAAANoEAGAAAAACwCQTAAAAAAIBNIAAGAAAAAGwCATAAAAAAYBMIgAEAAAAAm0AADAAAAADYBAJgAAAAAMAmEAADAAAAADaBABgAAAAAsAkEwAAAAACATSAABgAAAABsAgEwAAAAAGATCIABAAAAAJtAAAwAAAAA2AQCYAAAAADAJhAAAwAAAAA2gQAYAAAAALAJBMAAAAAAgE0gAAYAAAAAbAIBMAAAAABgEwiAAQAAAACbQAAMAAAAANgEAmAAAAAAwCYQAAMAAAAANoEAGAAAAACwCQTAAAAAABC4JM3uJWn2p+90aHfl7du3vtMAAAAAAOiQpNk1EbGD3/fLIn/pKz2a/cV3AuZI0uw8ei+L/IrPtIQiSbPbInKv/jvXpd3YvENeA/ywnz0RuVMW+f09n70hIr/Vf+dZdW/M/ej7fe7PrjnXJkmz62WRP5tzTuH56sU1WAdttE47I78Ev9OpDoABAAC2zEyHvJakmYjI1bLIT1s+84WI3CqL/LO10wdgviTN3jT+6aqXhKwgSbMDEfldRE7LIv94iXMQAAMAACjTmA75TESui8gbEwg/E5FTEbnhJ3UAXDGzOw+sf7rT1tEVkfNgP0mzt0uM6hMAAwFK0uyeiNw2f71fFvkd62dRTvVpTMU7H8VI0ux3qRp2IiLPpvQGdl2zxnV+VBb5N6MTDqyAPDxNzNetLPKXJth93/z/gVQB8YFclJm1lyKiavR3i/UgdFizXDHP9T3rn16OXXqCy9gFGgjT7bb/N8GgdP1dq5YdDe3vdb3j/4cee981s6/zrbHHBtZAHp5mC9etLPIr9TrAsshPyyK/ahrk74vIZ+bnV8oi17hZzqbqQejgoVzZmfpcFvn7jo67aYwAA7oc9Pxdq+ZUHpdTe2K9ZtgO8vA0m71uJtjVFvAOtdn7iiCslv9aBgeiXfdrK4v8SpJmD83/LzI7hxFgIEzP2v6/pedvkc0BhkrS7CBJsz/n9sA3pzU3/v7I+v8p036a18j+e+t1BgJDHp6gWV42/s51C5+KehDbsla5Ytb9XrP+KfZ1vzvKIv9myaUpzkaAzdbwt6Vap/Gk8bOHUu3kdaf1lwHs2LfONbD1Ts42Kuj6XVMATi4ETYXRdezNNJy6elP3ld0IA3l4uj3lCtctcIrqQWzM0uXKFtf99sSRztspTkaAzfb6v0m12+BvSZrdsn72Vqp58Lcbm9wAAFZglcO37HLYlNV22f3FCmm5naTZ2/rP0ufDftyPuHA/gShsat3vvrbIvhhzDldToH9u/P2ho+MCAJbTLKubZTkAAFhJy5KyLaz73dcWWSTGdBUAN6c2M9UZ2AAzDeiRVNv9MyVNH8puAAACYEY77bddbGXd7762yCLtFCdrgMsiv2/eRXdPqptlz1O/KuaVJkOG8M2L3c8XfS+xJs0sLB/q2VLr4kxGvyUjXlS/dpBhrtUN2U3jE6kCnsczjjtmatZLc877Cl/jMIl5Dm6JyBeyuwnCPs1nbxWuNylo5LlnIvJYqvzmrBJI0uy3+v/LIp/1bkwNz7HZUbHeTfJj69/3ld2tzFqc+vejWDNsnrfzKVdTnyNznOtSPbOL1R3mXM7ycMzMdLkvJODnE+3WrAft50lEHpdF/qjzw+OPXZcvzbbUqZg6zuX5fDN1xHkQF+Pa1QXLlWYb9555t/AQdVv5UVnkTjb2M2uR7Xu5SJ22ry0ytp1it1GkWjvdGjc42wTLJOhSokyjdczc9S9kd+H3EhXR0MwkIiLmwou4e6l1PZc9OKag/ln2v2/1hojcMNfl5QprE+pK8JY5p5dAbw2Nl6hvhsl3ze3+Rap8eF2qSkCkeq+liwJ49vMX8nPcpus57Sq797AbirEECtdkt14YfD32PbNW3fFSRD523JOvJu+tzTTa/hRej6OSp3qw2ck/24CO/gO5aE/V0zqdtDM9uy4Ty9OQrVGulEX+LEmzlzK8w8fWbCs/cdA5el1WqvP3tUVGtlPs9N7p+j1egzTOLbOxxL7gsFOSZtdNgRhcwyVJsxsmbX/K/uC36dqcazLRvRg39zDfaYvB72/SHvy2+W3uK5fmCvk5xvLMq79+tjYZGvLMXhORNy3vdIRjJpB4IwS/KkVWD06ZJVe3M2O5BlFYs1xxOKh0w+Ql2iotnI0Ab8zvSZp9M2bKigkQ2xruL2X3PadNzSkzzpkHe9+uak9kt0e0LU2/J2l2deIIR/P4TdfFmp5Ym/vanVCYXsU3HT9+JJenxNhGzWYIjQlm2zpPHks1Nazu0bRdT9LsTVnkq28MEfJzjOWY+/6zTOuVt12LpdwK0Z7ypF5KsY/qslS7GOvBssi/bHTWt7V1mms+a/eSNLvto57DLk/lypcyvr5pay+JVAMHMcwscIoAeOCUypYg8WGSZs9GzLNvNpqHrrcTWb7h3PbA7Avw74ucr9W0H+43Mm16xJOhU5rNCMo16+8xNCablf6zoe+SG7E2pOv3F19zv+fc9+RypdLWifKN+bzd+3qQpNlDDwV6yM8xHDJrvO7JsB7/znxgnrHf7eNEUm4FxdRHzfJk8JIJzWVpJLzVg0sa8JyflxstU78PfHX2ouKrXJmxx07dXmrGLLdMzBLNWvO5WgNg09t9XllTkFcb/SRpdkd2C+nfZUDAZxrutqkjpc6ZXlfb4LSZhelPxAoKTI/lYus9yiJ/v/lgL33OJVnrfmqjZhY4MGvNfaN3e+zabLuiP+2r5Msiv9roib0lprBfQ0jPcYwbUYVkwBKLU6nye++zajbguGoC6vPnPUmzP2N/t+PKdhqaHjoY1ti/JEoB1INBKIv8jojcaXT0HyRp9nNZ5F9OPa5dno15Lqb+XmR8lyuTdMQsD2X/TLVFNOrTMZ0Hk35vqK41wPekWkRc/4FUG3o1M3/fOg0TYNpB5vuhBL/GTsUzNm1mBNzOlIv3xJpRP3vkPdje3wHsHrqodoLcp7Hjpgzt4W6OCKy1HjjA55jyeX3PpNrI6kpZ5FfHPqvm8/brG661dEBiguYoi5ZGKs5tsh7sYjrG7DbOF5QV69Nerpg2yk7bqqUjf7PYBGsae5SrL/iyG6id23F7NHsEzccrOFoCoTU34XKiuTHBnB5ehezvPjb/2KNma9330J9jLOOxVCP9V8oi/3juqyVaZkh43dAtInZHNO+yVmTj9WCnlunflBXrU1+umCDYTjsdKQYB8ARmmspQdgM9uHc1NkexWqYiabFvE69Q2Wne7DTWsdNaPAWfQT/HcMsEvFfKIv9ygZF+uwNn7qZaaNC6HGbDqAe72XUNZYVHmsuVZtpDXjO/JgJgB4aOPgY8amT3uGoKJO2H+tIu0QrYad7MlC/XW/KvvcV/wM8xFCD/ADs2WQ8O0ewcNhutAVPYm2rxii0hAHZF9ZSC5m5zit4/Z4/MqL4HsvtdAGyExuUbwEKoBy+zO8w0dvQjDHQuNRAAo2Y/HKOmR9CAA4DJtHfeAViO3TbjVXqYhLdFXEYADBE531n53MhppT9b/8/0PgAAgPnsjfcIgAFHCIDX20VWAzt4HfN6FXtdypQNgqYW6torA7tHbjP5kJ5IACFZex8B7NhkPYj4Ua6ErSsA3lIDdfamTyNe6hz62trmq4V6p+aZF7afm7jBCwGw7ncZb0pozzFLEIALEzcK0vr2gxhQDyow8rmKrk6iXIkPAfCEreVHvirIfmVS0IV7y+s+9r53LkmzW7J7/d7v+myfsY34GHrWWramH5UXkzRrjtL7viZj1jKed5QoefVWyM9xaOnBdoSyftnueJ3yvlR21/UkwnowVmM6fmPZrItyxb2pg45Tf+9x1w9aA+CyyO01B5KkWfAv4B5aaLaNajZHMQf8vn0j9u6s1lK4L30t5zaGB713zgS/duDyaOjob8fI8tjrMmaKdsjsTocx+fC6XK7op1T8LoOnwRVkWeR2Z8mtIbMNfPLwHPex07OlBl/fLrHsIruuUGZD2LOXDsbM0kjS7E3Lv01pbMXQEeXr+fFdDzbta8useo3mLhlqDi4Mbe+2fG7QMxHZjKQQypWgOJgBN6hzpOU8k35vX1yybw2wHdhdD3SUxg7UhzZIL2VKEbmWpNnPLf++wzTSd36/uXlUB3v06PpSjee2UdGx52p579yl+26Oaf/7s4HXodZ2DyRJs7d9v5ik2UHX54Y+mIFNYd0ZNU/S7G1fMGgqGPu+nlo/G3y/5+aXlp73sQW8nWferPWOwyHPeodVnuMhyiK30zLo2dGo+SyURd7X4djsvA26Y2WqGXl47nkv5fkxz/xSZa+ZvWQ3dO4NabOYRn5bHhnV3nFR9/qol8Y+XwvyVg9axzrXfDVk42dey5gJ9WSznr7W92yYn186T1tQ1/j5gbS0xcdeo1DaaL7LlUDdG9PJ0THo2JePrktLh+KE39vbedQZALcENLeSNFujkTqm9+5L6/8P+gq9lotnF7pfmEK39fuZTN/8/Y/bPttkRo/sXsPr5lzOHvIkze5J+6jo9b5M08IeXbpljv9FkmZ/moa2nfm/LIt80HVI0uxGs6FeFvmVxmfedgTdBybganZA2L/fWziZaz74AVmaKWDvNP75TZJmvzULDnMN/pTLlb6dj6+b57Sv8TArv5hnre1ZfTi0cW4aW3Y586fJY6MqyzE95CZtdk/i4AbfGs/xSM2d232mxTkTVIwtu5retAUnms3JwzPP+6e0r+0b9MwvXfY2ZpWIVG2Wt20BepJmt01d1FzCYwdRrb/bcqzZda+PesnR8+WEr3rQHO+WTJveaqdz6TLmqvX/fw4NQPYEYq3t+STNrpk8a+d7e1bgwZ5nqtlGtuvKwdcowDaal3LFtTFB6wC/Dyzzr0l7GbMvH/0mu8+jff/H/J6URb53U94rb9/uHzjwPLLwrC+4Mg/rlB6498sif9nysA31zdje0hlpneKOhD8lq74Hl0bWB7paFvmpCcYmPdzNALyL/RwM/Z0xTOUxulCs02IaYXOCn7n55YkonIo75V66eI5d5aGp+caVru+xUL3xcXP0pePcU8sTlYbkpYXux0uZscZtiXJUZPJ3Pa/PHVyr2XVv37VZ6H6+37eMyQQx58G+63sYQD0oYtoV+z6gtIx5X6p7N+aZfVIW+WfJ5dH2XmWRX3GRTwNqo/kuV5wacV13nvmZPpZp+WjK89b7HPe+BslcJF/rQr7s+0BZ5FdlfPq+qQt6M6ozZvquSNUQG93rbtJ6v/eD810138vXdKYhPrbuwemEAus8c5tOkil59Gr/R9ZhZlwMGkk3ntnXzEyJnXq/Z+WXssivmJ623uAkJFMryRWf414m34wtv1xZs174ZkjwK3I+muTrmqxqqSByyHnNyMjUPLBY2WuuyZiyaKc+n3lNXdS9Puql8zaRT57rQZEqL/TmaYVlzJ2yyF+aZ3bos/GoHkEzZe/g+1LfEwflU0htNJ/lSkgm5XtTZ4zJR6dWPjod8XsiA4JfkQEjwDUzlP27rDeCOWqEdcRIbueFMUPo+0axHo1c69ppoZGbJ80hf3PfBm8qsYJLabQN6G36rGvK64g8sDcNHcdetHexca7mBmO2U7E6D1p+90Cq+z3kOZ2bXy49D457C5fi/TkOaRbBRKemI6ArLa56u0+lGpkaHWiNfBa0GZWHHd6POy0bwu0rr5pGl71z9MwOut9cS9/43TGzw1zUvYOvja/na+kR4Ma51qoHRUTq4HBsGjWUMZdG9nva83uvRcsSDNuXbeunB7Stm0Jvo61Vriyld7ZHre2ZHzki25qfevJR52yvnnbOqLhxcACsjSk864f72ch1ggdSZe7rY3/XtebDElEvErAZPMcAAECTNTu91vYX3wlYypQpytbvnkq1pjG09yHzig9AP55jAAAQOnukO7SYaJbeNcDwzp4iEFXmAzaE5xgAAGgSbduFADh8du9LyJtaAejGcwwAADSx2y6d78fWiAA4YEma7SwQ97kWGcA0PMcAAEATs3fJuRB2ineJADhQZiMu+0XTNJrhRJJmN5I0+63txfRJmj00u+zBAZ5jIF6Upbrtu3/Alpm2i71bdXQz16LdBVozM2JkN5qj2nkN/rS8WqLzRe3kuXl4joF4UZbqtu/+AVvW9gqyGMuwaHeB1qitwWwE8zJwqNcckXgoEfbs+cRzDGwCZalu3D/Asufd26Pfka0BAfCKGtNs6oXlN2T/C8KvDn1JPTDAHdmd1tL5wna04zkGIJSl2nH/ALk8Y6Xh49jW/taYAr2inkzW9LIs8ih7XeCX2djgnojcKYv8fuNnf5r//ZiArR3PMQARylLt9t0/YCvMXgW3Gv98WhZ51LPWCIBXNLDh/Lgs8i8XTwyASXiOAQBALKx2zUvZSKcdU6D9eWL99xmvRgFU4jkGAABqxbjJVR9GgAEAAAAAm8B7gAEAAAAAm0AADAAAAADYBAJgAAAAAMAmEAADAAAAADaBABgAAAAAsAkEwAAAAACATSAABgAAAABsAgEwAAAAAGATCIABANFI0uxakma3fKdjKUma3U7S7MB3OgC0i70MAmLwl7G/kKTZ7yJyXUSkLPIrzlMUuSTNrovIzyJybc/HvimL/NGAY/0mIjdEtnEvXH7fJM0eishOBaXhGiZp9tbFcVx/1zpdGq4hoveniEiSZjfKIv/Sd2JcStLsjYgciMg9EeFZ28MEIA87fvxxWeTPHJ7LW/mXpNkNqb7nTpuCstirqMqgUNsdrmypLb2l79rUwqawAAAgAElEQVRndAAsJvgVqSqYIYHakszNlLLIP/OZjj5Jml0TUygO8NAEaJ+VRf5kwWRtjumA+N13OgC4Z8rZ2vXODwZkZB3GyO8Adkd9h9+TNLtfFvmdtdK0BKtDBAtK0uyeXAz87H1ONZZBwBaNCoBbpnQ8FBGvAbCYnoyQJWl2W6oe+9qpVKO8jxufuyYiv8lFT+5vSZo9Kov8m3VSugl28PulVPdCk74GW53PVDfsgCnKIn+ZpNkjEblRFvn7vtMz0Jg67KpUHan3F0qLeqadUgcelzqRrRGQ2yYI1lYHiMj596yD3ydCnljSdRn4nCotg/rQ7kB0xo4A19OJ7ojJ8EmaHWitQNbQEvy+Xxb5y7bPmn9/3/xePeXkVpJmQhDs3FWN+bYs8r2NHNNT3fs5IFYxl5WmzLrqOx2Bq9spj9pmUJVF/pk1cvpQqo5Qjc7bFaHPgNua2Mog2h2I0eBNsOxNN0wmr0cvmU7awVwzu5K60hX8Npm5+XWAdotNT9zSGPwCAIbpCULqoPeLNdKyEHv0FwAwwphdoOtA91RExFrYv28zp617U//PlMXmZZHbPf1D1w8DALBpPZ3GdbvF2UZYAAA9xkyBriuMj5s/SNLs9lpTH8y6l0u9tvVGIg2P923SZdbc3jbHO5CqMnzs4rs0NkKYMx3mfRE5cLFj5ZLfd64kzb6Qalfmep3NY6nWSQcxUrvEtTPHfCiB7MhnpuvfMH+eiMiTpfKGy3O5OpZVttR58ImI3Jnz7DXy9d7jjfnsgPPek+q7nEpPPrU+eyDVtNEg1nE17sfse7HnPNelerZvSHUNnkh1HR7v/cXdY1yT6t59IVVd+UQ66h+XddjAtC2Rr2fdG2t2VJ3v6nTdd7Dx4zOp1mz+LCJdU4Pt5VzerJXHe84rLs49pT5bu3xsfO9TqdoZd9raGY3n8XrHv4vI/CnoC90P+xk7lapM897Wa7LK3+ty0bYaVf62HGtyWd44Xt3muy57yvSBx3J2P5bIL3vO5bTta67pLbmIKR9JxzO4tCtv3/bvbm6vY7ULNfs1AwMLu8GvCujaqrtlTe0+d9puknltQFtjw3baGIEdZY3XRQ3dztzV93Vx/1o+94VUDZXedE3Zvn3M9v1tx1zq2rWly0U+mfI6jiTN/pT+mRx710wPPa+Lc7k+1sDjtJYljeOcX4O+3cYbZdrgz7acs34mnpi1jft2v93ZUK/ns3t3yHVZFrR8h74y3lVe7Ct7RBrXrOUYQ3b333mt3Zw6bEwZ6CJfu7435phDyuTe523gOS6lx1r/O6uObztf1z1xcR1H5psnbUHZEmWd/Xdb81r4KB+tY5w/Nx0u5YU5bQfH9aGT+2FpzRtzTGx3DCl/B5UDc8vyZrlqOoVv7znW3je0LHU/HJfpq8QN1vH6duZva+tf+i7WtRxcR1i/s1MXD50CXRe6OydrVOprTYV+JlWvbf2ndqflz6XekCTNfpbdm3pfqo2prkjVW1xn6oMkzd6awneK+ve8TrFa8ftOSdtD2S20npk0fSbVGq2XdbrWSpNtqWvX+D7PzHFWX8eVpFl9betn90uzTv2K+Y72bI83yYx16C7P1XIskep5/0yq2Rb2Ovs3pnIccpyXUlVsdZrs8uWeaTj3MmVh3WC7b9J1p/GZt+a/14d+dsB530hV7ryU6vn5UnbLn1vmmWt+9hvZzc8i1Q65Qxvbzpj02TuKXroeMjMvmvP8Lrtlz2OprtdnslvP3eq676YDuA5+T6V6t2ydd67KxbV/aIKX2qw6bMB3Wypfz743jbx8X6pAr07XN3Kx78W9pH1EfKj6Hp5/tyTNrpnzH4hcWmK0mrXyeOOci+QJc+xR9dna5aP5eR383m/UO3VA1NbOsJ/Dlx3/3nyGB1npfjyT9nrghgmkvGmUv4/te2K+fx1b3DOfHXoskQllecvxbot1T6Rqn9h5+jcTIPZycT+WzC8d53Pa9jVptz/zSC7a+nekKveHtvXrZ3FQ+6Ru84jsxqwiA0aA7R7ujt77Oqr3NYI45ph2D2pfz/75hZkyMmf9/pdTp18MOEffyIrT7+vy/iW7Iyd7846Vtif7jjnEiJ7ZRa6dXHyHRd7xPPIenRfMZZFfWtpgfa53NkPfeZc4l9E54pTsviOzbURl0DOeWDNd9qW/2RBs+5wpjOvXyb2UqkIb8tmuEZ36OTuV6ru2Xo9G2r4x36d1R3oPZUH983rq6k4vrfU5+z7MyYv2s/24vNjPovk5e1ThZdl4pYl1nT4uu6dtts6eGpPexmd760WX+drlvUmsUZWedNV1Q+u5hmo8//WzJrLnns8419ARYCd53D6nDBhBWrCsG1yfeSof6+8ztI3RmjeGtkebx1vjGW0c71SqJXND6k5nbZAZ7fB99feBXHRgdc3mdFWWN2cItJbpjTQNub9O7sdCZfpacYNdDu8bhbevbV2udN33+rydb9Vp+eyl/DFkBHhn86sWdaGjYZfiQTdV5NIUnMm9KUsFvwOt/n1HOO/x6us4sdK25kvll7p2N6Qq9L3u3JlcjK6c7gtIRUTsnye7I1mrn8s6Vr2reud0S5OvuirXneP0pOmRXPSwXk8GjMx0fU+Tl+o0XRvx2b7e5gOpKtCu62E/Yw/NZ7sqjvPPTrnfM1yXqsJrDXrMv9vTgafOOuptMJnzPZaLmQmXGkN1b3hX8Gs+Y6d38Wu5YL52cW/q77+37DP58uqc4Nccx87z16R6lq66Dn5HWiuPn1u4rJtUn61VPtbfp6+NISvuCr7w/egMtlrON2eGxRx1+ft+T/19KhffvWu0z0lZ3tC5ltak6Tx4NgHnPrPvx9JtlRbO2r6m/OoNfs2xTq3jDS33+mYHnMcMbfljSABcJ761h9HOwPZQc2gaw+BDN6WqHxgNwf0ORd936IviP5OV0rXwtXu5r9BfUd1gGHr960bZlGmxLs9VH2vQtLOyyOspls1rXh9n0P1t9EL2vfqt75h2g27MZ/fa1whtfv8Rn+2r4J1q6+1t/Ny+76PT1ni2ewMh0xDqDJoGNvzrjoY1XrmzWL52cG92ApueY80qI5M0+6JlOt2zPaNNN8yfxeuYpfN4iyXLuin12arlY9/1Np9Zc6BiyfsxpF70thGWVf6e9o3ciVzqQNwZAHFdlreds+Pndrr7nk8X92PJ/LJjgbavHbwPPd4d6a8jhg687h3A3RsANy7Gvl6T+iav2lgaqU7b4F5l+zuvPBLiQrDf1z72kELQfG7NEdMlr92cHcGdSKy1K0MbL+XEnYFdnqtxrDkb5NjHGTPKVN+7vYVz3zHtPD/msw6MeYbqz4b8mrspM0KmPNtzO6zqe7joDJal8/VIbd+1fq6vJR3r8l1IdtcE3peLGQ039nTS/yYivwXSOWmblWdWyBOj67OAy8fFrVD3DAn2fe58Xpe/U9pBzXaVj7K8VtePe5/PuffDQ5nuuu1bn39we23gNTtvywwceG0dwO0bAR50MRq9NKG/WH5qT9+k7xXA9Vj1+448dmiNjSbn127lQL7LmlPJXZ7L1bEGbV7RNHdKJoLidMQnSbNbSZr9llQbgtR/fjOV81qdCEHna3Oeusz/2Vyjn5OBm8kMkVSbydTlxNWyyOvXa9SzT24NmLYYk0XzRCD12SBJml1P0uxe4zl9Y/6+1gBH0M/oWkaOuNd5rKtd5XOZ4dJ85RfXbd8l7tHegdchA7id7wFu9DwM6a2pNyz4WUS8vs90nwkFdr0Ye2rj+7Z4fEA9fN8hpu6Qfb4J1hoCvXYunF/DlmmCIZ/L1b0P/f5gYS4a7s0NUVqsVlYZwefrssivNjZZ+UJEvkjSrP7IM6k2jhw9smcC23rd6E4bpCzyl0mafSzVlLiHSZqd1o3wNaY9exR8nlhasv/1UQdy8Q75NWz+foi4bXdo6oSZwEt+cd327ZlBPElZ5PcT86aKJM1utQT9dWDcOcLeGQCLNXd7bGZN0uwgwKlEa6t3e6TAcyfk6Zgq9W2qoPVcwJIawW/fDrN97yDdFDNj7L7I+Qyp23JRT14XkT9NgDr2NUV1j3/XBlPPkjSrd0D/OUmzeqfXOjiKuSG9Scnuu0f37iq+QmcwDNoC25Kk2bWFlivUgfdDscp9e+btvinVQ98DPJav3eV6TZj+VDdcxk4pOF9oP2fKVVK9u3By42nF7ztG3dAY+71WDYADvXYurNnQc3kuV8eadJzmJhzQy8E02Dr4fTkhUFuKunxdFvnjssjt9yfXZedBMvFdpT07jdq7pP5uOjLmrEsMnbo84Yq5t/Z0+BDq5c3eD5vjZQ8xL2nwkl8WaPsusqSytF591pjJc/7Kq32/3xoAJ9VLkOsTXBn6Ry6+vIuH1XWPeT0iPWUXW5GRO+c1ejvm7I79p1Qv3R77aqJVv2+LffcvhIpoH9/XblFzNpDyea7GXgOTpy3OOE6wu9wHLqTRz7nPdtOQXbpX+f4x5GsTvJ5vlrXQOe7LRR1kv9NT1YZKQ8SQJ2awN9sMYkbixu+HzUX567osD46H/OK67VtPfR58vAnBd53mth2v99bPXSPAdbQ+9t1u5z2o+zYVsN9rtaJ6RPZgaEaye6AnVo72+zRHT68x03dqg1+HYiz2fefeP3sDhKHHalyLpfnIK16MuZdze1odn2vQ6JB5Hcq+DU7GjDKdT6Ub8TtR81SWzzHl2e4su0NpWLdQm6/ndprV68J6zvGN7O5B0bpLaGTU5omJBg/EDMkzC9ja/RC5KH9dDJI5LcsVWCO/uG772iO0QzeaGxu817HRNXMe+9VLe+vnSwGw3fC0h5dH2NeDcP7S8n1D9Etk0sai7t7R1Mbunb3vGOs4p/0ibzG7Dg7q1TYjvvU1ejw2qFro+7q8f/X3udEX7JifX5eVRlZ95BUP6md7772sme/4cOCW80ue6/z9b31pMef6WUTutTRwzt9dN+Q72Xk6kKl0vnkry+eY8Gy/Mf9t/R59lbqHhnWw+drUf0PSNLWjrQ5ob/c13kyetfOtto6cMYLNEwsbM4Cz5msut3o/moMfg+oGU25c+qzrsjxgq+UX121fEwPVbf17A9r6b2Xk22Hs2MjUx4Pfm9w2Ajx3qsX5SGVLsPe+9f+/N2+mWe9a37xRo89Jmt1OLl5mX//ZOb+98N48VK2FnnlQ6hv1bOSW7Tsa061Eqg0+3rZlBJPmP801qCvwZ+WAl3x3nNv193V2/8oit4/1sGskyYz8PjTHW220xUdeWZMp6OoG4+97rv9B4zuO7oRwea7GsW4l1WssLjV2zTnOX4LefNee2fymvlf7jnOrUWGGst7Tt8XK8hXszMxpe7ZNWWyXw80ZOPV3utcVbJnj3paBo4tD6rA+CvL1LXPNWztNkmptYJ2Xxs5As+/Rm477es2UMXXZ8ExMvZKMX2akgoI8sYjG9NGfuz5nvvPgAYaWZ3TUEoet3g9Ls/xtLeNMeVh//662n4uyPGhr5xfXbd+Wtv7OMRtxj0zcU6MOds87nIcE//t2gZ40Jci8bqD+6+9i3YSyyE+Ti10YRbrfyXdVLhYx9zmVKmO39bTfkUYjuizyK1YmaRsZsj0a+Aqovcoi/yZJs/uyO4VhyGjanbnTwVx+X9f3r5G2G0l3z9yzssg/63oQl+Ijr6ypLPKPk4sdavdd/9r7U6d3uzyXOdbPUi3VOJCqsdt1nJeNAtg+zpfmGbw14Dgi1UYqoU55XdVCZfkqTNqvykUPd9+zXe8WbB/jMysPv0nS7FQu6hr7tSpDyoRRdVifgPO1fc1/70nT1BloY+7r/bpjrG4gJ2n228TzBi3gPLG0O1I9V1+Ye/zE/Lkm1vtDyyJ/v6dO+kYu2m9tHbijdjXe8P1oK3//7PnuzxqdW/uONbos12Dt/OK67WuOZ78Noe2YU3b+r4//qBFPDRqI2hkBTqx1luW8d2vVoy2XeilMVN71JZ+ZDbUG3zhzwcYO81+R/Q2Tl1JlIGcBTVnkL815P5P+kcw75jo4mfLr8vsucP/szdPavN9V+K3BR15Zk2nsXZX9PeB1fpy1ttnlucysiH3HOpUq77QGv9ZxvhmRpigaIK64LgvWVBb5qXm2O98RKFXFfqWrwWR+v64n6wD2nlSV/KkM3Hl2Sh024JjB5WvrmveVlXfsUYiJ5xhyX+9Yv1ef70ZPY0+tEPPE0kwbym4/3JDqGT1/R+iQvGbqo49lxEjxgGNu7n7UBj6nddtqb/vPRVmuwdr5xXXbtyzyz6xj2vHlfXOcuTMczoPecuCs2Stv32qbDg8AAAAAiIk1+jx41mFSbcZ1TWT4e6aXeg8wAAAAAGCDxq6RT3Y3Yh4z46JeSz54xigBMAAAAADApd+Sca8xHb0JYrL76qPB09z3bYIFAAAAAMAU18205s7NuczO1uc78Q/djNDs2VCPMu9bB34Ja4ABAAAAAE617LB+Xy5GeK/L5TcgtAbK5k0wXZsUjt5FminQAAAAAACnWt72cluq14n9JrsB7enEXazvTNlFmhFgAAAAAMBikjS7LtVryG5ItXHVMxF57Oq1r2MQAAMAAAAANoEp0AAAAACATSAABgAAAABsAgEwAAAAAGATCIABAAAAAJtAAAwAAAAA2AQCYAAAAADAJhAAAwAAAAA2gQAYAAAAALAJBMAAAAAAgE0gAAYAAAAAbMKVt2/f+k4DAAAAAAAAAAAAAMABZkADAAAAAAAAAAAAQCQYAAYAAAAAAAAAAACASDAADAAAAAAAAAAAAACR+IvvBABLSdLsyPrrofkjPf821f9E5HnPvz0vi/x/js4HAFAuSbN3ReRD658+FJF3Gx9r+7ep2uqqV+ZPjboKAAAAXiRpdii7/TRHLR9r+7epXsluW1ikai+ft4fLIj9xeD4AAIDVXHn79q3vNAA7rA7xQ/On7vz+xF+qvHghVdBxIhed9q/KIn/lMU0AANnpnKrrqCPz3w+8JcqPp+a/J3JRVzGIDAAAsDFJmjXbxXW/zl/9pWp1Z3IxgPxczAAzg8gAAMAHBoCxGrMi90gugoCtdZIv7bWYjnepOuLpgAeAEawJSEfmvx/Ktjqs1rBTV9EZBgAAEC4z6bFuFx+Z/77jMUkxeiG77ePmjj0AAACTMAAMJ0xQ8LlcBAR0mIfpTKrB4RMhsACwMWZVwpH1h86rML2W3brqlc/EAAAAxMqaqH8k29t1TZMXsts+ZrI/AADoxQAwBjMd55+bP6zejdNrEflFRH5hVRYAjZI0qycjfS5MRorVC7moq5jIBAAA0MHscGO3j5kAGadfpRoc/oXJkwAAoMYAMHZYwUEdIBAcoParXHS4M9sUgDeNuupvnpODcJzJRT31i+/EYH1Jmp0Iq5dC8ikTCjFHkmbPhYnHPrwui/zQdyIwjrUr203hucGFepL/MRMnEYskzRjMwBJeS/Xe9tpJy///j7IU2jAAvGFmq5+bwixQTEdnO4BFmRW9N4WBXkx3JiLHQsfXJiRp9kBEvvWdDpz7O21ETMGEDm8Y/A2cNRHyO2GgF9O9FpEHwophKMQAMBQ4k4t3u7+q/58FVfCBAeCNoAMdK3sqVUf7se+EANCBzix48KtUdRWDU5Ex7d5/+04Hzn1NmxBjJGl2LCJfeU7GFp2VRf6u70TgglnVe9P84dUmWFo9wf8ug8IIGQPAiNBTqQaJT6QaKH7lNTWICgPAEbJW9hI0IyS/isgDtgIEIHI+QPOdsLoHYflJ6PSKguk0/6/vdODcD2WR3/WdCISPwV9vzkTkkJUp/liTIe8Kg70Ix5lUK4UfUD4gFAwAY4POpBocPhGRE3Y2wxgMACtngoSbUnWiEyRAk9dSbclJIAFEztRV35k/vHIAmryWakD42HdCMJ4pe54LbeRQ/FgW+Xe+E4FwJWl2V0T+4TsdG8TgrwdmotJdYcID9Hn6/+zdv3Nc1fk/8IfPfHsg+wegJMWWOEN6xExS4xRJiygWSkwVOkQHFaaELZDbUMSuyQzrPkyscouA9AdssP4CvsUe2cJopf1173Pvua/XjIbEsqTH9u695573c86J5fh4ll0IwyQAhl95HM+PaDxLroWOEQD3jEl0KqazFCphQouKuVf1kLNEO+XBYj49yi6C7hH+phH+tqTs1HYc7kfUR8MkrRIAw9rOYxkMn1g1PFwC4I4T+DJgJtmhJwS+DJgJr54QLnXK48V8ephdBN0xGk+OIuLr7DoGSPjbIIEvA2aFMI0SAMPOTmO5K+eJcWD9BMAdVB6Aj8N2dXCVSXbokNF4ci+W9yrNSfCcCa8OK5Px32XXQUREnC7m0zvZRZBP+JtG+LtnpXn/OCI+SC4FuuZBLMfHZ9mFUAcBMDTCUY2VEgB3gJVTsBUPEdCi0XhyJ5ar8q1igPV9Eh6gOqWMu5+E5pUuOF/MpwfZRZBHU0Ya4e+ejMaTu7EcH2veh/VcRMQ9jf3sQgAMrTmN5XzGSXYhbE8AnKQ87J6EBwXYh/OIOLLiCvarrMq5H4IS2IfHsbxXnWUXQsRoPDkL4/AuEEQNVGks+092HQPkPbeDK0d0OVIA9uOLWDb2uyaxNgEwpHFcYw8JgFtUukNPwkQ6NOkilhPsD7MLgT5yTia0QuNSB4zGk4cR8XZ2HcRFRNzRHDEcZSX+j9l1DJDwdwsl9D0J9wtommZJ1iIAhk6xQ2fHCYAb5oxESHURy5vQ/exCoMuEvpBKGJyojNU/z66DiIj4rYmD+pUw7Sw8H7dN+LsBoS+kEwazkgAYOssK4Q4SADfASl/oJCuD4QqhL3TSeUTcXcynT7ILGRLnkHbKW5oh6iX8TSP8XYPQFzrrcSzHx65hRIQAGHrkPJYLs06yCxkyAfCelDOMHoazxKAPTLAzSBqUoFdMdrVIMNUpf9GwVydnb6cQ/t5CUyT0yheL+fRedhHkEgBDbz2IiHvGpe0SAO9AhyhU4VEsVwa7+VCl0qB0EhGvJ5cCbM9kV0tG48mTcL3sgnd1itdF+JtC+LuCpkjovYtYhggn2YXQPgEwVOFxLK/jFmc1TAC8hdF4chQRX2fXAeyVBwiqMhpP7kfEB9l1AHt1ERGHHpKaNRpPTiLineQyiPhkMZ8eZxfB7kbjySwi3syuY2CEvy8oDfwPw2sRanMay/Gx691ACIChOuexXJw1yy6kRgLgNZWHhVlYEQBDYNtNeslxBDAoDxbz6VF2EbXS8NkZVr/33Gg8eRh2zGqb8PeKcj2/H1b7whDYQWQABMBQNWHwngmAb+FhAQbtIpY3HefQ0WnOLoNBc659Q0pTzX+y60CzQ19ZTZ/mt4v59Cy7iEyO64LB09RfMQEwDMZpLOflzXXsQAC8godV4AUmH+kUO1MA17DqYc/KtfYsNINme7yYTw+zi2B9jqJIM+jwtzTuzMI1G1hyfEqFBMAwSI9iGQZr7NmQAPgKk+nAGpwvQyoTW8AaNC3tmTNMO+F0MZ/eyS6C29mZJM1gw1/b9gNr0ChZCQEwDN6Hi/n0fnYRfSEADpPpwFZOY7ml0Fl2IQzDaDy5G8ut7NyrgHVpWtojKxo74Xwxnx5kF8Fqgrg0gwx/NRsAW9Ao2XMCYKAwN7+GQQfAgl9gD2wpRKNMpAJ7IAjek9KM88/sOgbuIiIOvJ67x5glzeDCX0d2AXsgCO4pATBwDbs8rDDIAFjwCzRAEMxemUQFGiAI3oPReHIQET9m1zFwFxFxZ2ihV5eNxpPDiPguu44BGlT4K/gFGiAI7hkBMHCDx7FcFWzOoxhUACz4BVogCGYngl+gBYLgHY3Gk1ci4klEvJZdy8ANKvzqKuFvmsG8/gW/QAsEwT0hAAbWYH6+GEQALPgFErjRsBHBL5BAELyj0Xgyi4g3s+sYuLcW8+ksu4ihsiI+zSDCX8EvkEAQ3HECYGADFxFxb8jbQ1cdAOvMBzrA5Do30qQEdICJrh2MxpPjiPg4u46B+8tiPn2YXcTQCH/TVB/+aowEOsB5kh0lAAa2NMjrerUB8Gg8eRIRr2fXAVCYXOcXNCkBHfTJYj49zi6ij2yB2wmDfKDPUsYxZ6GBrW1Vh7+lMfI/2XUAXGGnkY4RAAM7GtRzY3UB8Gg8uR8RH2TXAbDCh4v59H52EeQajScPI+Lt7DoAVjDRtYWyGvJJCMQyaWJoyWg8eRpe622rNvzVUAB03EVEHNjZrRsEwMCeDCIIriYA1nUP9IjzgQfKdnZAj5xHxB0TXZsbjSdnYXeHTF8s5tN72UXUzGs8Rc3h70k45xfoh0eL+fRudhFDJwAG9qzqILj3AXDpFJ2F7Z6B/jldzKd3sougec75BXrMEQZbsNNDOq/bhjhqKUWV4a/GSKDHqg4Luk4ADDSkymt7rwPg0XhyHBEfZ9cBsKMqbzAsCQGAStgWekOeVdI9Xsynh9lF1GQ0nswi4s3sOgamuvC3NPE/CavIgX6zLXQSATDQoOp27exlAOx8LaBCHh4q42gCoEJ2rtiQe0E6r9k9sU1vij/UNPkUoTEGqJKjJ1omAAZacBrLILj38/S9C4A9eAKV+2Qxnx5nF8FubI8IVO4vi/n0YXYRfVFWu52F5tUs54v59CC7iD7zDJ6iql0XNPEDlbuIiDu17djQVQJgoEW9P1qoNwGwBwZgQKwG7ikrvYABsbJyQ5qDUhlbbcmKzRS1hb/H4TUEDIPVwC0QAAMJejs+70UA7IGBLT2O5WqLs1g2DzyNiCdtTPyUECgi4jAiXomIO+VDAwOb+HAxn97PLoL1OOuXLVzE8v707B4VLd2ryorEO/H8HnVQPtyr2FRvH4QyWEmZyuqcDXkOT1HNNdVZv2zpPJZzOLPy/2cREW28L8rCk6sfl2NlZ5+zCU1nDRMAA0l6uS10pwNgDwyscB7Lh4BZRMz6PolTXueHVz6sDOEqK6w6zg4VrHAav7xX9WqA+KLyOj+88mFsxlW93xapTaPx5F5EfJ5dx4D9tlXWHZcAACAASURBVO/PD20YjSdHEfF1dh0DU1P4ezci/pldB53zOJ6PjWe5pexuNJ7ciV+Ojz0PctW7i/n0JLuIGgmAgWS9WrDV2QDYNpqDdxERDyPi4dDPmCsPFUcRcTdMuA/ZHxbz6ZPsIvglK2MG7zyW96qTob8/y0Tv5YfJr2Gy2mEDZXz3n+w6BqyaoK0Jwt8U1bwmR+PJLKyYHLLTiDiJ5VzOWW4peUqj/+XY2C5Rw/V4MZ8eZhdRGwEw0AHnsdxdqvPzH50MgEfjyf2I+CC7DlpzGhH3Y/mA0Pk3TVeUyfaj8DAxJJ8s5tPj7CJYcpbj4DyKZdA76KakTVyZ+LoX3itD8hfvk/WU98hZaJrI4rV6DY3YKaoIf+2KMziXTfv3h94IuYnyPjkqHxr8h8ERFHsmAG5E1fONpfn2lfJ/D8t/rx6JZezCtjq/GrhTAbAtnwfhPJbdoPeFvftXuvWPw3uoZjpIk5ncGoTziDi2Zdf+lbHevTDpVbsvFvPpvewi+sJquVS2Z7yijHF+zK5jYGoJf235XL/HsRwfz7ILqU259h5HxDu5ldAwjWd7IgBuRNUB8LbK9flyu/874ZmN63X6+MbOBMC2QauWSfREpYP/ONygamObzSQmt6plQiuR5qVqdfohqGvsgJTKhFcIf5PUEv66ftXpQSzHx2fZhQzNlYbJe6HpuDaaJPdAANwI4+EtXNn17DAch0VHx/adCICdMVSVi1hu52yFbweV99r9cEOqRSdvLLUyuVWVi4i4pzmpe0x4VceWdxvQZJTqwWI+PcouIovtyFNUMY53JEpVTmM5Pp5lF8IvWSFcHU2SOxIAN0IAvGfl2e5uuHYPTecafdID4NF4chwRH6cWwa7OI+LIg0K/lFX398Pq4L7r/FkDNbA9ZxUex/JedZZdCOsrO1mchNXBfVdF0NEGqzBTDTIEFv6m6P010eumGl/EcpWv5v0eGY0n92IZCHv/9Zdd3XYgAG6EALgFZX7jKITCtTuPZSN8J67xqQGwCfVeO43lRPqT7ELYXZlsPAnvx77qXHdRTUbjyVkIn/rqUSzvVZ0YdLGb0rh0ElYa9ZWzVtdUgpUn4d6T4fFiPj3MLqJNxjmtqyH8PQiNKn1mkr8iZYXZSQiD++q3GpQ3JwBuhHtDAjugVe8PXcjO0gJgWwX10nlE3O3CC5fmlAf6h+H92TePFvPp3ewiamJlQ2+dxvJedZZdCM2xMri3TCxsQLNsmvPFfHqQXUQbhL+tqyH8PYyI77LrYGMPYrm9s6bIilkZ3Fu9vze0TQDcCM9pHSAQrlL6zp0pAbAHzd5Jf6GSQzdp7wxu1UpTrGzonYtYrvR9mF0I7SuTXZ9n18HaBrnN7rYcl5Om+hBYg0Hrej/BPxpPjiLi6+w6WJtd2waqBAj3wxajfWKnnA0IgBshAO4gxzdWI3UOpNUA2GqqXjmNiEMdokQ8e++eRMTbyaVwu+onLJsm/O0Vqxl4xg4WvSIE3oAVd2mqPZ9vNJ48DOP6Ngl/aZMGfp4pY4iHYR62D4TAaxIAN0IA3HHm5nsvbdFWawGw8Lc3nCXKjTz894IQeEvC397wcMyNRuPJSVj10HVC4A2U+9OT8CyVoarz+VwfW9f7MYvnv164iGUDv9W+XKvMyc5Co2TX9f6e0QYBcCMEwD0iDO6t84i403aDcSsBsPC3Fwwy2EjZhmIW3tddJQTekPC380xssTGT1p0nBN6Qo3TSVBECj8aT+xHxQXYdA9L7Z2z30c6zcxsb0wjUeb2/dzRNANwIAXBP2Qmtd1rfZarxAFj422km09mZILjThMBrEv52mnsVO3OmfacJgTdk+940vd7G13nSrev9BL7wt9MEv+zMfaHTen8PaZIAuBEC4AqUsdv9MO/RB601GLcRAJ+FLvWuMZnO3gmCOyvtjIG+EP52lnsVe1eC4H9m18GvCIE3ZNI2TS8nZAV5revl6+Qqr5nOEvyyd1YEd1bv7yVNEQA3QgBcEdv+90YrIXCjAbDwt5MMIGiUILiTTKyvYJeKThL80jgT251k0mFDo/HkMCK+y65jgHr1POV617pevT6u49rSSYJfGicI7qRe7z7SFAFwIzyLVcq1vfMaD4EbC4BtTdY5AiBaZbKpc75YzKf3sovoGo1KndP7SVP6xcNQ57gGbEgjU5peTJIJ8lrX+2uYnXE6R2MkrbJqrJNa2ya0LwTAjejF2JbtmafvtEav840EwKPx5H5EfLD3b8w2dIqSyuR6p/R+UmqfRuPJLCLezK6DiNCkRCITXZ1jpcMWRuPJk/Aablun713C39b1fpytoaRzev+aor/s7NYpFxFxYF73OQFwIwTAAyEI7qRGr/P/t+9vWF5Ewt9ueGsxn94xSCBTmRj7bSwvZuT6ukwGDl5pTBD+5ruIZafbUXYhDNdiPn26mE/vRMRb2bUQERHflRVobKC8hh9k1zEw75TxROeU95Dwtz21BHVPQtjTBaeL+fSlSl5T9NRiPn2ymE9fiYhPsmshXo5lGA+ws8V8erKYT1+KiC+ya+GZlyPirDRj7t1eA+DSIaaDIN+j8sAwyy4EIiIW8+mZh4fO+K6pG0pflEYlq9LzfbKYT1+xnRVdsZhPZ+VB6FF2LZjk2kZppvkwu46BeafsKNIZtvBtXRXhb2lmcCxKvrdKQw90QlkR+GpEnCeXMnSvd7XpDOinxXx6r8x/aCLuhpdj2Yy5d3sLgK9sn0eutxbz6d3sIuA6Vx4erAbONdgzpDQqdcLlqt/j7ELgOmUc9YfsOgbuNZNc21nMp/fD67dtb47Gk7PsIiKePZMPdpyXoJbw915ojsz2WBM/XVV2yzkITWbZ3inN7AB7U5qINfp0w2uj8eThvr/pPlcAPwzbBWU69cBAH5SHh1fCVhOZhjyxPssuYOAeWPVLH5Rt716KiNPsWgbsnRJKsKHFfPokNNy17bWOhMBn4Zm8LbWEv3ci4vPsOgbu3cV8ephdBNymNJk53ivX145KAfbtSqPPX7JrId4ejSf39/kN9xIAl8kZZynm+cQ2QfTNYj69F85bzDS47tESepsUzfOWs37pmzK+stohz+cmubZzpeHucXYtA/LaaDx5mnXURgmgjXPaUUX4W8yyCxiwi4h4taLXEgNw5XgvR6bkmWUXANRpMZ8+LI3wniFzfbDPOfudA2Ado+n+YBtN+qqsWLdCJc/XQzkP2Lm/qS4nt2bZhcA2bKmbbpZdQJ+VVWV2XWnPyxHxU9uNC+UcYue3tqOa8FdzZKrHZVecp9mFwDbKkSmaJHMMeUc3oAXlGdKirVx72/FhHyuA974vNWu5nFB3xhO9ZoVKupPsAppWQm7n/uYwuUUVrmyp61yc9r227y2QhqbsumI7r3b92FYIXMJfu3G1o6bw925ojszyiS2fqYEmyVTvlOs4QCMW8+nMsVjpZvv4JjsFwGUyRqdx+0yoUx0rVNK8PYCtoE+yCxioBya3qMmVc3E0LLXvg7LrEFtazKcPY3luH+35cTSeHDb5A8oKIOFvO6oJf4uT7AIG6l07uFGTK02SdnVr30l2AUD9yrFYn2TXMVB72fFh6wC4TMJ8sGsBbOyRCXVqVVao2EaofdVuBV3C7bez6xigT5z3S63KOOxBdh0DZNehHS3m07Owkr1t3zXVaFcmA6zgbMcnNYW/tn5O81ZNryO4dGVXN+OLdr1sK2igDaV5zY4POXbe8WGXFcAnu/xgtvKgnLMB1SrbCL2bXccA1bq9Zq1/ri6zsoHqlQYHXbDtem00ntzLLqLvrGRP8fW+Q+DReHIcwt+2fFLTuKY08nvttO+3i/l0ll0ENMn4IsU7dskB2mDHh1Qnu3zxVgFweYB9fZcfzMYeWE3FUJTOaCFwu95pepvCtpVjCqxuaFdt2yPCSiUQEAK36/Nad6xoW1nJ7vXbnq9LaLuz8n0+3sf34lZVhb/FSXYBA/TbsgMDVK+ML4TA7TrJLgAYhis7PrjOt2unHR+2XQFsRVW7hL8MjhA4RTXX9tF4chCOKWib8JfBEQKnqOZela28ft/KrmNAPt51q8bSiC38bUd14a9G/hTCXwZHCNy615s6bgLgOuU6/yi7joHZeuHWxgFw6Ti2oqo9wl8GSwjcupoeHAQE7arqbDzYRAkInAncHlvd7VHZkvS3YSuvtryzbQhczn76eq/VsEp14W9hfNyut4S/DFUJB5wJ3B7Xd6BV5ZhS8yDtOtnmizYKgMuWazqO23Mq/GXoSqhkdVV7jrML2FUJBt7OrmNAHlQ6SQprK+M1HbDtOc4uoCaL+fSsbOVlorYd74zGk9kmX1C6vf/ZSDW8qMrwt5yhrpG/Pe8685ehK2cCazBrx8vlOg/QmjIPIgRuz2vbXOs3XQF8vOkPYGsXi/nU6gYIq6ta9loFq4B1v7bnsUYlWCodsAK0drxtFfD+lYlajQzteHM0npyt8xvLsRbfNVoNl6oMf4vPswsYEDvjwHPGa+05zi4AGB4hcOuON/2CTQNg5ym2xyAJrig3FBPr7TjOLmBbJRB4M7uOgbgoW3sBzxm/tec4u4AalUYGO6+047XbQuAS/v7YSjVUG/5aFdaqR7W+jmAbZRv0v2TXMRBWAQMpypy9s9/b8XI5ondtawfAm35jdvKus2LgWofZBQzEa+WcuT46zi5gQA6zC4CuWcynT8MkV1veLuEYe1bCi7ey6xiI10bjydNy1NIvlF97klDTEFUb/hbH2QUMxEVpogGuWMynDyPii+w6BkIADKRw9nurNjqid5MVwG4i7XhguyC4XmmMeDe7joHo3TW/BAHO/m3Hh4v51KQ0XMMkV6t6d6/qi3J25avh7L42vBwRP11taCjh71k4s7UNVYe/5WgXr6N2HGYXAF21mE/vRcRpdh0D0OdmfqD/7IjWkk0W664VAJebh4eG5l04SxFuVhoknE/XvDd7eL7iUXYBA3G6mE+dsww3KJNcul+b53iaBi3m06eL+fSVMGHblh+vhMBPwvN3G6oOf4uj7AIG4gvNkXArwWQ7NEgCKeyI1qq1r/XrrgB282jHUXYB0BNH2QUMxFF2ARtyr2qHB3dYj/dKC5x11rzFfHonIh5k1zEQP47Gk6cR8Vp2IQNQffhbmjnfzK5jAM5L4xdwg7Kj24fZdQxAH5v5gUrYEa01L5edfm51awBcupA9NDTvUXmDALcoHUW2gm5eb1ZWjcaTw7BSpg1fOKMe1lNWAnnwaZ6gvQVllyKTtu0wnmle9eFvcZRdwEAIf2FNZScpO4s0z/gYSGNHtNYcrfOb1lkBvNY3YmceGmADZStoDw4N69H5Ma6hzbuwugE24z3Tijevnp1Kc8qk7R+y64AdDSX8jTCX0waN/LA54+PmHWUXAAxeX+aT+2ytHR/WCYD9YzXPiirYjgeH5h1lF7Cmt7MLGADvN9iOVZPNO8ouYCjKyvZXI+IiuxbYwoOhhL92x2mN8TFsaDGfziLiUXYdlXut3AcAUtgRrTVHt/2GGwPg0k3/+p6KYbXj7AKgj8qDw+PsOirX+WDVg00rzsuqe2BDZdWksKxZh9kFDMliPn26mE9fCWMw+uVB2cp8KDTyN++BRn7Y2nF2AQNwmF0AMGx2RGvF0W2/4bYVwLd+A3b2oJxnCmznOLuA2vUgYD3KLmAA7mcXAD13nF1A5d4cjSevZBcxNIv59DB0ddMPQwt/IwTAbTA+hi2VlWFWATfLfQDogk+yC6jcy7fN298WAN/4xeyFhwbYQVkF7CzgZh1mF3CLw+wCaldWMAJb8h5qhUmuBKWr+93sOuAGgwt/y1lgr2XXUbnHJcACtmd83KzXy86eAGmGcvxKssObPnlbAPzm/urgGh4aYD9Osguo3GF2AauY4GqF1V2wH95LzTrMLmCoyhEBv82uA64xuPC3OMwuYAAEV7AjzfytOMwuACCsAm7a4U2fXBkA92DLzxqcZBcANbCyqnFdbga6k13AAJxkFwCVeJhdQOUOswsYsnIO5qsRcZ5cClwaavgbYXzctIvFfOqeDvvhvdSsw+wCAELjXNNunLe/aQXw4X7r4EWlWx7YD+fHNKjDTUEmuJp1aqcK2I+yykE41hy7QSRbzKdPF/PpQUQ8zq6FwRty+BthfNy0k+wCoCIn2QVU7iC7AIDFfPo0PCM26qZ5+5sC4IO9V8JVXvSwXyfZBVTuMLuAFUxwNUtHNuzXSXYBNetws9KgLObTw7DNF3mGHv5GRLyeXUDljI9hT8oOIuZHm9Pl3dyAYbEKuFmHqz4hAM4zyy4AamIbrsZ1NWj1QNOsWXYBUJlZdgGVO8wugKXFfHocEX/JroPBGXz4qxGmeWVHD2B/ZtkF1Mx9AegC8/aNO1z1iZsCYJPqzZplFwAV0jnanFeyC3jRaDzpaihdDRNcsF/eU407yC6A58pD/m8j4iK7FgZh8OFvYXzcLM+bsH+z7AIqd5BdAEBhHNWclc8ANwXANMgEIDTCWaXN6WJTUOdC6coYmEEzvLeac5BdAL+0mE/PFvPpK+H8a5ol/H3O+LhZs+wCoDbmRxt3kF0AQDHLLqBiL6/6xLUBsO0hGmfiD5pxll0ArTrMLqBys+wCoFKz7AIqdpBdANdbzKcHEfEouw6qJPz9pcPsAio3yy4AKmWetDkH2QUAFLPsAmq2KtO1AjjHLLsAqJQVwA3SHARAx72WXQCrLebTuxHxSXYdVEX4CwA3O8guAKAwb59gVQB82GYRAPtg6yDYq1l2AVCpWXYBkGUxnx5HxFvZdVAF4S+t87wJjZllFwBAsxbz6dPsGip3eN0vWgGcQ7cDwO4OswsAoFtG48md7Bq4WQlQXo2Ii+RS6C/h72pvZhcAQKccZBcAcIUt/1smAM6h2wGATrPCAZrhvdW4V7IL4HaL+fTpYj59JSJOs2uhdx4Lf0liwhKaM8suoGKOSAEYMAEwUBsTic05zC4AAKjHYj69ExEPsuugNx4v5tPD7CIAAAD6QAAM1MYKewCAniirOT/MroPOE/4CAABsQAAM1OYguwAAANa3mE/vR8Qfsuugs4S/AAAAGxIAA7VxvklzZtkFAAB1WsynTyLi1Yi4yK6FThH+AgAAbEEAnOMguwAAuMloPDnMrgFq5L3VuCfZBbC9xXz6dDGfvhIRj7NroROEv3TJm9kFQMUOswuo2Gl2AQBXvJJdwNAIgHMcZBcANRqNJ24iwzLLLgCAblnMp0+za2B3JfT7IrsOUgl/t6N5AoCrjI2BLnk9u4CKXXu9XxUAz5qrgxAAQ1PuZBcAFTnMLgAqdZhdAPTBYj69FxHvZtdBCuEvnWQXD2jMYXYBADRrNJ4cZNdQuWt3Q7MCOMdBdgFQqcPsAmq2mE9n2TW8QCdrs6yoh2Z4bzXHFneVWcynJxHx2+w6aJXwdzfGx81yD4dmeG81x/EoQFccZBcwRNcGwB2c5K+Ns2OgGQfZBdAqDzLNsqIemuG91RzBR4UW8+lZRLwaEefJpdA84e/ujI+b5R4OzbAlaHOMj4GuOMwuoGarMl0rgJPYOgga4YG8OV08T+wsu4DKaVaCZnhvNWeWXQDNWMynTxfz6UF0czzCfgh/9+Msu4DKHWYXALUxP9q4WXYBAMVhdgEVW9ksfVMA7OG6WYfZBUBNyjkCukabc5ZdwIvKiiAa5GEc9st7CnZTAsJPsutg74S/+3OWXUDlNHHB/h1mFwBAs0bjySthHNWks1WfuCkAnu29DK46zC4AKnM3u4DKnWUXsIJmpWZ5X8F+eU81a5ZdAM1bzKfHEfGX7DrYG+HvHjnOq3mj8cS9HPbLe6pB7gtARxxlF1C52apP3BQAn+29DK56s3Q+APvhoaFZs+wCVphlF1A57yvYr6PsAmpmgms4FvPpw4j4bURcZNfCToS/zdAg2SzjY9iT0XhyJ+zk1iT3A6ArjJ+aNVv1iZsC4Cf7r4MXHGUXADWwjUTzOjyp7l7VrNdsWQv7Ud5LL2fXUTETXAOzmE/PFvPpK3HDeUd02qnwtzHGx816J7sAqIhAoFmz7AIASrOPefsG3TRvvzIAXsynHhqad5RdAFTiXnYBlevypPosu4ABOMouACrhXtUszy4DtZhPDyLiUXYdbOR8MZ/eyS6iYrPsAmo3Gk+OsmuAShgfN8v4GOiCo+wCKnfjvP1NK4AjPEg37XUrq2AvjrILqNwsu4BVFvPp04g4za6jcu84sgB2U95Db2fXUblZdgHkWcyndyPik+w6WMt5Ce1pziy7gAE4yi4A+q6cp213nAaVIzMA0pS5kA+y66jc7KZP3hYAu1E0T7cb7KA8NLyWXUflZtkF3MK9qnnuVbAb76GGmeBiMZ8eR8Rb2XVwI+FvC0qDZJd38KnBm5r5YWfGx81yHwC64Di7gAGY3fRJAXC+t8s+6MB2jrMLqNxFh8//vTTLLmAAPs4uAHrOe6hZJriIiGdnH70aERfJpfBrwt92zbILGIDj7AKgr0oDhfMgmzXLLgAYttF4chBW/zbt/LZ5+xsDYJ2jrTnOLgD6qJy99Hp2HZXrfCNQDwLqKozGk+PsGqCPRuPJ/ewaBqDz9yras5hPny7m01fCERFdIvxt3yy7gAGwChi2Z3zcPONjIJtrffNObvsNt60AjnDDaINVwLCd4+wCBuAku4A1PcguYAA+dhYwbEbHa2tOsgugexbz6Z0wPugC4W+C0iB5nl3HAJjYhA1p5G/F6WI+fZJdBDBc5cjGt7PrGIBbs9t1AuCT3etgDSfZBUCflNWIzv5tVh+2f750kl3AQJjkgs14zzTvcdm1CH5lMZ8eRcSH2XUMmPA310l2AQPwegmzgPUZHzfPYi4g20l2AQPweJ1mn1sD4DKh8mgvJXGT10fjyb3sIqAPyooq5yk2rzcPZlY5tOYdW93BenS8tqY39yraV3auOM6uY6CEv/lOsgsYCPchWFM5GuXl7DoGwHUJSDMaT07Ctb4Na13r11kBvPY3Y2efl2ALuJluxnacZBewoZPsAgbiJLsA6ImT7AIG4GIxnxoTcK0S/p6FyYcMwt8OWMynZxHxOLuOAXi5THQCNyhH3zkapXmP7I4DZCk7o7yTXccArD0XslYAbGVVq0xiwQ3KSnnnxTTvUZk06o3FfHqcXcNAvGaSC26m47U1mlS5lvA3lfC3W46zCxiId2wFDbcy39kO42MgRWn0+Tq7joE4Xvc3rrsCOMINpC2vl7NNgReUG8nn2XUMRF+v+V9kFzAQ75TtbYEX6HhtVV/vVTRI+JtK+NsxpZn/NLuOgfi6XH+AF5TmyNeSyxiC03LdB2hVGQPNsusYiIvFfLr2XMjaAXD5phdblcSmPjaxDr/kRtKqPj80CAPa80/HFsAv6Xht1QPb2/Ei4W8q4W93GR+350l2AdA1ZRc3zZHtcL0HsjwJz2BtOd7kN2+yAnjjb85OTKzDL83CjaQtx9kFbKtsW/0gu44BmWUXAF2hUal1x9kF0C3C31TC3w5bzKcn4UivtjgqBa4YjSeHYRe3tpyX6z1Aq0bjyZOwy0NbNlr9G7FhAGwVcOt0j0I82y7Iub/tOF33EPkOO84uYEBeG40ns+wioCN0vLbnQd/OqadZwt9Uwt9+OM4uYEDecawXRJRFLd9l1zEgx9kFAMNT5gTN2bfn3qZfsOkK4Ag3lDa9PBpPzrKLgEyj8eR+2C6oTRvfSLrGKuDWvWmlA0NXHnp0vLan9/cq9kf4m+oiIu5kF8HtrAJu3cej8eQouwjIUu7NFrW059TqX6BtZR7kzew6BmSra/3GAXBZBezBoT1WVzFYpXP6g+w6BuRRj8/+fZFwoF3vCIEZKg89rfvC2b9cEv6muoiIA+/HXjE+btfXQmCGyL05xXF2AcCwlEWL5kHadbTNF22zAjjCg0Pb3hQCMzQl/P04u46BqebaXiYjP8yuY2CEwAxOec176GnPxWI+reZexV7Yej2H8LeHyjEvj7LrGJivyxmoMAhXVv66N7fnUQXHeAE9MRpPXhmNJ0/DDmht+2Ixn261s8ZWAbAHhxRCYAZD+Jvii9rOU7RjRQohMINRxmWOKGiX8JdnSte5iYf2CX/7zXW0fd9ZCcwQXFn5697cLtd1oBWj8eRORPwUmnzatlMj/LYrgCO2XHLMTt50JjC1K+GR8LddNa+oqvXP1WXvjMYTHchUzbbPKR4524xLwt80wt+eKw2fX2TXMUBfj8YTzyVUazSeHIRtnzN8WFsjP9BNZRzzn+w6Bupwly/eOgC2vWaa10bjydPSWQdVsZoqzVF2AU0pO1Y8yK5jgN62awU1KtsdnYXwN4OJcyJC+JtI+FuJ0vhpl5z2fV52uoKqlBVhP4bwt23nZdczgEaVRR6fZ9cxUFtv/XxplxXAl9trnu7yPdjKyxHxUxlkQe+ZUE/1oPbzYhbz6VEsJy1p15salqhJWdnwUwieMljdQEQIfxMJf+tzN7uAgfpYkyQ1KdubWxGWw3UcaNRoPDko5/2+nV3LQJ3uY8fOnQLg4nAP34Pt/Mc2QvTdlfMDTOa176KEo0NwlF3AQF02LB1mFwK7KJNbP2bXMVCPrW4gQvibSPhbobKSwFbQOTRJUoVyfNfXyWUM1Ye7rggDuEnZtcTuDrkO9/FNdg6Ay4Pgu3uohe187qxF+qrcTHSL5jnMLqAtZZWzSa4839nyjr4q4yyTW3msbkD4m0f4W7GyosCObjk0SdJbV3Zwc3xXjlPNkUBTyjX+aUR8nF3LwP1lX89g+1gBHIv59CScsZjp7dJBepBdCKxrNJ48CTeTTIPrGDXJle7j0XjyxGoH+uLKg4/tjvLs7aGH/hL+phH+DsNhdgED991oPBHk0BulacEObrkOswsA6lR2dvgprPrN9sk+j2vcSwAc8eyMxfN9fT829nJE/GiFFV03Gk8OR+PJzxHxenYtA/ZowB2jh9kFDNzrYbUDPVCO2PDgEM+nRgAAIABJREFUk+uL2s+o53bC3zTC34Eo/8Z/ya5j4D6wJTR9UHbF+S67joHTHAns3ZW5ejs75HuwmE+P9/kNX/r555/39s3KClTno+U7j4g7BgV0zWg8mUXEm9l1DNzFYj4d9ORCCR89uOZ7vJhPD7OLgKvK5OuTEDhlc31A+JtH+DtApZHc7kz5Ptn3pB/sajSe3AlHd3WB60NRgir2y+trgMx/dM7pYj69s+9vurcVwBERi/n0LCLe2uf3ZCuvxXKF1XF2IRARMRpPjsoATfibb+83kr5ZzKeziPgwuw7izdF48vNoPDnKLgQink1+29Iu34XwF+FvGuHvQJVJ30fZdRAfO96LLilN/MLffI+Ec8C+lOOunoT5jy45byL8jdjzCuBLZTL3671/Y7ZxERGHQzvrk27QSdQ5b5Xwk3h2toXtTbrBzhWkKasaZmG75674bWkqZaCEv2mEv3j/dcujxXx6N7sIhsm8bqecL+bTg+wiusQK4EZYATwAZZ5+Fo5l7JpGn8P2ugL40mI+PYmIL5r43mzs5Yj4z2g8eeJMGdp05eB4Ewjd8K7w95fK2fWPs+sgIp7vXHGSXAcDcqXr9T8h/O2Kt4S/w1ZWGhk75hD+ErHcLegiuwgiIuJtu+XQttF4cmc0njwN4W9XXIRd3IAdvbDiV/jbLY034TayAviS1VWd9KCEHtAI50d1kk6+G1jp0EkfLubT+9lFUC9j1E56tzSRMlAl/HVcSA4r73mmbD/8Y3Yd/Mof7OxGU6wK6yz352tYAdwI84YVKrudnYRre5c1fp1vNACO8CDfYYJg9soWQZ3lvb4GIXBnCYTYK8FvZ3mvD5xnxlQml/mVMmHo3M/uccQXeyX47TT35xUEwI0QAFekzNHfDzuddVlrx+80HgBHeKDvOOEQOxH8dpr395rKg+9ZGBx1lXCInQh+O81kw8B5VkxlcpmVRuPJYUR8l10H1xIEsxPBb+e95Qiv1QTAjfBM1nPlun4SEW8nl8LtWgt/I1oKgCOsruoBQREbGY0n9yPig+w6WOnxYj49zC6iT4TAveChhLWV9/T9EPx2mff0wAl/Uwl/uZUQuPMuIuJoMZ8+zC6EfihbvD8MwW+XCX9vIQBuhOeynhqNJ/ci4vPsOlhbq+FvRIsBcIQQuCdOY9lJ2tqLkP4ok+kPw0Rd1z1azKd3s4voIyFwbzyK5WSXexW/YmKrN0wyDJzwN5Xwl7UJgXvDfZWVyvv4YXjO7Trh7xoEwI1wD+mR0XhyN5arfV3T++V8MZ8etP1DWw2AIzzo98hFRNyz5SYRz86AmoUbSx9Yzb8jIXCv2P6OZxxJ0CsmGAbOM2Eq4S8bEwL3iqZ+nnEMSq8If9ckAG6E57OOE/r2XtpOna0HwBEe+HvocUTc9QAxLLbO7CXh7x7ZtaJ3HsSyccm9akCs9u0lZ3oPnGfBVMJftlbuuT9m18FGPlzMp/ezi6BdVvv2kvvzBgTAjRAAd0yZl78XER9n18LOUt9fKQFwhC60HvtiMZ/eyy6C5jg7oLcM1howGk+ehGCpby4i4thkV73Kg9BxOIe+j/7inMJhE/6mMrnMzkoI/CQES31zHsvjU2bZhdCM8t48CffYvrmIiDvuz5sRADfCnGIHlFW+98NilJqkz4GkBcAREaPx5Dh0MfSZm0MlSuh7HB7k+8pqqgaNxpOHEfF2dh1s5SKWk10CpwoYN/beH2zXPmzC31TCX/amNGI9CZOTfXUay/Gxe3LPlffiSXhW7avzWIa/drDakAC4Eeb4E5RjrI7DmKpGnWnwSQ2AI5zXVpEvYrniysClJ0ykV8M5MS3wfqnCRUTc91DTH44iqMZFRBwYIw6b8DeV8JdGeF9X4TyWR6holuyJ0XhyJ5bjY++9fks7C7IGAuBGCIAbVnZquBcRR2EBVu1OF/PpnewiLqUHwBHPBjD/ya6DvTmN5UPELLsQnivnwByHB4VamFBvWdmK5Z/ZdbA3j2N5r7L6oUPKveokdMDW4nwxnx5kF0EuR/+kEv7SqNF4cj8cyVCTB7EcH3vG7BA7tlXH0Xo7EgA3QgC8R2X+8PLDtXtYOvde6kQAHGEboco9juXq4Fl2IUNSOouOw4RbjTrVSTQk5X31Y3YdNOJBLO9VZ9mFDInmpKo9WMynR9lFkEv4m0r4Syvs6lati1iuNL0vEG6XLUGr5viuPRAAN6JzoVXXlfnBw1iGvIch6KWjx151JgC+5KzFQTiN5UPESXYhNSndRffCJHrtdIt2wGg8OQsP5LXTvNSAMqF1LyJeTy6FZpncQvibS/hLqzRJDoaGyT0ri2EutwT1fFk39+Y9EQA3QgB8Rbk234llsHunfLhGs0qnt/XvXAAc8Wx7k8+z66BVjyLiocnC9VzZSsKk2rA477dDbHk3SA9iea9yTtoaSth7NzT2DclFRNwxuYXwN5UJZtKMxpMnoclrSC5ieXTHSRdXvHRNCRSOyof3yXDYwW3PBMCN6H0AfCW0fdHhNf/7IAS67Mdfuj5H2MkAOOJZB+mTsHx+yC4i4mH5mA1x26ES9B7GcgLdjWm4zmM5oT6490DXle1rv8uug1Tn8fw+1elBXxPKQ9ZhON+Gjne90h7hbyrNgqQbjSfHEfFxdh2kOo0ylzPEYPiFbUE1Qg5b70O1LhIAAx1wGhGHfZir72wAfMmW0KxwERGzWDYJzPo60TEaT65uJ3EYQl5+zZbPHVcCsFno4ubXzqPcp2J5r+rlBFhpdLi8Tx2GkJdf+3Axn97PLoJ8wt9Uwl86ozznzsKYgV87jV/O5ZylVrOFF7YGPQzHcHG9Tp4FWQMBMJCs86t+r+p8ABzxbBXkP7ProLdOI+JpLB8yIpYPGk8j4um+BmOlw/Og/N/D8t87EXH5YODBl214YOgRqx3Y0eNY3psu3/Oz8t993qsu70sRz+9Vl/81ccU2LiLioA9drzRP+JtK+EsnjcaTWRhjsJ2LWI6Lz8rH1XHy2b6C49LoGPF87ubqfzX4sg274jRMAAwk6eX1vRcB8CXnyQAD0csbCs+6wc9C0wdQPztU8IzwN5Xwl05zZAowIL1aFdZXAmCgZRex3O65l4u0ehUAR0SMxpOjiPg6uw6AhpjEq8BoPLkfER9k1wHQgItYnkt/ll0I3SD8TWXcSG9o6AcqdrqYT+9kFzEUAmCgRb0/y713AfAlDw9AZR4t5tO72UWwP1YDAxWy6pdfEP6mEv7SO1YDAxWy6rdlAmCgBdXsztnbADjCwwNQhV5vI8HtRuPJvYj4PLsOgB2cx3LVr7N+eUb4m0r4S6+NxpOHEfF2dh0AO9DEn0QADDToIiIOapr76HUAfMnkA9BTVlINRFkNPAs7VwD98+5iPj3JLoJu8fyVSvhLFUbjyZ1Yjo/tlgP0iSb+ZAJgoAHVXturCIAjnk2uP4mI17JrAbjFaSxvKtV0E7EeE11AjzxYzKdH2UXQPaPx5DgiPs6uY6CEv1RnNJ4cRcTX2XUArEFjZAcIgIE9q/raXk0AfMm20ECHVdtNxGZMdAEdZrtnVhL+phL+UjU7CwAdZrvnDhEAA3tSdfB7qboA+JLJCaBjBnFTYTMmuoCO+YMmJVbxfJVK+MsgODYF6Bi7t3WQABjY0aDm6KsNgC+ZXAeS2UKTG5noAjpgUA9AbE74m0r4y+A4NgVIZve2DhMAA1u4iIh7Q5z3qD4AjjC5DqQQ/LIR9yoggXsVtxL+phL+MmglCP5Pdh3AoGiM7DgBMLCBwTf0DCIAvmRyHWiBLYLYiRUPQAsEv6xF+JtK+AvFaDw5ioivs+sAqib47QkBMLAG8/PFoALgS4JgoAFuLOyVIBhogOCXtQl/Uwl/4RqCYKABgt+eEQADNzDn8YJBBsCXBMHAHjyKiCPBL00pQfBJuFcB2/MQxEaEv6lMRMMtShB8PzRKAttzv+0pATDwgotYzs0/zC6kiwYdAF81Gk9OIuKd5DKA/jCZTqs0LQFbMLHFxoS/qbxnYQN2zAE2NPizIGsgAAYKi7LWIAB+gQkP4BatTcyNxpODiLgXEXcj4rU2fmaLHkXEQ5Oc29G0BNxA9ytb8yyUSvgLW9IoCdziNJbjY8FvBQTAMGgXEXHXcTnrEwCvMBpP7sZyy02dpEArXaIl8D2JiDeb/DkddRER90x8bsY5aMAVJrbYifA3lfAX9kSjJHCF1WEVEgDDIH2ymE+Ps4voIwHwLXSSwqCdxjL4bfRhwSTFr9iWaUO2v4NBcyQBOxuNJ/ci4vPsOgZK+AsN0CgJg+beWjEBMAyGJp49EABvwMQIDMaHi/n0fpM/QHPJ2jy4bUhDAQyCbZ7ZGyFJKuMcaJjnLhgMu+EMhAAYqvY4ltfys+xCaiEA3kLZpvVheICAmpzG8gyBs6Z/kC0WN3YREQc6vjZjVTBUSQcseyX8TSX8hZa55kGVGm/gp1sEwFAdoW+DBMA7Kg8Q98MEO/RR6+fOjsaTJ6F5ZFt/sdptO5oOoNfOY9mgZDUDeyUISSX8hURlVfBJRLydXAqwncexHB9rihwgATBU4YuIOHYdb54AeE/KA8RxRHyQXApwuy8W8+m9tn/oaDx5GppFdmXCdAcmu6BXrGagMcLfVMYy0CFl15yT0KQLXXceyxVis+xCyCUAhl66iGXga46jZQLgBphgh05K3TbTyt+9shJ4D0x2QSelNCgxLMLfVMJf6LDReHI3luNjTbvQDa3v2kb3CYChNx7F8hp+ll3IkAmAG1bOCz6JiDdzK4FB6sQZAqPx5F5EfJ5ZQ2UuFvPpK9lF1EQYDKlsfURrhL+phL/QI8JgSGOVGDcSAENnnccy8LVop0MEwC2yMhhakbrS9zqj8eQsIl7LrqMyJlEbUsLg+6FxCZr0SUTc79K9ivoJf1MZt0CPlTD4fnimg6ZY6cvaBMDQGeexbNg5yS6E1QTASUoYfC8iPs6uBSrQ2Yn0Eqb9J7uOCj1YzKdH2UXUrtyr7kfEO9m1QM9ZyUAq4W8q4S9URLMk7I0zfdmKABjSPI7l/LsVvj0iAO6I0XhyGMvVwTpK4Xa92VKivLe/y66jQo8X8+lhdhFDUwKE+2ErPFjH41jeq55kF8KwCX9TCX+hYhr7YWMPYjk+7lzzPv0hAIZWXMQyq7qffbQiuxEAd5CHCLhWL89IFAA3RgCcrJxxfxxWB8Oli1g+HB1nFwKXhL+pPrTqH4alPPsdh9XBcKk3zfv0hwAYGvEgIk7sylAfAXAPmGRnoB7Hcjugs+xCdiEAbowAuGNMeDFQD2LZnHSWXQi8SPib6hPNIEC5Dh+Hnd4YjotY7hjVySO6qIMAGHZyHhEPw8rewRAA91A5c+ZeCISpy+NYTqLPsgvZJwFwYwTAHScQplICX3rB+COV8Be4lkCYCgl8aZ0AGNZyEcug96FdGIZNAFyBskL4XkQchXMZ6YfLm1D1k+gmYBsjAO4ZzUv0kAktesnYI5XwF1jbaDy5G8vxsYZJ+uI8lvM4J9mFMFwCYPiF01ie1TtbzKdPkmuhgwTAlSqdpUfhQYJueBzLcwROsgtpm0nYxgiAe66cd383rIKgOx7FMuydZRcC2zLuSCX8BXZSmvuPYhkKa+4n22Aa9+kXATADcx4Rs8sP12M2JQAeiCsT7UchFKZZp7FcMfXQiikTsQ0SAFeo3KuOYjnpJRSmSYNtTKJexhyphL9AI+z4RosexHJ8PMsuBG4iAKYi5xHxpHzMXH9pggB44MqWQ5cfHibY1INwlsCNTMY2RgA8IGVXi7sR8XZyKfTP5coFk1lUzXgjlfAXaNWVpsmjiHg9tRj66DyW24WeWElGHwmA6bDziDiLZaD77L+utWQSAPMr5WHiMATDPPconh8cP/hVvZswIdsYAfDAXdnZQjBMxPOgV1MSg1POWP9Pdh0DJfwFOqOsFr7c+U0wzHk8b4R0LiTVEACzg9OIuG5ee3bD/39iLpw+EwCzkTLBdBjLhwpbSdflNJ5Pnns42BMBcGMEwKxU7lWX4bDJr7o8juW9auZeBQCwnrL722Esx8eOWqnHRSyDisvx8VlqNQBApwiA2ZsrK4cvP0y6d8tplDMFwoNBawTAjREAs5WyMuKwfNwJ96quOY1yn4rlvUqnLQBAg640+h/GcnwsIO6Wx/F8bDzLLQUA6BMBMK0qE+93ysdhRByEh4tdXcTzYPcslltTWBXVEQLgxgiAaUyZBLsTy3vUYfnfjkPYzeVZOLNY3rOeaEQCAOiH8lx7OT6+E3aE24fTeH5G5CxsMwoA7JkAmE4rDxmvxPIB4+p/a12xdTlB/uKHB4GeEgA3RgBMJ5TdLy4nw178qLXB6cV71ZOIeGpFAgAApfH/IH49j1NzU+XluZJPyn9nsRwfa84HANIIgBmUEsZdZ9Wv3+asfLxIYEtECIAbJACmSlcC5Ret+vV1XE5E/YLAFgCArrsSKL9o1a+vY3bNrwlsAYCqCIABGiQAbowAGAAAAAAArvF/2QUAAAAAAAAAsB8CYAAAAAAAAIBKCIABAAAAAAAAKiEABgAAAAAAAKiEABgAAAAAAACgEgJgAAAAAAAAgEoIgAEatJhPZ9k1VGqWXQAAAAAAAHSRABigeY+zC6jQLLsAAAAAAADoIgEwQPPuZRdQmUdWVgMAAAAAwPUEwAANW8ynTyLik+w6KnEREUfZRQAAAAAAQFe99PPPP2fXADAIo/HkfkR8kF1Hj11ExMFiPn2aXQgAAAAAAHSVABigRaPx5Cgivs6uo4dOF/PpnewiAAAAAACg62wBDdCixXx6EhGvRsRpcil98q7wFwAAAAAA1mMFMECS0XhyJyJmEfFycild9WAxnx5lFwEAAAAAAH0iAAZINhpPXomI+xHxTnYtHXAREXcX8+ksuxAAAAAAAOgjATBAh5Qw+F75GMrK4McRcSz0BQAAAACA3QmAATpuNJ4cRMRh+TiIiDfzqtnaeUScxXLL65mwFwAAAAAAmiEABgAAAAAAAKjE/2UXAAAAAAAAAMB+CIABAAAAAAAAKiEABgAAAAAAAKiEABgAAAAAAACgEgJgAAAAAAAAgEoIgAEAAAAAAAAqIQAGAAAAAAAAqIQAGAAAAAAAAKASAmAAAAAAAACASgiAAQAAAAAAACohAAYAAAAAAACohAAYAAAAAAAAoBICYAAAAAAAAIBKCIABAAAAAAAAKiEABgAAAAAAAKiEABgAAAAAAACgEgJgAAAAAAAAgEoIgAEAAAAAAAAqIQAGAAAAAAAAqIQAGAAAAAAAAKASAmAAAAAAAACASgiAAQAAAAAAACohAAYAAAAAAACohAAYAAAAAAAAoBICYAAAAAAAAIBKCIABAAAAAAAAKiEABgAAAAAAAKiEABgAAAAAAACgEgJgAAAAAAAAgEoIgAEAAAAAAAAqIQAGAAAAAAAAqIQAGAAAAAAAAKASAmAAAAAAAACASgiAAQAAAAAAACohAAYAAAAAAACohAAYAAAAAAAAoBICYAAAAAAAAIBKCIABAAAAAAAAKiEABgAAAAAAAKiEABgAAAAAAACgEgJgAAAAAAAAgEoIgAEAAAAAAAAqIQAGAAAAAAAAqIQAGAAAAAAAAKASAmAAAAAAAACASgiAAQAAAAAAACohAAYAAAAAAACohAAYAAAAAAAAoBICYAAAAAAAAIBKCIABAAAAAAAAKiEABgAAAAAAAKiEABgAAAAAAAD2YDSefDoaT17NroNhe+nnn3/OrgEAAAAAAAB6azSe/DUi/vHCL3+0mE8/y6iHYRMAAwAAAMBAjMaTP6341A+L+fSHVosBgEqMxpNvI2LVPTYi4s+L+fRfbdUD/y+7gKEqg+1vr/vcYj59qeVy6LDRePL3iPj0us95rbCJpl9LrmsADM1oPFnVTbtTh7d7KjVo6v2x5s/2DMXGMl43ZWvILyPirxHxU0S8v5hPv2niZ73g2ntMRHwUEe5f7MTrgFqYR2NdN/1bFt8s5tO/tVUPXBIAAwAAAEBLVoQKr0bEP0bjScQyDP4mlhPG164UKltMvhHL8Ph3Vz5ldREAtGSNVb9/XMyn37dVD/tRmvS+jeVY60XfL+bTP7Zc0lYEwACwgdLVdznJ8kPcMCmzy9eQp0zIvRfP/72+ioivFvPpTyt+/6vl919+zfex/Ddu9XwXr02AXK7DtMnrrZ+uCX5/iuWq+K9G48kbsTwz8HexDIPfi4j3SiC8ib9GhH/XhnjvAayv5mumVb/V+3f8ssHuqjdG48l/F/Pp79ssaBsCYABYw2g8eS+W27O96HJS5v3FfPrVC1/z11hO4qz9NeRZsRLjd+XXPh2NJ7/asnLF17wRy8Hgp9HONpcbv868NgH2x3WYNhmT9lsZF342Gk/ee/HvvKwO+n3ELxoM/xSrVxV9H8ug9xsri5rnvQewvtqvmaPx5B+xDKlXseq3/65dBHLFD61UsSMBMACs57qB64uff3Eget3A9bavIc+1Z/u88PkXw9xtvmbftnmdeW0C7I/rMG0yJq3AbRPYZeeZz6L5cSTr894DWF+V18yyW8e/b/gtVv1WYjGf/nE0nnwZy4a8F322mE8/arumbfxfdgEA0BO33div+/w2X0Oe2wbp76/5a5t8z33w2gTI5TpMm7zeIIf3HsD6qrtmllW/N4W/fxT+1mUxn76/mE9fuuajN/dvATAArGExn362mE9fiuWA83Kbjx9iucXvS9dt83vT10TEb9o+I7ZLRuPJq6Px5N+j8eTnaz5uGlA3ZjGfflP+vf4cy67Sf5X//rn8G/+q03Qxn351y9d800LdG7/OvDYB9sd1mDYZk0IO7z2A9dV0zRyNJ2+MxpP/xeotn78pfyZbPtM5ndsCupyX9/drPvXVYj69dpVNDUuxAeiHy3O7mv6aAfh3LM/Xvc4bo/Hkv4v59PdtFnRpMZ/+K5ZBbqNfs29em8NmDA35XIdpk9db3Ubjye9ixVi5jDtJ4r0HsL6+XzNveGa+5Kzfntt2XmSbOZgMnQqAy4qfN1Z8+r3RePLGYj794wZf8/fRePKnF78GAEj3046fBwpj6NVG48nfY8VZ3aW7HAbL+wM67a+x4v0ZEd6fANCgctbvtxHx6orf4qzfCmw7L7LNHEyWrm0BveoNddPnb/saAKBjykDoV1sqF591ZaAEPWEMDQAAADsqKzv/HaufmZ31W49t50W2mYNJ0akVwIv59Pc3pOffx/J8vRf9MZbdGNd+jQlkAOimsiVKZ7ZFgb4yhgYAAIDdjMaTbyPiTys+bdVvfbaaF9lyDiZFpwLgiGcrgjb5/T/F8h+qMTVsjTUaT/4Uyxdzk36K5fmH/4rlBbFz23eWv4e/xs179+9NX14f6yrnEP01ljfCVTfDdX0TEf9azKerVgA2YjSe/Nzij/s+ln/Or7r4fmA9o/Hk1VheM/4aq7f32LePypknJCjXur/H8t980669r2J5D+zU2WxdG8u4H++fMTS7uOlZoY1/q7LF2p9iszHm9/H8uaPz5255P7ArY1LIMYT33g3zJJ26BpTntKvjhX2tsPopns9RfbOn78mOjJ36qe/XzMV8+ucbznb9a8vzyj/F8zmmTjzvZD837tsu8yJNNs3v877cuQCYXns1lhf3v0bEl6Px5PLXP4vldp6tB2DlpvNlqYkNtDA5/9dY3ji/LP//m4h4v7Kg9I3y8Wl5P/wQyz9jp4Ihfm00nrwXyweNzmzZQbNuerjc0HuxPO/j8v9/tphPP9rD9+0192OgXAcuJ2y3abB50eU46+9Xrrk/xfK625nJatiFMSnk8N7rnhL+/rehb38ZWF19jotYBi+fLebTHxr6uVCF2q6Zi/n0o9F48n1E/CO5lFdjGURffd6pcf6cBgmAacPVC9X7baz4XOOgdl5QBtOfRt7k/GUg/FNE/LkrnU179ruI+La8F74q29/SEWVietW2H1SoXPf+Ec3+m/+9hMs1X9tWcj+G4bmyY0ybXf+XXo1l491lQ0+nVi7BOoxJIYf3Xrct5tMfRuPJ+7FsKm3L1VD4+1jOaQ7qeQ5Wqf2auZhPvxmNJ7+Pm88CznA5fx7hWYc1CICJWE5Ib7UisUzw/C6WF/t1Jnm+LCs+GwmCSz3rXJh/iOdbKOzUybfHVWPZNr2hXW73/f0mr5/ReHK5qnjV9n6vRsS/R+PJvxbzaZv75e/lplkGQJd/xpveD++VDjk36w4YjSf/iPWaH/4Vy267vWxz3/LWMVxxw1kdV/0Uy10sbrxXXHnf/z2W98TrXF7bvo/lfbfqbk33Y6hfGdPtazXvpR9ieZ/9PiJ+eHGStVxvL1f+rrNd9GUYrPGOXjAmhRzee/2wmE+/unJsxL9iOW7YaE7qqrLz3brzmW/E8nkuYod5VKjBUK6ZZY7iN23+zIhfPGfdtivn5bOOnedYSQDMTsqF8IdYXtCfhVhlQPZlrB5AfTkaT97b517pa0z8fh8Rf7N1y6+VUH7VxN3leQNf7ePvrpyn8k35uTetDPvTaDz5X0T8vk9BSan1q/JxOVH5aay+aX9aguA/9unPWYs1Q6pqB1LZZ+qUn3+drR/i1/iZK88rKTZeqXvN+/6me+AbEfG/0XhS7aSB+zHUpbynNzmbdx3fRGkm3ORaUK63l02IV589bttm/rLxrtprL/029DFpRP64lGHy3uuffTZ0lTHBdWOKv8f1539e+rbsXpc2X3XDs/TOjbUrft7lDi+/YlHDcLhmtuPK3Pn7Ec/msb6M1QsO/n7lWWcQuxQkXANb/Xn7tFEAPBpPvo0VD/4G5FxVLjZ/jHgWLl4Xfr2xr4Dvhp8RsZxorn611bbKDWLl312TB5qX18lvSmfTdecqvBrLgcXvm6qhaeV1935EvH/D6/R3EfHf0XjSq7C779Y4Q6iVLesHblVI+FEsH8T36oZrTcQet2i+vAeWyYP/xvUPR9+OxpPqXmPux9czhqa2qnRUAAAgAElEQVTntl1Z/2w1b5nEaEy5rvwt4tnYdtX2kN+OxhO7r9ApxqSQw3uP65QxxUcR8dEtW9y+GsvG3qzXyarx2fexHIPt2+WxcdcxrhoA18w8pVnl92tck/49oGedtq+Bbf+8vfm/7AKoX+nOWxXgXU6Ob610YKyabP5oMZ9aWXmzm7q2Wrlxl0nBv6349O9u6LLplfJeWLWt9WXYTXtW/X3/FBG/MXCty5Xzfq/zr8V8+pt9d0ou5tOfFvPpb6LsenCNL0tdVXA/hsH6VywnSn+/mE9fuvLx+8V8+lHT4e+LFvPpV6WxYlUj0ae1jC2phjEp5PDe40blee6PsdwCdtVzzJfGFQyEa2ayK9ekP8bqa5JnHX5BAEwrylL4lSFw2a9+Y2XifOUKsoF0vOyk/B2tukl/WbaZaKOOZ1tDX6OaG1fp2qo+7O668ve8qvnBSuw6rbpX/ND0eeOL+fRvsewKvE4VZ9a6H0P1Ls/r/tsLIe9Li/n0z4v59LOubX1Vru2rxriflu36IZUxKeTw3mMTVxp7b2oua2XuDDK4ZnbLYj79vlyTVj1/edbhGQEwrSmTQqvOANg29Lpp62KTzWsqK1NXDWS/bXGF2qqA5KZVyr1Twu5Vf98eGtqx6u/5IwPXaq06F3JvZ0jdYtX9b1VdfeN+DJW6spr3/bZX8+6qjHFXjS813dEFxqSQw3uPjZXmslXjilXHT0ANXDO76aaVwK5JRIQAmPat3A5iy265VRPnvZqc6oIykF3VOfTvcs4A+yMAzrXq73mvWwDTDTfdX8qq/Mbd9HMq6RZ3Pwa6alUTSi0NOPSbMSnk8N5jWzft6LaqKRb6zjWzg66cWX6dNyqZa2JHAmBa1UBX0KqVqW5A21nVOdTW+bSrVmI4RwKg29yPgU66adWySREAYBNld8NVYwvNZUCrbjl72TbQCICB50pA/8cVn/7daDz5tqmfXc6BXrXKWAAMAAAAQLZVuzu1dXwaAKxFAEyrGthGeNWgS9fdlko3459XfPpPo/Fk72cIjMaTv8bq1b+fLebTNlaQtb3FtS21u6m1f5cWz9Zm9Zko7I/7MQDsjzEp5PDeYx2rjk/zb8rQuGZCxwmAiWh3cvam8zC2CflWrQx9z41he+WsyvdXfPq90XiyKqzdWAl//7Hi0/9azKerzjLYt7bPatnb3yFbWbVlU5v/Ls4HaklpIrn2HrPP69nAuR8DwOaMSSGH9x7A+lwzoac2DYBXre4wgdpv77Vx/lWZAP50xae/2uZ84HKm16rg+N8NrDgejHKGwGcrPv3paDzZ+cZbVhPfFP6uWom87c+76fXwahOrm1fU0dhW2qxt1Wv7jTbuZ+Wa677ZrlXNJJ8KKHfnfnwrY2gArmNMCjm896hVU/O7KxcPlYUdTRD4dYdrJrdqI19aw97PPb7lGtfEz7vp73HjBZQbBcCL+fSzWL2N4qcd+UfmerfdNL9t8t9vNJ68ERH/XfHpn2L1xPw6/hzXvy5fjYj/lZ/dZyv/XRocZEVERFl9u6rL68ttf/5oPHlvNJ78HKtflx/tO/wtbhssvNd0ODsaT/4dtwzIhVHNKytCbwoEmzzv+q8Rcdv3/7SlwCzt+nLLPWfvP/uWnQ3+W8G9ogtqvx9vzRgaGJq27/N9ZUz6C2njUobHe48ddfmIob/v+9miLAC5aV75y32/XssCDXNjHeGayZr+0YF/h70u8ih/npsWjDWxqGTVz/uhzG1uZJstoP94w+e+bWsFXd/d9I+1786Z8v3WeWD6djSerFqNucvP/0dE/PuG3/LHbVb/Xipf+/tYPQD792g86eXqo9F48mncHBb+o+lJ48V8+rdYfb7JPzaZ0B+NJ38vwe+q68T3EfGbMlG+V+XatM5760+j8eTnfaxwfvHnlz/7On9fex84ldf/qj//xjePGpTX2aoB7OXrYJ/bnb9aGgDWvc7+t8nrVub1pQyObvp7eKOJB4iys8GqcUxv7xW3uWUHjlVNPhur+X68J8bQlbnlHrHN0SbPtPmsQPPaug53Rfnz3nQfb+Q+f+Xn92rcO/Qxaakp/bm3b6+bXTR5/+oT772lW8agW732ax/HlDDs2vt3uZ41ao2fsbdni/J9bvtelw2/OzfrXHmf3Dgn19Lf82DuC+twzWQNrTT/r/E6+++erkd/ioj/xe1nXe/r570xGk/+F6ubX/62zfd96eeff96mmFdjuZrzpj/8N7FcxbcqOOqN8qK69saymE9fauL7xnLQ/eddgtHyZvs2rv93+qF8rHqI+j4i3i+Dmm1/9pdxc9j1Q+wY/l7zc7+Nmx8cf4qIz/YZMDbx+igXmH/E7ReYSzu/Xm6p57b3/O+ve69f2aLjtof1rxbz6aqVeTu55X32QyxXBN40AfWvWF7LNn4vlD//bV2LX8Xqge37JbDayejmc5b/f3v3dhWp0gZg+Ju9/gQcMnBfEICG4ISgGaAhaAgagpLBGIIdgh0AF7szYDqE+S/qQ+nqguZQBQX9Pmu59h4PdAF1PoqYdDi6oa/363yWY/LK0NrCXbMT8z56V/I1Dj5Kc/qpts4NVh5Y4Zktf9G85Fn6beXkJR04wnIvzQ3ZvZh07/VzdRKIy68hcavjZ7bdp4iZdOO97FhLeewbdehvU72TQPW0CzHlRlM9910n0I0Suq1gfdYiy/Cu5sh/a589Sz7che/0UZsh36cDxGs5P1W9N4Rzq5NqmKJo98YYb5Zafi2xPDnHtKfhqibrNPVXvOiucEOvP1k9Zi46OOpq24Z6Z6fSsMu7mLjbOSz6Ob+luT23ExOfm+L0U992Xsd+ZFuweEQ/WrNzzTNj1tLW6Z0WO3xWl/cvYvp8HvS4MJ+f35TvNhmSH52Kg74/71ZM/tf2eYPznEEDwJWeD3yrX0vrzLqSlgbs2MxYZyydmrXQOLOsilBaOF/p1720Dzh9na3aoUPCDsNWRLZVJmp97q10L6iDdOhrmNoGvl3Gxs0baa4U9akst8a1mr2039tezLvyndYupTm9V4Vqn4xxL2bw03eBfCHmOZ7afuHgjOEOgxWVvZj4YldiLuU7LXTxVSE50TCqtJ2v6XIp5jmceifeOj6XWHGtG1CJ2Ih5J/U4fCEmHnWNB1/Pv0MDQ/Szqs/tY878pWua7KKxPByh67MZW1Y0lZFz3dNeTAUyWL0spvI4tjyIOnS/d6IdlENn1Pqqp3XN3w/qF2ONbSv00FbPG3NUSwzaGu9vEiZtTZYPR5A+LvUap8r5U3UMkeFxefJ6b0grr5OKxNPuDR5vIkifIhOXX0tuE55B2qvC16VtNmrwtzJhPWZubXWNsffXJU69yfe7PaXqz6rH2z79WS9lkT9pf/CndGvnb+S4D636vC5/fycmbbb12e3EPOcxfYz0o/VwJnnmErTlP3MOANt2Yt7FkHrbqbrjRswzOBWPmuLDlZh4eCrtf7XfOo4jNI0h9Mn/tmWRt+0md9KoAeDKgAS/Fr4qRFfSvkWyT3eumRcdB6B8CDbwaxs4eyxm9QHDc01zPuzFPMejwn/gqoW+nDPRBgyUBAnHGEuuuNb1mBgzRmNeOFP6njt/qTci+85oRn/Bdl1wiaE8jjUPOuPyvFcdekQjc2qhdiyYsq2AaXjLhxeSPh7KIn+bob5bWeRKkDOtk4rMXy89CsfQCywkfYp4LL/W0CY847Qn0tJfMhT1mOC+4lLgcnYjpk95yr6sg/rShH3XTehHczjzPDN2Uw8AP0j4uGD76lsInB8dxcHAn+ctv/EyAFxJvs82Cjl4EgvvHTwaaX6L/0Pud2IK6ZMVOH2Hr9JtJWRXT2IK7dka3D22Io5R43YtI7ckODe9tr3R9HjqLKqutmIK3ZMzBCcYKHnTsITYImfxFVebprFTuyp0sReRF+mRF3bcAmSsOfOXxm2WJ5qMcW68b7k8xFzlcex5EHXodpF3oO/F1LODryoM2FbANILkwxGnj8at/wK1OV2C1XundgZ1UpF42r3e4k3E6VMkUPm1tjbhmaQ9kYbBPZ+ox3jXNiBWnV079jzWnZj88OQKZo9t+JPHsM0wEEw/WkdnlGcugdedqSpd4qxOCniWsO+iMV0mw46fc+k0ljBHntuH1wFgF0189WXNSy3oq+XabyG3S6xoxKk/u75nILyLh0FXraDdSrftGKpl9BsxZ8dE29DW51ttVVb9N4a4WT2/Td8Zl3pP99JvG4E1qs63HvQcm9TiTFN+Vm3rsNP/ekkDWmgOyQeq8FRhCb7dydoqri7aYVnFg2qbpHqFpop/1Xb53gptLU/r+VZfc+YvX89EBpRNWhZV2+DZzxzH6s/7fYp6y1BTlcdLzIOoQ3+LqAN9K4dpa87JjWPaCghvsnw4kvQxKm3oPVRl/JA6zuT13rktvE4qEke7N3i8iSR9ikxYfq29TbiCtFeP95u5tsWnHtNbva+1d53C0Z9lx9t6X5aXfjTrHbvibP2Ym8F1pdpW+z76CuhH82wFeebS7MQMjAZbiNc3ztbygupdDMnv6+VW7zhixUO7zKmn+yo/GjueVj9uwdW+8Z7ntgk+AAysXdvMszUU1gAALAHlMQAAAAAAQBgtA8C7ssj/nTo8OO2fuQMArEDTLKJZZlICAHCmKI8BAAAAAADCaOp3iXbnuXPHADAwQm0bFRc6nAEAmADlMQAAAAAAQBi6lXLTObdez62FPwwAA+N8Nnx/Xxb5y6QhAQDgfFEeAwAAAAAAhOE8+1fM9s9vk4YEnf1v7gAAS6Qrjf6Tw4Pr6+4mDA4AAGeJ8hgAAAAAACCMJM2upHnSvYjIr6nCgv4YAAZ60I7mDxG5avm167LItxMFCQBaJWn2KiL3jh+9lEX+1PNv3soif/AZPmAIymMAAJaHeikwnyHpDwBwvnTg97eIXLb82r9lkXP+b8R+/P37d+4wAFHT/e1fpflswcqmLHJmvACIRpJmn9I+QLYti/x67N8AU6A8BgBguaiXAvMhLQEAukjS7EbMOb+n+l0oNxaCFcCA0lktN2IqxTfSvJ2kbSsiv8oi34cKGwAMdCofc/18yN8A3lAeAwCwStRLgfmQlgAAX0b0u+zF9Luw29pCMACMVUrSbIql7WyTAyB219K8Ta5ztl5Z5P+2zBDfCmd7oAfKYwAAoKiXAvPpnf4AAOukR2q1nenrshGROybcLw9bQGOVAnU478R0Mr8FuDYAAKtDeQwAAAAAABCPJM1uxZzv22QvIi8i8sag77KxAhg4tq19vZPJAQAwC8pjAAAAAAAAj8oif0/S7EXMeb+b6outndeHFcAAAAAAAAAAAAAAsBL/zB0AAAAAAAAAAAAAAIAfDAADAAAAAAAAAAAAwEowAAwAAAAAAAAAAAAAK8EAMAAAAAAAAAAAAACsBAPAAAAAAAAAAAAAALASDAADAAAAAAAAAAAAwEowAAwAAAAAAAAAAAAAK8EAMAAAAAAAAAAAAACsBAPAAAAAAAAAAAAAALAS/5s7AMCUkjS7FJEbEbkUkSv99qV+iYjs9GsvIlv9/01Z5PuJgwoAAIAzlqTZvYi81r61F5Hrssh3MwUJHfHuEFKSZrdi2rJXYtq2dVUbdisi78Q5AEtFWQoAwHg//v79G/QDkjS7EpFPx4/2ZZH/DPrhOGtJmt2IyKMcN4rH2IvIi4i8jR0UTtLsQ6ywlUX+Y8w1EY+Y3q9OfPgt35MeTiIujueKAzN7Kov8Ze5ANIkpzQDA3LQe++H6GXlj3Hh38C1Jswsxdfkx9coo64FJmh11SK09ndA2A06jLI0f/R3LRx/MOvFeYQu6AlgbKs4CW0QukjT7KIv8V8gwxI5E6ZfOhn4VkYsOv74VM6C7qX2vWg181XCNCxF5FpHnJM1ERF7KIn8aE2YgpCTNPqVH5wIAAJhfWeSbJM02ctyxRr3Tk1DtMN4dfGrpYH/Xr4PdqnTQ5Fa/6u3Z5yTNnkXkrizy94BBRgvaZlgbylIAAOIWegvoTzlsdFTbdFTb7d4kafZaFvlD4HBg5ZI0exWR+4Yfj161qw3pV/mOu5XHJM0e9drEY0QlSTPXzHLi6kTGTnA6xxURAIBv5z5Rdsl4d/ChYbDwuizybdPflEW+ETPB+UGv8VvMYHDld5JmD2WRv/kOL9rRNgP6oSyNG/0dALAMwQaAdUDOHiyrCof/at+7T9JsxzYNGKJtWxjxuP2HNqT/1c+80s+sT2641/NJmFGNmNxa/97QwQAAAADErXbOb13r4K9LWeR3uvL3sfbtRxFhAHh6tM0AAAAwqX9CXFRXRNqrMe/KIt+VRb4TkTvrZ886kAd0ppMMXIO/T2WR/wg1qaAs8q2eX30tZnVx3W8NFwAAAAAAQ9iT6aXv4G/Nxvr30bUBAAAArI/3AWCdqfpsffulvipS/98enPtI0oyGCDpp2PJ5LyI/p1pNXhsIrq/4fZPjuA0AAAAAQFdHu0rpjlNDPFr/ZvUvAAAAcAa8bgGtA7i/rW9vyiJ/sn+3LPIn3Uq3vvL3Q3SbXQ9hsc8S2Pg6PyJJsw85DHfrOQW6ItoeFG+7/tE5CA0GbXGsDcd7Od5S6pSdmMbi4LN0fWhYYb4ri9xL3OmrLHJ7RfusYni/MaW/jte8EPPMHuVwa+9T3sRMcNmd/M0A+uYtYs5d75K/9H5fkcS7k3FDy51n+/cse53ccTY0DdyKSQN9JmPtxXRQzpYO2sR6XyPCJRIo34khDWs47HR8lB9p3tc1v96KqS/Zq59cn93nuhsx7+HkdVs+75zuNdp6Qcf3cCnmeXUdfNmJeWajBllC1Hn0utHkQboL1L0cb43qJRxztcNCvTu99uz5dczpxgrD0PglYuoCLzJT27cs8l2SZg8iUt9d6lWPz+qUHzccXbS6bYdjiY+0zZzhmKR9dk51qoYwUJb2EHH6iLIsXQv6BobR/OVR2vPoOi/1p6Wmj1jylxBivjcNm9c05IiDp8qsSzk89rby0/d96/3aO9A21hd9nwFsb8e7b6uolkX+K0mzP/JdUbpM0uzDV4cQvjnO/RniUkyl7zlJMxFTKf41ZcakiclV8TzrOLOW9zu1AY10272Y859FTIXwYc3Py7akeNewa0CTodvrLYo2NJ6l+bnsxTyLrXxvd38j5p1Vlapq8sR9LPlGrPfVIVxd1cO113ANirMLS8OuTuwursTsMiMisi2L/NrTdW/EdNyKmIaMt870c7rX2PUsO+ouxQzUvIpp8N6N2LrVi5jyIN0x6lXa42I9j67nz65wrD5eLiy/nj3djAhDXZVmnueq65dF/pak2U4O+1k+kjR7b5uE3NLGeTi3QYEY4uNUlpRPiEzTPltznYqytJ+Vp4+6xeVdIdE3MIyG70P6D/SJHNefvNc9YksfS8tf+oj53hoGQfvyVg7q5M1fcjw++imeFryKfI2N2ffdOgb74+/frhOzTn740cwsEbk+lZC04vRpfXt0xSPmlQahrtVw/aZMcSdm5sLR1lIN16kil2vGz15E/p0iU2pozA5aCT03H+8+1vcbe/o7UUi8i3l2J2fQNcyEe9EdDoKmbf18VyOuzi50tiJytCODw74t74443rnKIVfh+yYmTnYK51xcM6c9rh5yPaudmMp55xnpWob/luN4OGSlgo+0Hd196fV+i3tGfufZsRqmasal6zqdG3uxpmG95tFMX/1v9b2T71Pz5mdpbrDelUX+nqTZZ+139mLuvbFx2mH286+e8eyc7jXaekHDe3iXw3rCybpBbZJi0+qbWfJFvU4UeZDGq6MJw2LqTp3r8i2DW//2WQERsq7m8d1FmV/Hmm6S5pn3bxqWTveYNO8OtBfTxzH5ridWPl756lRtSRdRDwD4qO/GEh9pmzmvOUn77MzqVJSl/a6xpPQRRVk6lZD9HXp9+gZOh8X1jJ7kMG/o1Od+Ig9dTV3TunaU+csZ5J23crwDcT18nVZ5t9T3m/r1u6aFXqtz+9Aw/yfHk79ay24vA8ANswE6z/BoeDCjZojE3NEU6lrWdV0D6yJ+BtebBs+CD8Q2NSD6FN6xGPPuY3+/Mae/hjg0eqac9dzsBmfvcPrg+z0sIN653m0litlzfYRoEDV0GPiYwXopJm7YnaSdK3Mj88Qo76shXCLjZ/w3NUJfSsexG9bfRZuG9TpN6XgnptPdR8ejiHmPFzK80dHUcD85+bFD2NZ4r0urF1QGtUda0kPfwayx9xZVHqR/Wz0bH3Uv17vr3HEdc6d17Pl1rOlmbJxoue6rmEG4LoN1wSTdVx326pybU6AB4LpZ83HrmmfVNtPrTNI+O6c6lV6HsvT03y49fUSTd4USagCYvoEvXerlbXGwV75Uu2bT6uHR/UM1c7fRos5f1px3tgxMjx6Tsq79Liat9x4A1mu5JlmdTJMdruuaEHpyXOyfMR+qH1yNlNe99UmI+rv2779q5oie9LnZiXUvZs/x0Vu6lEX+phmHHbmeNYKHdBQnljj4O8bK329Qmpnbcei9LPKfYxpNIkfP7cbxOYu28Hj3UBZ574b/2jQ0OJ58PJuyyHelOZer3lFwIe6Ko1ex3lfL7PzRaaYs8m1pzr2/02velUX+48Tg75LT8KYs8kE7jWhDzvVcLvS6g85jKc3Wm67rjjlWQOS87jVmVdoYNBlV/+6nfG8lV7mZqi4VWx5U+9s3/V0fdS9XR83i4+WC8+sY0o1d/96MHfzVsD1EMPh7IafPGb3W9PXvEgZ/A4shPgaz4HyiMkX7bLV1KsrSdgtPH6vOu0Kjb6BfvbzBTv9+UN5SFvm+NNvm2wNlFzJ+u97Z08fC85dWsd+bLkC1B393Gr7RCxL1Hqv4cSsj+vU1PHY8fdRx1EF0TMMe/H3qMi42agBYZwXYiXc7JFLo39iZy4c2dNCPvQx+P7SC2kYriq5EO+SMAHTH+x0gMVtE2BntW9lyftYQDc9tDZYa7zpt/XEm7HfYa5uwjuz0dDlBQzPW+zpKM+L5uISyyKsJLF06eZeahkW6bY/YSOODawBgbGPbdd2xk3/O6V5jNnpFkv69q44x1XOLLQ8Kxc5vmrZ3W5Kl5tcxpBv7fm60DbBISZpdJGn2qquk/shh/K7OLaz71M6hPp9xk6TZ3/rXyGDHIob4GNJS8wmR6dpn1Km6W1tZuuT0sfa8KzT6BsbXy72cBa4D0Pb9jc1bYkgfS85fTon23vRndjrbDZ3o1RK2vXg6r7dhrHPQglfNY1xjGp3yt8EDwLUl/bYxW0q4/jb46qE10QhhD5qHnK3sKhhCzhY8Glg7p5XiZ/B+Q3JuERHos2ZdIeDbwuPd4s4HD6HhHXp/NjpL1K7gBMujY72vpjQTeJVDo4Wn4er5j3XUgedjVZjrumOc073GzNN7mG2XmtjyIHS35Pw6hnSjHUp2XvVbBzY/ljIYnKTZVZJmf8QM+tbbMDsxnZ/Vyr9rMSsV6s/+Xu+363u0O9uiPCu4rxjiYyhLzifUJO0z6lTnaenpY815V2j0DfjhOe54rVPMnT6Wnr+0WcC9udJYkPBp2vRyba2r22X+h24p30nyfb523abPAtz/df1FB3vfe5GRMzHKIt8nafZLDgeWL5M0+ygjO6sgYq4tkoPNriyLfJekWbXlbWMYPLI/q/q8c6ncrP39huTaEi5Ihass8m2SZls57lBZqsXGu1gr1TNwPb8/SZrN9dkhrx3DfU2aZjpYbBoGMEhsedARbfRWu7N0bgCfAfLrkcoi/7fhPLwbMSuCXX+2EdNJuZWAbYQuGs68azx3TcN6nRyfD/yonXmnzsmzB8XPfevoJVh0PkH7zB/KUqdFpw+MQt8AQltz/hL7vbnCF7LO6nPywrWYSZ11H9JhpbGW80fbx/cdJx00AKzbCtmVi42IXHlain4UAZI0ey5nPncHUXiX41kPj0mavXmaiQn4QsMWAABA1XaQcrUX92Lq+Vsx23k1Tu7U9uaFmPboo9DpDYuuEPnqVNGVvzf65Yov1c+q36//7E0mWqmTpNl/chi+vZhzfU+2c/WefzrOGXzV1cC/7JUz+lwO0mOArTIBeERZCgDAcuiC12s53OW464JX1+7L133D0HsAuGHPaRGr0RTAY5JmO2bJnHS0QjZJs5vA238crawM9UE6Q+RJjgeBO82cWIFVv9/A7BW5oWdlrmnWJ/Fu+bZiPdOyyH/MFBafYr2vOdJMbOEhDQPziS0PEh2Ass9t2sqAHaTqg1g6gLWmTmvy6wB0hYBzlYAOplzJd3+GPahyL2Zb5b04BlF90X4WOy7f9Z3krHHlR5Jm9yJSnQd8IeZ84K8BZb1v+7xgJtwvA/nEmaIs7YT0cb7oG0Boa85fYr+3qcPndUdP3Sn0Tg7PWb5J0uy1aZefJM3s3YxETHnfewFkrzOAtVJgD7xV+2JXXxuPX7ZBByUre7vqMWKuGLmeW7CzjhoOug9aiOmsZHsiwGWSZn+0ITupJM1e9Zylv/r/IcOw1PcbQ/o76vTRjhHvGp7bki013uGb6/z0NcTTWO/L1Tk857mDpGHEJoZ6wZpFlQdpfcvOFx7KIr9mK9Aj5NcTK4t8Xxb5pizyJ42TP7TD2J6RXw2ihnofrq3txpyH/Kb3UW83X4jIf0mafYrIf3KYF7+z+ncxyCfOEGVpZ6SP80XfAEJbc/4S+725JnIGOQ9Zec87dEKqPdny3jU2oRO+7Of/NLRt0HkAWPec/u340a+yyF9qX798fYl7SfNHxwE2O4O98tFY05cSbUeTzuKzB0fvQxR6DYdQb6doOOrsCPs+L8Sc7zBJAZ+k2WWSZn/kcEX8vQTMgBb0fmNMf67dA177HLzeRcNzW7QFxTs00EqCXWF69h3/pxbrfWm4pkozJ2cmkoYRgRjrBasVWx4kjs4DH7s66WevaccV8uuIaDpy7TAVZAKpiBzN5h8x+f1LWeQPOhBcry9VW79WNmWR3439LEyDfOJsUZZ2QIKBJc0AAAf0SURBVPo4X/QNdK6XY6A15y+x35uuerUHT6+SNHNtkTwmbBd6JEuQxX0NixoPFrw2TPh6G/Pu+6wAdj3Qh1BbIIl8RT7XMuhPx/dsrorQ7zEr/jTS29skRUcHR+0ZAc8+E4WeA21fb1cWee99yIfS+3Q1VJ91NW6QgWAd+HXNmhYxszGcS/d9Wcj7jS796axY17v5z9dKYJ2hUz23Vc3CXUi8Qwvt2LM7F73F/0ptV4RJJkLEel+aZuw60rNu4+IjPFc6CelTw/XZ1uAjDWNm0dUL1i6yPOiovTi2My75PgNxdcivh0vS7FHvzRdXfT5UHb8pn/TVAeXKEyrO7bERL/KJs0RZ2hHp43zRN9CtbwDDrTl/if3edADUHgS+0Tg/eiKT9i/8ETPBPNhEnobn/KHjTZdy3MexGTvW1GkAWF+0XbF48jHb7BT9DPuhX57KJPXvXGfYvCZmq+DOESNJs1vNSKuMvfde21PTFdRNiaLrKuoDOgviNUmzv3I88/mtLPLJz+Ati/zdsbVVpRoIrrZmHlw5TtLsRp/bXzEDv3ZBuhWRn1PN9Iv9/caa/jRcrgPWq8rboEkDSZo963Or/v5JAhYWc4k93uE0fZ6u2WZ/Rw7EXCRp9tt6j4/a8Ai+NX+s96WVWDsvuNVwDerUreWJn3I4CelCTuSPpGHMJdZ6wdpFlAe56umD8hwNw72YxvlFw7UXj/y6n+R7tv6zmNUKozs/9Rn/5/hRyJUXrm2n/+i99G7L6nN51Hf+R5rPM6vyYjqLF4R84uxQlvZA+jhf9A2ISIe+AQy35vwl9nvTcZdrOZ6Q+VFLS53rzDre86lhq/oXHsoid/VdeKPP2U6jn3K86HWvvzvK/079QmJms9idMpOeD1MW+ZO+vPqWJ7dJmj23vZCyyF+SNNvI8cO7EBMxqn+7zhy+leMG0qYs8l+Je0B8qKND6jXSdfF0Ynn8S5Jmb2JmVtTv5UZMQ7L697uG42h7Pv26keal71sx24DPutpRZ0I8aGH+LMfhvRfTGWD/qWvv9Avpftj3u5iMYfL7j/39xpr+dPuVH4mZdWQXPM/J9wy+nZhnt5PDTPlSv24d4fh6XkMHk2MXe7zDaWWRPyRp9iTH7/A1+V41s5XaO6y/Cx2ouRTzDpve417MOwy2S4gt1vvSOsyLI1y3Yuoy1b+rcO3kuzLblt8MChNpGHOJtV6wdjHkQWWR75I0+yWHs70vxeQ5OxF5aZtYrB0Nt2Im2tXDUTWGh3bmBWuH+UB+3Z3Wva/l8FldiVkJU/1aVbffillpcPC8tB5QPa+mSSnXgXdA2yRp9lOO3/mVmBVM1b+3YvJJ+71diAl7W1u23l650s+6kO8zjlcRJ84F+cT5oCztj/RxvugbmK4f5lytOX+J/d40fv9MzJFSr9Zn2Gmpj7fQu7paruVwd1nXs/Ky6rt1ADhx7zm9K2c4H6Ys8jud1VvP5B6TNNu1VXI0UvzQzPu3uB9mWyNPxMwcegqR4DTz30mgLew0zNciZmaQmMFRu6C4lX4He+/FDHpGt1WUxoU3ka/4ey/tDeAhWwS8ialczz6bKvb3G3P6q00aeBSTz9lhu5Tuh76/hJ4dFJPY4x1Os96hKw1UFTbR3+ly2b2YtDDb6vdY76tDuET6p5kXDdeQCjNpGLOIuV6wZjHkQbUJeI9yeObTpRx2xp2yF5E7vd6oM1JDt8N8IL/ursOzOqjb9+gYOohzoXVMrwf1mQ42YtLrwT3UOtDu5TsdXInp3Ju6EwwDkU+cD8rS/kgf54u+AYS25vxlCfem13nXMN6ISUt9yrO9/v0sfQu1CayuHYdETDntZezpx9+/XSdmrYfOfKsGBq/kMAJvRGcBrX3GjM74rWYIV7OF66rZRlsxqywW/zxqM7ure67+W7erfVX3Pvtgb1+xvt+Y05+GrR5H7PhRzWzaiZkZROXKEmu8Q3e1d1jN1qt3MO7l+x3uZEHvMNb7cqSZer6zqf13N0UjgDSMqcVcLzgHc+ZBtR2eXPnNVkzePFn+tzTk19056viuHZ/q8X071YBvH7V33rRj1VcbNsbwY3rkE+tHWToc6eN80TeA0Nacv6z53io66G0fP/srRP3aMalLxPMOGWc5AAwAAAAAAAAAAAAAIiKJOVu7viBsVwY4h9nahafifReek2cAAwAAAAAAAAAAAMDUdFefastk7+dd6/U/5Xi32F8+P0c/60aOB3+3IY5gYQUwAAAAAAAAAAAAgKjokQf2ebl78TQQnKTZq5ijqWzXAQaaXds+78si/+nzcyoMAAMAAAAAAAAAAACIUstA7V5EXkTkvSzyXYfrXOh1HuV4xa/ode56hOtSRC4bfnwp5szk24bP2pZFft31s/piABgAAAAAAAAAAABA1PT83GdxD6iOMegM3oZVvafsROTO9wpjG2cAAwAAAAAAAAAAAIhaWeRvIvIm8rX69l7MCtumVbhNdnqdt7LI914DeWirn7URs7o45GcdYAUwAAAAAAAAAAAAAKzEP3MHAAAAAAAAAAAAAADgBwPAAAAAAAAAAAAAALASDAADAAAAAAAAAAAAwEowAAwAAAAAAAAAAAAAK8EAMAAAAAAAAAAAAACsBAPAAAAAAAAAAAAAALASDAADAAAAAAAAAAAAwEowAAwAAAAAAAAAAAAAK8EAMAAAAAAAAAAAAACsBAPAAAAAAAAAAAAAALAS/wdwIkaOv7FeiwAAAABJRU5ErkJggg==;" vertex="1" parent="1">
          <mxGeometry x="36.730000000000004" y="205.85000000000002" width="146.54" height="56.1" as="geometry" />
        </mxCell>
        <mxCell id="rvgHuQoIqtjPsj6YoDYo-6" value="" style="rounded=1;whiteSpace=wrap;html=1;fillColor=#d5e8d4;strokeColor=#82b366;fontSize=15;" vertex="1" parent="1">
          <mxGeometry x="535" y="159.88" width="180" height="121.95" as="geometry" />
        </mxCell>
        <mxCell id="rvgHuQoIqtjPsj6YoDYo-4" value="" style="shape=image;verticalLabelPosition=bottom;labelBackgroundColor=default;verticalAlign=top;aspect=fixed;imageAspect=0;image=data:image/svg+xml,PHN2ZyB4bWxucz0iaHR0cDovL3d3dy53My5vcmcvMjAwMC9zdmciIGZpbGw9Im5vbmUiIHZpZXdCb3g9IjAgMCA0OTIgMzI4IiBoZWlnaHQ9IjMyOCIgd2lkdGg9IjQ5MiI+JiN4YTs8cGF0aCBmaWxsPSIjMzMzMzMzIiBkPSJNMTc1LjY3IDMyMi4zOUgxODEuMlYzMjMuNzRIMTc0LjIxVjMxMC41N0gxNzUuNjdWMzIyLjM5WiIvPiYjeGE7PHBhdGggZmlsbD0iIzMzMzMzMyIgZD0iTTE4Ny4wMiAzMTMuNzVDMTg5LjM4IDMxMy43NSAxOTIuMTcgMzE1LjMyIDE5Mi4xNyAzMTguNzdDMTkyLjE3IDMyMi4yMiAxODkuNTcgMzIzLjkyIDE4Ni45OCAzMjMuOTJDMTg0LjM5IDMyMy45MiAxODEuOTggMzIyLjMzIDE4MS45OCAzMTguODhDMTgxLjk4IDMxNS40MyAxODQuNjIgMzEzLjc1IDE4Ny4wMiAzMTMuNzVaTTE4Ny4wNiAzMjIuNjNDMTg5LjAxIDMyMi42MyAxOTAuNyAzMjEuNDEgMTkwLjcgMzE4LjlDMTkwLjcgMzE2LjM5IDE4OC45IDMxNS4wNCAxODcuMDYgMzE1LjA0QzE4NS4zNSAzMTUuMDQgMTgzLjQ2IDMxNi4xOCAxODMuNDYgMzE4Ljc5QzE4My40NiAzMjEuNCAxODUuMTUgMzIyLjYzIDE4Ny4wNiAzMjIuNjNaIi8+JiN4YTs8cGF0aCBmaWxsPSIjMzMzMzMzIiBkPSJNMjAyLjM5IDMxMy45NkgyMDMuOFYzMjMuNTlDMjAzLjggMzI2LjIzIDIwMS41MyAzMjcuODQgMTk4LjgyIDMyNy44NEMxOTcuNCAzMjcuODQgMTk1LjU4IDMyNy40MSAxOTQuNTMgMzI2LjU5TDE5NC44MSAzMjUuMjZDMTk2LjAxIDMyNi4xMiAxOTcuNjYgMzI2LjU1IDE5OC44OCAzMjYuNTVDMjAwLjc1IDMyNi41NSAyMDIuNCAzMjUuNSAyMDIuNCAzMjMuNjVWMzIxLjY1QzIwMS41NiAzMjMuMDcgMjAwLjMyIDMyMy43NSAxOTguNjMgMzIzLjc1QzE5NS45OSAzMjMuNzUgMTkzLjg5IDMyMi4wMyAxOTMuODkgMzE4LjhDMTkzLjg5IDMxNS41NyAxOTUuOTkgMzEzLjc2IDE5OC42MyAzMTMuNzZDMjAwLjMgMzEzLjc2IDIwMS41NyAzMTQuNTUgMjAyLjQgMzE1Ljk1VjMxMy45NkgyMDIuMzlaTTIwMi4zOSAzMTguODVDMjAyLjA3IDMxNi43NSAyMDAuNTUgMzE1LjA1IDE5OC42NCAzMTUuMDVDMTk2LjczIDMxNS4wNSAxOTUuMzQgMzE2LjEyIDE5NS4zNCAzMTguNzhDMTk1LjM0IDMyMS4xOCAxOTYuNzYgMzIyLjQ1IDE5OC42NCAzMjIuNDVDMjAwLjcgMzIyLjQ1IDIwMS45OSAzMjEuMDEgMjAyLjM5IDMxOC44NVoiLz4mI3hhOzxwYXRoIGZpbGw9IiMzMzMzMzMiIGQ9Ik0yMTEuMjQgMzEzLjc1QzIxMy42IDMxMy43NSAyMTYuMzkgMzE1LjMyIDIxNi4zOSAzMTguNzdDMjE2LjM5IDMyMi4yMiAyMTMuNzkgMzIzLjkyIDIxMS4yIDMyMy45MkMyMDguNjEgMzIzLjkyIDIwNi4yIDMyMi4zMyAyMDYuMiAzMTguODhDMjA2LjIgMzE1LjQzIDIwOC44NCAzMTMuNzUgMjExLjI0IDMxMy43NVpNMjExLjI4IDMyMi42M0MyMTMuMjMgMzIyLjYzIDIxNC45MSAzMjEuNDEgMjE0LjkxIDMxOC45QzIxNC45MSAzMTYuMzkgMjEzLjExIDMxNS4wNCAyMTEuMjggMzE1LjA0QzIwOS41NyAzMTUuMDQgMjA3LjY4IDMxNi4xOCAyMDcuNjggMzE4Ljc5QzIwNy42OCAzMjEuNCAyMDkuMzcgMzIyLjYzIDIxMS4yOCAzMjIuNjNaIi8+JiN4YTs8cGF0aCBmaWxsPSIjMzMzMzMzIiBkPSJNMjI3LjQ2IDMxMC41N0MyMjUuNDcgMzEyLjk1IDIyNC40MiAzMTYuMzIgMjI0LjQyIDMxOC45NUMyMjQuNDIgMzIxLjU4IDIyNS40MyAzMjQuOTggMjI3LjM2IDMyNy4zNEgyMjUuNzFDMjIzLjg3IDMyNS4wNyAyMjIuOTQgMzIyLjA3IDIyMi45NCAzMTkuMDJDMjIyLjk0IDMxNS45NyAyMjMuOSAzMTIuOTEgMjI1Ljg0IDMxMC41N0gyMjcuNDVIMjI3LjQ2WiIvPiYjeGE7PHBhdGggZmlsbD0iIzMzMzMzMyIgZD0iTTIzNi42MiAzMTEuOTJIMjMwLjg5VjMxNi40NUgyMzUuOFYzMTcuOEgyMzAuODlWMzIyLjM5SDIzNi42MlYzMjMuNzRIMjI5LjQyVjMxMC41N0gyMzYuNjJWMzExLjkyWiIvPiYjeGE7PHBhdGggZmlsbD0iIzMzMzMzMyIgZD0iTTI0Ny41NyAzMTcuNjVWMzIzLjc0SDI0Ni4xNlYzMTcuODRDMjQ2LjE2IDMxNS44OSAyNDUuMjYgMzE1LjA3IDI0NC4wMiAzMTUuMDdDMjQyLjM1IDMxNS4wNyAyNDEuMjggMzE2LjE4IDI0MC40IDMxOC40MlYzMjMuNzRIMjM4Ljk5VjMxMy45NkgyNDAuNFYzMTYuMjZDMjQxLjQxIDMxNC41NCAyNDIuNjkgMzEzLjc1IDI0NC4zIDMxMy43NUMyNDUuOTEgMzEzLjc1IDI0Ny41NiAzMTQuNTkgMjQ3LjU2IDMxNy42NUgyNDcuNTdaIi8+JiN4YTs8cGF0aCBmaWxsPSIjMzMzMzMzIiBkPSJNMjUwLjM2IDMxMC41N0MyNTIuMzEgMzEyLjkxIDI1My4yNiAzMTUuOTkgMjUzLjI2IDMxOS4wMkMyNTMuMjYgMzIyLjA1IDI1Mi4zMiAzMjUuMDcgMjUwLjQ5IDMyNy4zNEgyNDguODRDMjUwLjc3IDMyNC45OCAyNTEuNzggMzIxLjU1IDI1MS43OCAzMTguOTVDMjUxLjc4IDMxNi4zNSAyNTAuNzMgMzEyLjk1IDI0OC43NCAzMTAuNTdIMjUwLjM1SDI1MC4zNloiLz4mI3hhOzxwYXRoIGZpbGw9IiMzMzMzMzMiIGQ9Ik0yNjguMzMgMzEwLjU3SDI2OS43NFYzMjMuNzRIMjY4LjMzVjMyMS42NkMyNjcuNDcgMzIzLjE2IDI2Ni4yNSAzMjMuOTMgMjY0LjU2IDMyMy45M0MyNjEuOTIgMzIzLjkzIDI1OS44MiAzMjIuMTMgMjU5LjgyIDMxOC44OUMyNTkuODIgMzE1LjY1IDI2MS45MiAzMTMuNzYgMjY0LjU2IDMxMy43NkMyNjYuMjMgMzEzLjc2IDI2Ny40OCAzMTQuNTUgMjY4LjMzIDMxNS45M1YzMTAuNTdaTTI2OC4zMyAzMTguODVDMjY4LjAxIDMxNi43NSAyNjYuNDkgMzE1LjA1IDI2NC41OCAzMTUuMDVDMjYyLjY3IDMxNS4wNSAyNjEuMyAzMTYuMjMgMjYxLjMgMzE4Ljg3QzI2MS4zIDMyMS4yNyAyNjIuNzEgMzIyLjY0IDI2NC41OCAzMjIuNjRDMjY2LjY0IDMyMi42NCAyNjcuOTMgMzIxLjAxIDI2OC4zMyAzMTguODVaIi8+JiN4YTs8cGF0aCBmaWxsPSIjMzMzMzMzIiBkPSJNMjgxLjQ0IDMxOC44NUMyODEuNDQgMzE5LjAyIDI4MS40MiAzMTkuMjQgMjgxLjQgMzE5LjM3SDI3My42NkMyNzMuNzkgMzIxLjU2IDI3NS4wNyAzMjIuNjMgMjc3LjI4IDMyMi42M0MyNzguNCAzMjIuNjMgMjc5LjQyIDMyMi40OCAyODAuNjMgMzIxLjc3TDI4MC45NSAzMjIuOTFDMjgwLjExIDMyMy41MSAyNzguNTkgMzIzLjkyIDI3Ny4yIDMyMy45MkMyNzQuMTEgMzIzLjkyIDI3Mi4xNiAzMjIuMTIgMjcyLjE2IDMxOC45NUMyNzIuMTYgMzE1LjYgMjc0LjM1IDMxMy43NCAyNzYuOTIgMzEzLjc0QzI3OS40OSAzMTMuNzQgMjgxLjQ0IDMxNS40MyAyODEuNDQgMzE4Ljg0VjMxOC44NVpNMjczLjY4IDMxOC4xOEgyNzkuOTRDMjc5Ljc1IDMxNi4wNCAyNzguNTUgMzE1LjA1IDI3Ni44OSAzMTUuMDVDMjc1LjIzIDMxNS4wNSAyNzMuOTMgMzE2LjA4IDI3My42OSAzMTguMThIMjczLjY4WiIvPiYjeGE7PHBhdGggZmlsbD0iIzMzMzMzMyIgZD0iTTI4Mi45OCAzMjMuMkwyODMuMzcgMzIxLjkzQzI4NC4yMSAzMjIuMzggMjg1LjE5IDMyMi42NCAyODYuMjYgMzIyLjY0QzI4Ny42MyAzMjIuNjQgMjg4LjYgMzIyLjI4IDI4OC42IDMyMS4xMkMyODguNiAzMTguNjEgMjgzLjE3IDMyMC42OSAyODMuMTcgMzE2LjYyQzI4My4xNyAzMTQuOTEgMjg0LjQ0IDMxMy43NSAyODYuNzUgMzEzLjc1QzI4Ny42OSAzMTMuNzUgMjg4Ljg3IDMxNC4wMSAyODkuNjkgMzE0LjQ4TDI4OS4zMiAzMTUuNzdDMjg4LjUgMzE1LjI4IDI4Ny42NyAzMTUuMDQgMjg2Ljc3IDMxNS4wNEMyODUuNTkgMzE1LjA0IDI4NC42MiAzMTUuNTMgMjg0LjYyIDMxNi41NEMyODQuNjIgMzE5LjM1IDI5MC4wMiAzMTcuMjUgMjkwLjAyIDMyMS4wNEMyOTAuMDIgMzIyLjg0IDI4OC4yOCAzMjMuOTMgMjg2LjI1IDMyMy45M0MyODUuMDkgMzIzLjkzIDI4My43IDMyMy41NyAyODIuOTkgMzIzLjJIMjgyLjk4WiIvPiYjeGE7PHBhdGggZmlsbD0iIzMzMzMzMyIgZD0iTTI5MyAzMDkuOTVDMjkzLjU2IDMwOS45NSAyOTQuMDUgMzEwLjQgMjk0LjA1IDMxMC45OEMyOTQuMDUgMzExLjU2IDI5My41NiAzMTIuMDEgMjkzIDMxMi4wMUMyOTIuNDQgMzEyLjAxIDI5MS45NyAzMTEuNTQgMjkxLjk3IDMxMC45OEMyOTEuOTcgMzEwLjQyIDI5Mi40NCAzMDkuOTUgMjkzIDMwOS45NVpNMjkyLjMxIDMyMy43NFYzMTMuOTZIMjkzLjcyVjMyMy43NEgyOTIuMzFaIi8+JiN4YTs8cGF0aCBmaWxsPSIjMzMzMzMzIiBkPSJNMzA0LjY0IDMxMy45NkgzMDYuMDVWMzIzLjU5QzMwNi4wNSAzMjYuMjMgMzAzLjc4IDMyNy44NCAzMDEuMDcgMzI3Ljg0QzI5OS42NSAzMjcuODQgMjk3LjgzIDMyNy40MSAyOTYuNzggMzI2LjU5TDI5Ny4wNiAzMjUuMjZDMjk4LjI2IDMyNi4xMiAyOTkuOTEgMzI2LjU1IDMwMS4xMyAzMjYuNTVDMzAzIDMyNi41NSAzMDQuNjUgMzI1LjUgMzA0LjY1IDMyMy42NVYzMjEuNjVDMzAzLjgxIDMyMy4wNyAzMDIuNTcgMzIzLjc1IDMwMC44OCAzMjMuNzVDMjk4LjI0IDMyMy43NSAyOTYuMTQgMzIyLjAzIDI5Ni4xNCAzMTguOEMyOTYuMTQgMzE1LjU3IDI5OC4yNCAzMTMuNzYgMzAwLjg4IDMxMy43NkMzMDIuNTUgMzEzLjc2IDMwMy44MiAzMTQuNTUgMzA0LjY1IDMxNS45NVYzMTMuOTZIMzA0LjY0Wk0zMDQuNjQgMzE4Ljg1QzMwNC4zMiAzMTYuNzUgMzAyLjggMzE1LjA1IDMwMC44OSAzMTUuMDVDMjk4Ljk4IDMxNS4wNSAyOTcuNTkgMzE2LjEyIDI5Ny41OSAzMTguNzhDMjk3LjU5IDMyMS4xOCAyOTkuMDEgMzIyLjQ1IDMwMC44OSAzMjIuNDVDMzAyLjk1IDMyMi40NSAzMDQuMjQgMzIxLjAxIDMwNC42NCAzMTguODVaIi8+JiN4YTs8cGF0aCBmaWxsPSIjMzMzMzMzIiBkPSJNMzE3LjcyIDMxNy42NVYzMjMuNzRIMzE2LjMxVjMxNy44NEMzMTYuMzEgMzE1Ljg5IDMxNS40MSAzMTUuMDcgMzE0LjE3IDMxNS4wN0MzMTIuNSAzMTUuMDcgMzExLjQzIDMxNi4xOCAzMTAuNTUgMzE4LjQyVjMyMy43NEgzMDkuMTRWMzEzLjk2SDMxMC41NVYzMTYuMjZDMzExLjU2IDMxNC41NCAzMTIuODQgMzEzLjc1IDMxNC40NSAzMTMuNzVDMzE2LjA2IDMxMy43NSAzMTcuNzEgMzE0LjU5IDMxNy43MSAzMTcuNjVIMzE3LjcyWiIvPiYjeGE7PHBhdGggc3Ryb2tlLWRhc2hhcnJheT0iNiA2IiBzdHJva2UtbWl0ZXJsaW1pdD0iMTAiIHN0cm9rZT0iI0FGQUZBRiIgZD0iTTAgNjQuODMwMUg0OTEuNiIvPiYjeGE7PHBhdGggc3Ryb2tlLWRhc2hhcnJheT0iNiA2IiBzdHJva2UtbWl0ZXJsaW1pdD0iMTAiIHN0cm9rZT0iI0FGQUZBRiIgZD0iTTAgMzEuOTA5OUg0OTEuNiIvPiYjeGE7PHBhdGggc3Ryb2tlLWRhc2hhcnJheT0iNiA2IiBzdHJva2UtbWl0ZXJsaW1pdD0iMTAiIHN0cm9rZT0iI0FGQUZBRiIgZD0iTTAgMjUwLjY4SDQ5MS42Ii8+JiN4YTs8cGF0aCBzdHJva2UtZGFzaGFycmF5PSI2IDYiIHN0cm9rZS1taXRlcmxpbWl0PSIxMCIgc3Ryb2tlPSIjQUZBRkFGIiBkPSJNMCAyMTcuNzZINDkxLjYiLz4mI3hhOzxwYXRoIHN0cm9rZS1kYXNoYXJyYXk9IjYgNiIgc3Ryb2tlLW1pdGVybGltaXQ9IjEwIiBzdHJva2U9IiNBRkFGQUYiIGQ9Ik0yMzIuODQgMFYyODIuNjciLz4mI3hhOzxwYXRoIHN0cm9rZS1kYXNoYXJyYXk9IjYgNiIgc3Ryb2tlLW1pdGVybGltaXQ9IjEwIiBzdHJva2U9IiNBRkFGQUYiIGQ9Ik0yNjEuNTIgMFYyODIuNjciLz4mI3hhOzxwYXRoIHN0cm9rZS1kYXNoYXJyYXk9IjYgNiIgc3Ryb2tlLW1pdGVybGltaXQ9IjEwIiBzdHJva2U9IiNBRkFGQUYiIGQ9Ik0yMS43NiAwVjI4Mi42NyIvPiYjeGE7PHBhdGggc3Ryb2tlLWRhc2hhcnJheT0iNiA2IiBzdHJva2UtbWl0ZXJsaW1pdD0iMTAiIHN0cm9rZT0iI0FGQUZBRiIgZD0iTTUwLjQyOTkgMFYyODIuNjciLz4mI3hhOzxwYXRoIHN0cm9rZS1kYXNoYXJyYXk9IjYgNiIgc3Ryb2tlLW1pdGVybGltaXQ9IjEwIiBzdHJva2U9IiNBRkFGQUYiIGQ9Ik00MTUuOTYgMFYyODIuNjciLz4mI3hhOzxwYXRoIHN0cm9rZS1kYXNoYXJyYXk9IjYgNiIgc3Ryb2tlLW1pdGVybGltaXQ9IjEwIiBzdHJva2U9IiNBRkFGQUYiIGQ9Ik00NDQuNjQgMFYyODIuNjciLz4mI3hhOzxwYXRoIGZpbGw9IiMxRDRBNTYiIGQ9Ik02MC44MSAyMDQuNzZDNjguMzUgMjEzLjI2IDc5LjE4IDIxOC4xMiA5MC41MyAyMTguMTJIMTkzLjJDMjA0LjU1IDIxOC4xMiAyMTUuMzkgMjEzLjI1IDIyMi45MiAyMDQuNzZDMjMwLjQ2IDE5Ni4yNyAyMzQgMTg0Ljk0IDIzMi42NSAxNzMuNjZMMjIzLjc3IDk5LjU1QzIyMS4zOCA3OS42IDIwNC40MiA2NC41NSAxODQuMzIgNjQuNTVIOTkuNDJDNzkuMzIgNjQuNTUgNjIuMzYgNzkuNiA1OS45NyA5OS41NUw1MS4wOCAxNzMuNjZDNDkuNzMgMTg0LjkzIDUzLjI4IDE5Ni4yNyA2MC44MSAyMDQuNzZaTTcwLjMgMTc1LjQ4TDc5LjA5IDEwMi4yQzgwLjM1IDkxLjY5IDg5LjI5IDgzLjc0IDk5Ljg5IDgzLjc0SDE4My44NEMxOTQuNDQgODMuNzQgMjAzLjM4IDkxLjY4IDIwNC42NCAxMDIuMkwyMTMuNDIgMTc1LjQ4QzIxNC4xNCAxODEuNTEgMjEyLjMyIDE4Ny4zNCAyMDguMjkgMTkxLjg4QzIwNC4yNiAxOTYuNDMgMTk4LjcgMTk4LjkzIDE5Mi42MiAxOTguOTNIOTEuMUM4NS4wMyAxOTguOTMgNzkuNDYgMTk2LjQzIDc1LjQzIDE5MS44OEM3MS40IDE4Ny4zMyA2OS41OCAxODEuNTEgNzAuMyAxNzUuNDhaIi8+JiN4YTs8cGF0aCBmaWxsPSIjMUQ0QTU2IiBkPSJNOTAuODUgMTUwLjkxQzkyLjI1IDE0OC43NyA5NC40IDE0Ny4zIDk2LjkgMTQ2Ljc3Qzk5LjQxIDE0Ni4yNCAxMDEuOTYgMTQ2LjcyIDEwNC4xIDE0OC4xMkMxMjkuNjYgMTY0Ljc5IDE1NC41NCAxNjQuNzkgMTgwLjE1IDE0OC4xMkMxODIuMjkgMTQ2LjcyIDE4NC44NSAxNDYuMjQgMTg3LjM1IDE0Ni43OEMxODkuODUgMTQ3LjMxIDE5MiAxNDguNzggMTkzLjM5IDE1MC45MkMxOTQuNzkgMTUzLjA2IDE5NS4yNiAxNTUuNjIgMTk0LjczIDE1OC4xMkMxOTQuMiAxNjAuNjIgMTkyLjczIDE2Mi43NyAxOTAuNTkgMTY0LjE2QzE3NC41OCAxNzQuNTggMTU4LjI3IDE3OS44NiAxNDIuMDkgMTc5Ljg2QzEyNS45MSAxNzkuODYgMTA5LjYxIDE3NC41OCA5My42MyAxNjQuMTVDOTEuNDkgMTYyLjc1IDkwLjAyIDE2MC42MSA4OS40OSAxNTguMUM4OC45NiAxNTUuNiA4OS40NCAxNTMuMDQgOTAuODQgMTUwLjlMOTAuODUgMTUwLjkxWiIvPiYjeGE7PHBhdGggZmlsbD0iIzFENEE1NiIgZD0iTTM4NS42OSAxMTAuODJMMzc2LjYxIDExMy45NUMzNzcuNiAxMTcuMTYgMzc4LjgyIDEyMS43MyAzNzguODIgMTI0LjQxQzM3OC44MiAxMjcuMzEgMzc2Ljk5IDEyOS4wNyAzNzMuNDggMTI5LjA3QzM2OS45NyAxMjkuMDcgMzY3Ljc2IDEyOC4yMyAzNjcuNzYgMTIzLjVWMTE1LjMzSDM1OC4xNFYxMjMuNUMzNTguMTQgMTI4LjIzIDM1NiAxMjkuMDcgMzUyLjE5IDEyOS4wN0MzNDguMzggMTI5LjA3IDM0Ni4zMSAxMjguMjMgMzQ2LjMxIDEyMy41VjExNS4zM0gzMzYuNjJWMTIzLjQyQzMzNi42MiAxMjguMjMgMzM0LjAzIDEyOS4wNyAzMjguNDUgMTI5LjA3QzMyMi44NyAxMjkuMDcgMzIwLjc0IDEyNy45MyAzMjAuNzQgMTIxLjY3Vjg2LjY0MDFIMzEwLjU5VjEyMi4yQzMxMC41OSAxMjggMzA4LjYxIDEyOS4wNyAzMDIuODggMTI5LjA3QzI5OC4zOCAxMjkuMDcgMjk1LjcxIDEyOC4xNiAyOTUuNzEgMTIyLjQzVjk2LjE3MDFIMjg2LjE3VjEwMS41OUMyNjguMDggMTA1LjMyIDI2MS42IDExMi44OCAyNjEuNiAxMjIuMzRDMjYxLjYgMTMxLjggMjY3LjU1IDEzNy4xNCAyNzYuMjUgMTM3LjE0QzI4Mi43NCAxMzcuMTQgMjg2LjAyIDEzMy44NiAyODcuNDcgMTI5LjQzQzI4OC43NyAxMzcuMjkgMjkzLjM0IDE0MS44NiAzMDIuMjYgMTQxLjg3SDMwMi4yN0MzMDkuMDYgMTQxLjg3IDMxMi44OCAxMzguODIgMzE0LjQ4IDEzNC4xNkMzMTYuNDYgMTM5LjM1IDMyMC45NyAxNDEuODcgMzI3LjgzIDE0MS44N0MzMzQuMTYgMTQxLjg3IDMzOC4yOCAxMzkuNTggMzM5Ljg5IDEzNC44NUMzNDEuNDkgMTM5LjY2IDM0NS4zMSAxNDEuODcgMzUwLjczIDE0MS44N0MzNTYuMTUgMTQxLjg3IDM1OS44OSAxMzkuNTggMzYxLjQxIDEzNC43N0MzNjMuMDEgMTM5LjU4IDM2Ni45IDE0MS44NyAzNzMuMTYgMTQxLjg3QzM4Mi42MiAxNDEuODcgMzg4LjQyIDEzNS42OSAzODguNDIgMTI0LjQ3QzM4OC40MiAxMjAuMzUgMzg3LjI4IDExNC43IDM4NS42NyAxMTAuODFMMzg1LjY5IDExMC44MlpNMjg2LjE4IDEyMi4xMUMyODQuNjYgMTIzLjMzIDI4MS43NSAxMjQuMjUgMjc3LjQ4IDEyNC4yNUMyNzMuNTkgMTI0LjI1IDI2OS43IDEyMy4xOCAyNjkuNyAxMjAuNTlDMjY5LjcgMTE3Ljc2IDI3My43NCAxMTQuOTQgMjg2LjE4IDExMi44OFYxMjIuMTFaIi8+JiN4YTs8cGF0aCBmaWxsPSIjMUQ0QTU2IiBkPSJNMjkwLjkxIDk0LjIxMDFDMjk0LjI0IDk0LjIxMDEgMjk2Ljk4IDkxLjc5MDEgMjk2Ljk4IDg4LjQwMDFDMjk2Ljk4IDg0LjgxMDEgMjk0LjExIDgyLjU5MDEgMjkwLjkxIDgyLjU5MDFDMjg3LjcxIDgyLjU5MDEgMjg0Ljc3IDg0Ljg3MDEgMjg0Ljc3IDg4LjQwMDFDMjg0Ljc3IDkxLjkzMDEgMjg3Ljc3IDk0LjIxMDEgMjkwLjkxIDk0LjIxMDFaIi8+JiN4YTs8cGF0aCBmaWxsPSIjMUQ0QTU2IiBkPSJNMjc3LjE5IDk0LjIxMDFDMjgwLjUyIDk0LjIxMDEgMjgzLjI2IDkxLjc5MDEgMjgzLjI2IDg4LjQwMDFDMjgzLjI2IDg0LjgxMDEgMjgwLjM5IDgyLjU5MDEgMjc3LjE5IDgyLjU5MDFDMjczLjk5IDgyLjU5MDEgMjcxLjA1IDg0Ljg3MDEgMjcxLjA1IDg4LjQwMDFDMjcxLjA1IDkxLjkzMDEgMjc0LjA1IDk0LjIxMDEgMjc3LjE5IDk0LjIxMDFaIi8+JiN4YTs8cGF0aCBmaWxsPSIjMUQ0QTU2IiBkPSJNMjYxLjc0IDE5Ni41MkwyNjMuMjQgMTg4LjM2QzI2Ni4xOCAxOTAuNDUgMjcxLjQgMTkyLjM0IDI3NS43NyAxOTIuMzRDMjc5LjU2IDE5Mi4zNCAyODEuNzggMTkxLjEgMjgxLjc4IDE4OS4wMUMyODEuNzggMTgzLjMzIDI2Mi4wNyAxODguNjIgMjYyLjA3IDE3NC44NUMyNjIuMDcgMTY3LjY3IDI2OC4wMSAxNjIuOTcgMjc3LjYxIDE2Mi45N0MyODIuNzcgMTYyLjk3IDI4Ny41MyAxNjQuNDEgMjkwLjkzIDE2Ni4xN0wyODkuMyAxNzQuMTNDMjg2LjEgMTcyLjQzIDI4Mi4wNSAxNzAuODcgMjc4LjE0IDE3MC44N0MyNzQuNTUgMTcwLjg3IDI3Mi4zMyAxNzIuMjQgMjcyLjMzIDE3NC4yQzI3Mi4zMyAxODAuMTQgMjkyLjA0IDE3NS4wNSAyOTIuMDQgMTg3LjkxQzI5Mi4wNCAxOTQuOTYgMjg1LjMyIDE5OS45MiAyNzUuMzkgMTk5LjkyQzI2OS40NSAxOTkuOTIgMjY0LjY4IDE5OC4xNiAyNjEuNzUgMTk2LjUzTDI2MS43NCAxOTYuNTJaIi8+JiN4YTs8cGF0aCBmaWxsPSIjMUQ0QTU2IiBkPSJNMzI1LjA2IDE2NC4xNUgzMzUuMzdWMTk4Ljk0SDMyNS4wNlYxOTMuMkMzMjIuMjUgMTk3LjM4IDMxOC4yNyAxOTkuNzkgMzEzLjExIDE5OS43OUMzMDQuMzYgMTk5Ljc5IDI5NS45NCAxOTMuNTkgMjk1Ljk0IDE4MS41MUMyOTUuOTQgMTY5LjQzIDMwMy45NyAxNjMuMSAzMTMuMTEgMTYzLjFDMzE4LjIgMTYzLjEgMzIyLjE4IDE2NC45OSAzMjUuMDYgMTY4Ljc4VjE2NC4xNVpNMzI1LjA2IDE4MS4zOEMzMjMuMTcgMTc0LjkyIDMxOS4zOCAxNzEuNjUgMzE1LjA3IDE3MS42NUMzMTAuNDQgMTcxLjY1IDMwNi44NSAxNzUuMTEgMzA2Ljg1IDE4MS4zOEMzMDYuODUgMTg3LjY1IDMxMC41MSAxOTEuMjQgMzE1LjE0IDE5MS4yNEMzMTkuNzcgMTkxLjI0IDMyMy4zNiAxODcuMjYgMzI1LjA2IDE4MS4zOFoiLz4mI3hhOzxwYXRoIGZpbGw9IiMxRDRBNTYiIGQ9Ik0zNDIuOTUgMTk4Ljk0VjE1My4wNUgzNTMuMjZWMTk4Ljk0SDM0Mi45NVoiLz4mI3hhOzxwYXRoIGZpbGw9IiMxRDRBNTYiIGQ9Ik0zNjAuODMgMTk4Ljk0VjE1My4wNUgzNzEuMTRWMTk4Ljk0SDM2MC44M1oiLz4mI3hhOzxwYXRoIGZpbGw9IiMxRDRBNTYiIGQ9Ik00MDYuMTMgMTY0LjE1SDQxNi40NFYxOTguOTRINDA2LjEzVjE5My4yQzQwMy4zMiAxOTcuMzggMzk5LjM0IDE5OS43OSAzOTQuMTggMTk5Ljc5QzM4NS40MyAxOTkuNzkgMzc3LjAxIDE5My41OSAzNzcuMDEgMTgxLjUxQzM3Ny4wMSAxNjkuNDMgMzg1LjA0IDE2My4xIDM5NC4xOCAxNjMuMUMzOTkuMjcgMTYzLjEgNDAzLjI1IDE2NC45OSA0MDYuMTMgMTY4Ljc4VjE2NC4xNVpNNDA2LjEzIDE4MS4zOEM0MDQuMjQgMTc0LjkyIDQwMC40NSAxNzEuNjUgMzk2LjE0IDE3MS42NUMzOTEuNTEgMTcxLjY1IDM4Ny45MiAxNzUuMTEgMzg3LjkyIDE4MS4zOEMzODcuOTIgMTg3LjY1IDM5MS41OCAxOTEuMjQgMzk2LjIxIDE5MS4yNEM0MDAuODQgMTkxLjI0IDQwNC40MyAxODcuMjYgNDA2LjEzIDE4MS4zOFoiLz4mI3hhOzwvc3ZnPg==;" vertex="1" parent="1">
          <mxGeometry x="550" y="174.88" width="150" height="100" as="geometry" />
        </mxCell>
        <mxCell id="rvgHuQoIqtjPsj6YoDYo-7" value="Text" style="text;html=1;align=center;verticalAlign=middle;resizable=0;points=[];autosize=1;strokeColor=none;fillColor=none;" vertex="1" parent="1">
          <mxGeometry x="640" y="273.9" width="50" height="30" as="geometry" />
        </mxCell>
        <mxCell id="rvgHuQoIqtjPsj6YoDYo-8" value="" style="html=1;verticalLabelPosition=bottom;align=center;labelBackgroundColor=#ffffff;verticalAlign=top;strokeWidth=2;strokeColor=#0080F0;shadow=0;dashed=0;shape=mxgraph.ios7.icons.settings;" vertex="1" parent="1">
          <mxGeometry x="295" y="159.88" width="130" height="130" as="geometry" />
        </mxCell>
        <mxCell id="rvgHuQoIqtjPsj6YoDYo-10" value="" style="shape=flexArrow;endArrow=classic;startArrow=classic;html=1;rounded=0;" edge="1" parent="1">
          <mxGeometry width="100" height="100" relative="1" as="geometry">
            <mxPoint x="195" y="224.32" as="sourcePoint" />
            <mxPoint x="310" y="224.32" as="targetPoint" />
          </mxGeometry>
        </mxCell>
        <mxCell id="rvgHuQoIqtjPsj6YoDYo-11" value="" style="shape=flexArrow;endArrow=classic;startArrow=classic;html=1;rounded=0;" edge="1" parent="1">
          <mxGeometry width="100" height="100" relative="1" as="geometry">
            <mxPoint x="420" y="224.32" as="sourcePoint" />
            <mxPoint x="535" y="224.32" as="targetPoint" />
          </mxGeometry>
        </mxCell>
        <mxCell id="rvgHuQoIqtjPsj6YoDYo-12" value="&lt;h1 style=&quot;margin-top: 0px;&quot;&gt;Back-end Service&lt;/h1&gt;&lt;p&gt;&lt;font style=&quot;font-size: 18px;&quot;&gt;تقوم هذه الخدمه مسئوله عن الربط بين التطبيقين ، وتقوم بتنفيذ عمليات مأتمتة للمزامنه بين&amp;nbsp; المخزون في المتجر والبرنامج المحاسبي&lt;/font&gt;&lt;/p&gt;" style="text;html=1;whiteSpace=wrap;overflow=hidden;rounded=0;" vertex="1" parent="1">
          <mxGeometry x="230" y="303.9" width="270" height="196.1" as="geometry" />
        </mxCell>
        <mxCell id="rvgHuQoIqtjPsj6YoDYo-13" value="&lt;font style=&quot;font-size: 18px;&quot;&gt;يتم رفع التطبيق على استضافه خاصه&lt;br&gt;VPS&lt;br&gt;ويكون شغال 24 ساعة&lt;/font&gt;" style="text;html=1;align=center;verticalAlign=middle;whiteSpace=wrap;rounded=0;strokeWidth=5;" vertex="1" parent="1">
          <mxGeometry x="250" y="460" width="190" height="110" as="geometry" />
        </mxCell>
      </root>
    </mxGraphModel>
  </diagram>
</mxfile>
